<svg width="127" height="43" viewBox="0 0 127 43" fill="none" xmlns="http://www.w3.org/2000/svg">
<rect x="0.431641" y="0.4375" width="126.519" height="42.3354" rx="7.69734" fill="#332F2F"/>
<path d="M17.5332 20.6167L8.18555 30.762C8.18642 30.7638 8.18642 30.7665 8.1873 30.7683C8.4744 31.8699 9.45771 32.6807 10.6254 32.6807C11.0925 32.6807 11.5306 32.5514 11.9063 32.3251L11.9362 32.3072L22.4577 26.0988L17.5332 20.6167Z" fill="#EA4335"/>
<path d="M26.9874 18.8892L26.9786 18.8829L22.436 16.1904L17.3184 20.8473L22.4544 26.0978L26.9724 23.4322C27.7643 22.994 28.3025 22.1402 28.3025 21.1562C28.3025 20.1776 27.7723 19.3282 26.9874 18.8892Z" fill="#FBBC04"/>
<path d="M8.18565 11.5066C8.12946 11.7185 8.09961 11.9412 8.09961 12.171V30.0986C8.09961 30.3284 8.12946 30.5511 8.18653 30.7621L17.8546 20.8762L8.18565 11.5066Z" fill="#4285F4"/>
<path d="M17.6026 21.1345L22.4401 16.1885L11.9309 9.9576C11.549 9.72327 11.103 9.5886 10.6263 9.5886C9.45859 9.5886 8.47352 10.4011 8.18642 11.5036C8.18642 11.5045 8.18555 11.5054 8.18555 11.5063L17.6026 21.1345Z" fill="#34A853"/>
<path d="M41.6309 12.3239C41.5557 12.0939 41.4566 11.8877 41.3336 11.7055C41.2129 11.521 41.0682 11.3638 40.8997 11.234C40.7334 11.1041 40.5443 11.0051 40.3325 10.9367C40.1206 10.8684 39.8883 10.8342 39.6355 10.8342C39.2209 10.8342 38.8439 10.9413 38.5045 11.1554C38.1651 11.3695 37.8952 11.685 37.6947 12.1018C37.4943 12.5187 37.394 13.0301 37.394 13.636C37.394 14.2419 37.4954 14.7533 37.6981 15.1701C37.9009 15.587 38.1754 15.9024 38.5216 16.1166C38.8678 16.3307 39.2573 16.4377 39.6901 16.4377C40.091 16.4377 40.4441 16.3523 40.7493 16.1815C41.0568 16.0084 41.296 15.7646 41.4669 15.4503C41.64 15.1337 41.7265 14.7612 41.7265 14.333L41.9862 14.3877H39.8815V13.636H42.5466V14.3877C42.5466 14.964 42.4236 15.4651 42.1776 15.8911C41.9338 16.317 41.5967 16.6473 41.1662 16.8819C40.7379 17.1143 40.2459 17.2304 39.6901 17.2304C39.0706 17.2304 38.5261 17.0847 38.0569 16.7931C37.5899 16.5015 37.2255 16.087 36.9635 15.5494C36.7039 15.0118 36.574 14.374 36.574 13.636C36.574 13.0825 36.6481 12.5847 36.7961 12.1428C36.9464 11.6987 37.1583 11.3205 37.4316 11.0085C37.705 10.6964 38.0284 10.4572 38.402 10.2909C38.7756 10.1247 39.1867 10.0415 39.6355 10.0415C40.0045 10.0415 40.3484 10.0973 40.6673 10.2089C40.9885 10.3183 41.2744 10.4743 41.5249 10.677C41.7778 10.8775 41.9885 11.1178 42.157 11.398C42.3256 11.6759 42.4418 11.9845 42.5056 12.3239H41.6309ZM43.9978 17.1348V10.1372H48.221V10.8889H44.8452V13.2533H48.0023V14.005H44.8452V16.3831H48.2757V17.1348H43.9978ZM49.3656 10.8889V10.1372H54.6138V10.8889H52.4134V17.1348H51.566V10.8889H49.3656ZM59.475 10.1372V17.1348H58.6277V10.1372H59.475ZM60.7913 10.8889V10.1372H66.0395V10.8889H63.8391V17.1348H62.9918V10.8889H60.7913ZM75.9576 13.636C75.9576 14.374 75.8244 15.0118 75.5578 15.5494C75.2913 16.087 74.9257 16.5015 74.4611 16.7931C73.9964 17.0847 73.4656 17.2304 72.8688 17.2304C72.272 17.2304 71.7413 17.0847 71.2766 16.7931C70.8119 16.5015 70.4463 16.087 70.1798 15.5494C69.9133 15.0118 69.7801 14.374 69.7801 13.636C69.7801 12.898 69.9133 12.2602 70.1798 11.7226C70.4463 11.185 70.8119 10.7704 71.2766 10.4789C71.7413 10.1873 72.272 10.0415 72.8688 10.0415C73.4656 10.0415 73.9964 10.1873 74.4611 10.4789C74.9257 10.7704 75.2913 11.185 75.5578 11.7226C75.8244 12.2602 75.9576 12.898 75.9576 13.636ZM75.1376 13.636C75.1376 13.0301 75.0362 12.5187 74.8335 12.1018C74.633 11.685 74.3608 11.3695 74.0169 11.1554C73.6752 10.9413 73.2925 10.8342 72.8688 10.8342C72.4452 10.8342 72.0613 10.9413 71.7174 11.1554C71.3757 11.3695 71.1035 11.685 70.9008 12.1018C70.7003 12.5187 70.6001 13.0301 70.6001 13.636C70.6001 14.2419 70.7003 14.7533 70.9008 15.1701C71.1035 15.587 71.3757 15.9024 71.7174 16.1166C72.0613 16.3307 72.4452 16.4377 72.8688 16.4377C73.2925 16.4377 73.6752 16.3307 74.0169 16.1166C74.3608 15.9024 74.633 15.587 74.8335 15.1701C75.0362 14.7533 75.1376 14.2419 75.1376 13.636ZM82.9313 10.1372V17.1348H82.1112L78.2981 11.6406H78.2298V17.1348H77.3824V10.1372H78.2024L82.0292 15.645H82.0976V10.1372H82.9313Z" fill="white"/>
<path d="M44.8071 24.4757C44.7014 24.144 44.5593 23.847 44.3807 23.5846C44.2058 23.3185 43.9962 23.0926 43.752 22.9067C43.5078 22.7172 43.229 22.5732 42.9156 22.4748C42.6058 22.3764 42.265 22.3272 41.8933 22.3272C41.2628 22.3272 40.6942 22.4894 40.1876 22.8138C39.681 23.1381 39.2801 23.6138 38.9849 24.2406C38.6933 24.8638 38.5476 25.6274 38.5476 26.5312C38.5476 27.4387 38.6952 28.2059 38.9904 28.8328C39.2856 29.4596 39.6901 29.9353 40.204 30.2596C40.7179 30.584 41.3029 30.7462 41.9589 30.7462C42.5675 30.7462 43.0978 30.6223 43.5497 30.3744C44.0053 30.1266 44.357 29.7767 44.6048 29.3248C44.8563 28.8692 44.982 28.3335 44.982 27.7175L45.4194 27.7995H42.2158V26.4055H46.6166V27.6793C46.6166 28.6196 46.4162 29.436 46.0153 30.1284C45.618 30.8173 45.0677 31.3494 44.3643 31.7248C43.6645 32.1001 42.8627 32.2878 41.9589 32.2878C40.9457 32.2878 40.0564 32.0546 39.291 31.5881C38.5293 31.1216 37.9353 30.4601 37.5089 29.6036C37.0824 28.7435 36.8692 27.723 36.8692 26.5422C36.8692 25.6492 36.9931 24.8474 37.241 24.1368C37.4888 23.4261 37.8369 22.8229 38.2851 22.3272C38.7371 21.8279 39.2674 21.4471 39.876 21.1846C40.4883 20.9186 41.1571 20.7856 41.8823 20.7856C42.4873 20.7856 43.0504 20.8749 43.5716 21.0534C44.0964 21.232 44.5629 21.4853 44.9711 21.8133C45.383 22.1413 45.7237 22.5313 45.9934 22.9832C46.2631 23.4315 46.4453 23.929 46.5401 24.4757H44.8071ZM51.6073 32.3042C50.82 32.3042 50.133 32.1238 49.5463 31.763C48.9595 31.4022 48.5039 30.8974 48.1796 30.2487C47.8552 29.6 47.693 28.8419 47.693 27.9745C47.693 27.1034 47.8552 26.3417 48.1796 25.6893C48.5039 25.037 48.9595 24.5304 49.5463 24.1696C50.133 23.8087 50.82 23.6283 51.6073 23.6283C52.3945 23.6283 53.0815 23.8087 53.6683 24.1696C54.2551 24.5304 54.7106 25.037 55.035 25.6893C55.3594 26.3417 55.5215 27.1034 55.5215 27.9745C55.5215 28.8419 55.3594 29.6 55.035 30.2487C54.7106 30.8974 54.2551 31.4022 53.6683 31.763C53.0815 32.1238 52.3945 32.3042 51.6073 32.3042ZM51.6127 30.9321C52.123 30.9321 52.5457 30.7972 52.881 30.5275C53.2163 30.2578 53.4642 29.8988 53.6245 29.4505C53.7885 29.0023 53.8706 28.5084 53.8706 27.969C53.8706 27.4333 53.7885 26.9412 53.6245 26.493C53.4642 26.041 53.2163 25.6784 52.881 25.4051C52.5457 25.1317 52.123 24.995 51.6127 24.995C51.0989 24.995 50.6724 25.1317 50.3335 25.4051C49.9982 25.6784 49.7485 26.041 49.5845 26.493C49.4242 26.9412 49.344 27.4333 49.344 27.969C49.344 28.5084 49.4242 29.0023 49.5845 29.4505C49.7485 29.8988 49.9982 30.2578 50.3335 30.5275C50.6724 30.7972 51.0989 30.9321 51.6127 30.9321ZM60.3236 32.3042C59.5363 32.3042 58.8493 32.1238 58.2626 31.763C57.6758 31.4022 57.2202 30.8974 56.8958 30.2487C56.5715 29.6 56.4093 28.8419 56.4093 27.9745C56.4093 27.1034 56.5715 26.3417 56.8958 25.6893C57.2202 25.037 57.6758 24.5304 58.2626 24.1696C58.8493 23.8087 59.5363 23.6283 60.3236 23.6283C61.1108 23.6283 61.7978 23.8087 62.3846 24.1696C62.9713 24.5304 63.4269 25.037 63.7513 25.6893C64.0757 26.3417 64.2378 27.1034 64.2378 27.9745C64.2378 28.8419 64.0757 29.6 63.7513 30.2487C63.4269 30.8974 62.9713 31.4022 62.3846 31.763C61.7978 32.1238 61.1108 32.3042 60.3236 32.3042ZM60.329 30.9321C60.8393 30.9321 61.262 30.7972 61.5973 30.5275C61.9326 30.2578 62.1805 29.8988 62.3408 29.4505C62.5048 29.0023 62.5868 28.5084 62.5868 27.969C62.5868 27.4333 62.5048 26.9412 62.3408 26.493C62.1805 26.041 61.9326 25.6784 61.5973 25.4051C61.262 25.1317 60.8393 24.995 60.329 24.995C59.8151 24.995 59.3887 25.1317 59.0498 25.4051C58.7145 25.6784 58.4648 26.041 58.3008 26.493C58.1405 26.9412 58.0603 27.4333 58.0603 27.969C58.0603 28.5084 58.1405 29.0023 58.3008 29.4505C58.4648 29.8988 58.7145 30.2578 59.0498 30.5275C59.3887 30.7972 59.8151 30.9321 60.329 30.9321ZM69.0235 35.4586C68.3565 35.4586 67.7825 35.3711 67.3014 35.1962C66.824 35.0213 66.434 34.7898 66.1315 34.5019C65.829 34.214 65.603 33.8987 65.4536 33.5561L66.8586 32.9767C66.957 33.137 67.0882 33.3065 67.2522 33.4851C67.4198 33.6673 67.6458 33.8222 67.9301 33.9498C68.218 34.0773 68.5879 34.1411 69.0399 34.1411C69.6594 34.1411 70.1715 33.9899 70.576 33.6874C70.9806 33.3885 71.1829 32.9111 71.1829 32.255V30.604H71.079C70.9806 30.7826 70.8385 30.9813 70.6526 31.1999C70.4704 31.4186 70.2189 31.6081 69.8982 31.7685C69.5774 31.9288 69.1601 32.009 68.6462 32.009C67.9829 32.009 67.3852 31.8541 66.8531 31.5443C66.3247 31.2309 65.9055 30.7699 65.5957 30.1612C65.2896 29.5489 65.1365 28.7963 65.1365 27.9034C65.1365 27.0105 65.2878 26.2451 65.5903 25.6073C65.8964 24.9695 66.3155 24.4812 66.8477 24.1422C67.3798 23.7996 67.9829 23.6283 68.6572 23.6283C69.1784 23.6283 69.5993 23.7158 69.92 23.8907C70.2407 24.062 70.4904 24.2625 70.669 24.4921C70.8512 24.7217 70.9915 24.924 71.0899 25.0989H71.2102V23.7377H72.812V32.3206C72.812 33.0423 72.6443 33.6345 72.309 34.0974C71.9737 34.5602 71.52 34.9028 70.9478 35.1251C70.3792 35.3475 69.7378 35.4586 69.0235 35.4586ZM69.0071 30.6532C69.4772 30.6532 69.8745 30.5439 70.1988 30.3252C70.5268 30.1029 70.7747 29.7858 70.9423 29.374C71.1136 28.9585 71.1993 28.461 71.1993 27.8815C71.1993 27.3166 71.1154 26.8192 70.9478 26.3891C70.7801 25.959 70.5341 25.6237 70.2098 25.3832C69.8854 25.139 69.4845 25.0169 69.0071 25.0169C68.515 25.0169 68.105 25.1445 67.777 25.3996C67.449 25.6511 67.2012 25.9937 67.0335 26.4274C66.8695 26.8611 66.7875 27.3458 66.7875 27.8815C66.7875 28.4319 66.8713 28.9148 67.039 29.3303C67.2066 29.7457 67.4545 30.0701 67.7825 30.3034C68.1141 30.5366 68.5223 30.6532 69.0071 30.6532ZM76.0792 20.9386V32.1348H74.4446V20.9386H76.0792ZM81.3377 32.3042C80.5104 32.3042 79.7979 32.1275 79.2002 31.774C78.6061 31.4168 78.1469 30.9157 77.8225 30.2706C77.5018 29.6218 77.3414 28.8619 77.3414 27.9909C77.3414 27.1308 77.5018 26.3727 77.8225 25.7167C78.1469 25.0607 78.5988 24.5486 79.1783 24.1805C79.7614 23.8124 80.443 23.6283 81.2229 23.6283C81.6967 23.6283 82.1559 23.7067 82.6006 23.8634C83.0452 24.0201 83.4443 24.2661 83.7978 24.6014C84.1513 24.9367 84.4301 25.3723 84.6342 25.908C84.8383 26.4401 84.9404 27.087 84.9404 27.8487V28.4282H78.2653V27.2037H83.3386C83.3386 26.7736 83.2511 26.3927 83.0762 26.0611C82.9012 25.7258 82.6552 25.4616 82.3381 25.2684C82.0247 25.0752 81.6566 24.9786 81.2338 24.9786C80.7746 24.9786 80.3737 25.0916 80.0311 25.3176C79.6922 25.5399 79.4298 25.8315 79.2439 26.1923C79.0617 26.5495 78.9706 26.9376 78.9706 27.3567V28.3134C78.9706 28.8747 79.069 29.3521 79.2658 29.7457C79.4662 30.1394 79.745 30.44 80.1022 30.6478C80.4594 30.8519 80.8767 30.9539 81.3541 30.9539C81.6639 30.9539 81.9464 30.9102 82.2015 30.8227C82.4566 30.7316 82.6771 30.5968 82.863 30.4182C83.0488 30.2396 83.191 30.0191 83.2894 29.7567L84.8365 30.0355C84.7126 30.4911 84.4903 30.8901 84.1695 31.2327C83.8525 31.5717 83.4534 31.8359 82.9723 32.0254C82.4949 32.2113 81.95 32.3042 81.3377 32.3042ZM89.8402 32.1348V20.9386H93.831C94.702 20.9386 95.4237 21.0972 95.9959 21.4143C96.5681 21.7313 96.9963 22.165 97.2806 22.7154C97.5649 23.2621 97.707 23.878 97.707 24.5632C97.707 25.252 97.563 25.8716 97.2751 26.4219C96.9908 26.9686 96.5608 27.4023 95.9849 27.723C95.4127 28.0401 94.6929 28.1986 93.8255 28.1986H91.0812V26.7663H93.6724C94.2228 26.7663 94.6692 26.6716 95.0118 26.482C95.3544 26.2889 95.6059 26.0265 95.7663 25.6948C95.9266 25.3632 96.0068 24.9859 96.0068 24.5632C96.0068 24.1404 95.9266 23.765 95.7663 23.437C95.6059 23.109 95.3526 22.852 95.0064 22.6662C94.6638 22.4803 94.2118 22.3874 93.6506 22.3874H91.5294V32.1348H89.8402ZM100.631 20.9386V32.1348H98.9966V20.9386H100.631ZM104.714 32.3206C104.182 32.3206 103.701 32.2222 103.271 32.0254C102.841 31.825 102.5 31.5352 102.249 31.1562C102.001 30.7772 101.877 30.3125 101.877 29.7621C101.877 29.2884 101.968 28.8984 102.15 28.5922C102.333 28.2861 102.579 28.0437 102.888 27.8651C103.198 27.6866 103.544 27.5517 103.927 27.4606C104.31 27.3695 104.7 27.3002 105.097 27.2529C105.6 27.1945 106.008 27.1472 106.322 27.1107C106.635 27.0706 106.863 27.0069 107.005 26.9194C107.147 26.8319 107.218 26.6898 107.218 26.493V26.4547C107.218 25.9773 107.083 25.6073 106.814 25.3449C106.548 25.0825 106.15 24.9513 105.622 24.9513C105.071 24.9513 104.638 25.0734 104.321 25.3176C104.007 25.5581 103.79 25.826 103.67 26.1212L102.134 25.7713C102.316 25.2611 102.582 24.8493 102.932 24.5358C103.286 24.2188 103.692 23.9891 104.151 23.847C104.61 23.7012 105.093 23.6283 105.6 23.6283C105.935 23.6283 106.291 23.6684 106.666 23.7486C107.045 23.8251 107.399 23.9673 107.727 24.175C108.058 24.3828 108.33 24.6798 108.541 25.0661C108.752 25.4488 108.858 25.9463 108.858 26.5586V32.1348H107.262V30.9867H107.196C107.091 31.1981 106.932 31.4059 106.721 31.6099C106.509 31.814 106.238 31.9835 105.906 32.1184C105.574 32.2532 105.177 32.3206 104.714 32.3206ZM105.07 31.0086C105.522 31.0086 105.908 30.9193 106.229 30.7407C106.553 30.5621 106.799 30.3289 106.967 30.041C107.138 29.7494 107.224 29.4378 107.224 29.1061V28.0237C107.165 28.082 107.052 28.1367 106.885 28.1877C106.721 28.2351 106.533 28.277 106.322 28.3134C106.11 28.3462 105.904 28.3772 105.704 28.4064C105.503 28.4319 105.336 28.4537 105.201 28.472C104.884 28.5121 104.594 28.5795 104.332 28.6742C104.073 28.769 103.865 28.9057 103.708 29.0843C103.555 29.2592 103.479 29.4925 103.479 29.784C103.479 30.1886 103.628 30.4947 103.927 30.7024C104.226 30.9065 104.607 31.0086 105.07 31.0086ZM111.208 35.2837C110.964 35.2837 110.742 35.2636 110.541 35.2235C110.341 35.1871 110.191 35.147 110.093 35.1033L110.487 33.7639C110.786 33.8441 111.052 33.8787 111.285 33.8678C111.518 33.8568 111.724 33.7694 111.903 33.6054C112.085 33.4413 112.245 33.1735 112.384 32.8017L112.586 32.2441L109.514 23.7377H111.263L113.39 30.2542H113.477L115.604 23.7377H117.359L113.898 33.2555C113.738 33.6928 113.534 34.0627 113.286 34.3652C113.038 34.6714 112.743 34.901 112.4 35.0541C112.057 35.2071 111.66 35.2837 111.208 35.2837Z" fill="white"/>
</svg>
