<svg width="11" height="7" viewBox="0 0 11 7" fill="none" xmlns="http://www.w3.org/2000/svg">
<path id="Vector" d="M7.30309 2.71247C7.13742 2.71247 6.9077 2.75333 6.75346 2.68612C6.50766 2.57903 6.46936 2.24516 6.68499 2.08761C6.79985 2.00369 6.92675 1.98471 7.05558 1.99202C7.35617 1.99202 7.67445 2.00791 7.97298 2.00791C8.15421 2.00791 8.32771 2.02341 8.44672 2.17982C8.51593 2.27076 8.50545 2.38121 8.50545 2.48907V3.1077C8.50545 3.36076 8.583 3.72991 8.36795 3.91149C8.19244 4.05973 7.91731 3.96951 7.83804 3.7607C7.78017 3.60823 7.80793 3.37047 7.80793 3.20903C7.62758 3.36368 7.42168 3.59692 7.25493 3.76407C6.76093 4.25923 5.96698 4.818 6.32939 5.6166C6.37661 5.72061 6.44067 5.81954 6.52051 5.90143C6.62702 6.01067 6.74858 6.08844 6.89085 6.14201C7.65184 6.42848 8.18442 5.69776 8.65057 5.21994C9.20138 4.65533 10.0548 4.09095 10.0163 3.21081C9.98963 2.6012 9.52857 2.20789 9.12518 1.8116C8.52381 1.22079 7.94781 0.370326 6.99391 0.531462C6.85825 0.554386 6.72184 0.602347 6.59885 0.664262C6.37377 0.777592 6.20539 0.972701 6.03074 1.1487C5.77706 1.40435 5.51553 1.65282 5.26569 1.91216C5.10803 2.07584 4.79128 2.28195 4.70493 2.49201C4.66778 2.5824 4.69225 2.71918 4.69225 2.81557C4.69225 3.10294 4.75064 3.46672 4.6639 3.74352C4.57343 4.03215 4.2008 4.06468 4.03616 3.82937C3.92657 3.67274 3.96897 3.41608 3.96897 3.2348C3.85732 3.32932 3.75292 3.44053 3.6529 3.53731C3.42574 3.75709 3.19411 3.97863 2.97619 4.2073C2.85878 4.33053 2.73304 4.5055 2.56236 4.5548C2.27391 4.6381 2.027 4.28603 2.17783 4.03591C2.24569 3.92337 2.35908 3.84319 2.44786 3.74861C2.76973 3.40575 3.18517 3.09646 3.45554 2.71247C3.28027 2.71247 3.02468 2.7605 2.87161 2.66143C2.61071 2.49258 2.6726 2.12401 2.95742 2.02451C3.20605 1.93766 3.58756 2.00791 3.8506 2.00791C3.94279 2.00791 4.10947 2.03993 4.1861 1.98037C4.29489 1.8958 4.35479 1.70762 4.38282 1.57831C4.49137 1.07763 4.20222 0.534761 3.69601 0.395311C2.95308 0.190665 2.49453 0.83851 2.02989 1.30336C1.43587 1.89764 0.575771 2.48223 0.640131 3.41702C0.67859 3.97578 1.11201 4.33744 1.48024 4.70584C2.16362 5.38953 2.93329 6.43713 4.02237 5.90684C4.28199 5.78043 4.47425 5.55975 4.67508 5.35884L5.55108 4.48244L6.70191 3.3311C6.8987 3.13422 7.14295 2.93992 7.30309 2.71247Z" fill="white"/>
</svg>
