<svg width="22" height="22" viewBox="0 0 22 22" fill="none" xmlns="http://www.w3.org/2000/svg">
<g id="Linear / Video, Audio, Sound / Gallery Add">
<path id="Vector" d="M20.1663 10.9997C20.1663 15.3209 20.1663 17.4815 18.8239 18.8239C17.4815 20.1663 15.3209 20.1663 10.9997 20.1663C6.67847 20.1663 4.51786 20.1663 3.17544 18.8239C1.83301 17.4815 1.83301 15.3209 1.83301 10.9997C1.83301 6.67847 1.83301 4.51786 3.17544 3.17544C4.51786 1.83301 6.67847 1.83301 10.9997 1.83301" stroke="#3590FF" stroke-width="1.5" stroke-linecap="round"/>
<path id="Vector_2" d="M1.83301 11.4578L3.43863 10.0529C4.27396 9.32199 5.53293 9.36391 6.31779 10.1488L10.25 14.081C10.88 14.711 11.8716 14.7969 12.6005 14.2846L12.8739 14.0925C13.9228 13.3554 15.3419 13.4408 16.2948 14.2984L19.2497 16.9578" stroke="#3590FF" stroke-width="1.5" stroke-linecap="round"/>
<path id="Vector_3" d="M13.75 5.04134H16.9583M16.9583 5.04134H20.1667M16.9583 5.04134V8.24967M16.9583 5.04134V1.83301" stroke="#3590FF" stroke-width="1.5" stroke-linecap="round"/>
</g>
</svg>
