<svg width="127" height="43" viewBox="0 0 127 43" fill="none" xmlns="http://www.w3.org/2000/svg">
<rect x="0.431641" width="126.519" height="42.3354" rx="7.69734" fill="#332F2F"/>
<path d="M24.1721 21.4313C24.1838 20.5462 24.4246 19.6783 24.8722 18.9085C25.3197 18.1387 25.9594 17.4919 26.7318 17.0283C26.2411 16.3441 25.5938 15.7811 24.8413 15.3839C24.0887 14.9867 23.2517 14.7663 22.3967 14.7402C20.5727 14.5533 18.8045 15.8058 17.875 15.8058C16.9276 15.8058 15.4965 14.7588 13.9555 14.7897C12.9588 14.8212 11.9873 15.1041 11.1359 15.6111C10.2845 16.118 9.58206 16.8317 9.09712 17.6824C6.9965 21.2332 8.56338 26.4517 10.5756 29.3219C11.5824 30.7273 12.759 32.2972 14.2987 32.2416C15.8052 32.1806 16.3679 31.3036 18.1865 31.3036C19.9882 31.3036 20.5161 32.2416 22.087 32.2062C23.7036 32.1806 24.7222 30.7945 25.6937 29.3757C26.417 28.3743 26.9737 27.2675 27.3429 26.0963C26.4037 25.7085 25.6022 25.0593 25.0383 24.2297C24.4745 23.4002 24.1732 22.4269 24.1721 21.4313Z" fill="white"/>
<path d="M21.2021 12.8527C22.0836 11.8196 22.5178 10.4918 22.4127 9.15112C21.066 9.28921 19.8221 9.91758 18.9287 10.911C18.4919 11.3964 18.1573 11.961 17.9442 12.5726C17.731 13.1842 17.6434 13.8309 17.6864 14.4756C18.36 14.4823 19.0264 14.3398 19.6353 14.0587C20.2443 13.7776 20.78 13.3652 21.2021 12.8527Z" fill="white"/>
<path d="M38.0458 16.6973H35.8864V9.69969H38.1415C38.8203 9.69969 39.4012 9.83978 39.8841 10.12C40.367 10.3978 40.7371 10.7976 40.9945 11.3192C41.2519 11.8386 41.3806 12.4605 41.3806 13.1848C41.3806 13.9137 41.2508 14.5413 40.9911 15.0675C40.7314 15.5914 40.3533 15.9945 39.8567 16.277C39.3602 16.5572 38.7565 16.6973 38.0458 16.6973ZM36.7338 15.9456H37.9912C38.5697 15.9456 39.0492 15.834 39.4296 15.6107C39.81 15.3875 40.0936 15.0697 40.2804 14.6574C40.4672 14.2452 40.5606 13.7543 40.5606 13.1848C40.5606 12.6199 40.4683 12.1336 40.2838 11.7258C40.0993 11.3158 39.8237 11.0015 39.457 10.7828C39.0902 10.5619 38.6335 10.4514 38.0868 10.4514H36.7338V15.9456ZM44.8247 16.8066C44.3509 16.8066 43.9352 16.6938 43.5776 16.4683C43.2223 16.2428 42.9444 15.9273 42.7439 15.5219C42.5457 15.1164 42.4467 14.6426 42.4467 14.1005C42.4467 13.5538 42.5457 13.0766 42.7439 12.6689C42.9444 12.2611 43.2223 11.9445 43.5776 11.719C43.9352 11.4935 44.3509 11.3807 44.8247 11.3807C45.2985 11.3807 45.7131 11.4935 46.0684 11.719C46.4261 11.9445 46.704 12.2611 46.9021 12.6689C47.1026 13.0766 47.2028 13.5538 47.2028 14.1005C47.2028 14.6426 47.1026 15.1164 46.9021 15.5219C46.704 15.9273 46.4261 16.2428 46.0684 16.4683C45.7131 16.6938 45.2985 16.8066 44.8247 16.8066ZM44.8247 16.0822C45.1846 16.0822 45.4808 15.99 45.7131 15.8055C45.9454 15.621 46.1174 15.3784 46.229 15.0777C46.3407 14.777 46.3965 14.4513 46.3965 14.1005C46.3965 13.7497 46.3407 13.4228 46.229 13.1199C46.1174 12.8169 45.9454 12.5721 45.7131 12.3853C45.4808 12.1985 45.1846 12.1051 44.8247 12.1051C44.4648 12.1051 44.1687 12.1985 43.9364 12.3853C43.704 12.5721 43.5321 12.8169 43.4204 13.1199C43.3088 13.4228 43.253 13.7497 43.253 14.1005C43.253 14.4513 43.3088 14.777 43.4204 15.0777C43.5321 15.3784 43.704 15.621 43.9364 15.8055C44.1687 15.99 44.4648 16.0822 44.8247 16.0822ZM49.4442 16.6973L47.8452 11.4491H48.6925L49.8269 15.4672H49.8816L51.0023 11.4491H51.8633L52.9704 15.4536H53.025L54.1594 11.4491H55.0068L53.4077 16.6973H52.615L51.467 12.6655H51.385L50.2369 16.6973H49.4442ZM56.8792 13.5402V16.6973H56.0728V11.4491H56.8518V12.2691H56.9202C57.0432 12.0026 57.23 11.7885 57.4805 11.6268C57.7311 11.4627 58.0545 11.3807 58.4509 11.3807C58.8062 11.3807 59.1172 11.4536 59.3837 11.5994C59.6502 11.7429 59.8575 11.9616 60.0055 12.2554C60.1536 12.547 60.2276 12.916 60.2276 13.3625V16.6973H59.4213V13.4172C59.4213 13.0049 59.3142 12.6837 59.1001 12.4536C58.886 12.2213 58.5921 12.1051 58.2185 12.1051C57.9611 12.1051 57.7311 12.1609 57.5284 12.2725C57.3279 12.3841 57.1696 12.547 57.0534 12.7611C56.9372 12.9752 56.8792 13.2349 56.8792 13.5402ZM62.5075 9.69969V16.6973H61.7011V9.69969H62.5075ZM66.1164 16.8066C65.6426 16.8066 65.2269 16.6938 64.8693 16.4683C64.514 16.2428 64.2361 15.9273 64.0356 15.5219C63.8374 15.1164 63.7384 14.6426 63.7384 14.1005C63.7384 13.5538 63.8374 13.0766 64.0356 12.6689C64.2361 12.2611 64.514 11.9445 64.8693 11.719C65.2269 11.4935 65.6426 11.3807 66.1164 11.3807C66.5902 11.3807 67.0048 11.4935 67.3602 11.719C67.7178 11.9445 67.9957 12.2611 68.1939 12.6689C68.3943 13.0766 68.4945 13.5538 68.4945 14.1005C68.4945 14.6426 68.3943 15.1164 68.1939 15.5219C67.9957 15.9273 67.7178 16.2428 67.3602 16.4683C67.0048 16.6938 66.5902 16.8066 66.1164 16.8066ZM66.1164 16.0822C66.4763 16.0822 66.7725 15.99 67.0048 15.8055C67.2372 15.621 67.4091 15.3784 67.5207 15.0777C67.6324 14.777 67.6882 14.4513 67.6882 14.1005C67.6882 13.7497 67.6324 13.4228 67.5207 13.1199C67.4091 12.8169 67.2372 12.5721 67.0048 12.3853C66.7725 12.1985 66.4763 12.1051 66.1164 12.1051C65.7565 12.1051 65.4604 12.1985 65.2281 12.3853C64.9957 12.5721 64.8238 12.8169 64.7121 13.1199C64.6005 13.4228 64.5447 13.7497 64.5447 14.1005C64.5447 14.4513 64.6005 14.777 64.7121 15.0777C64.8238 15.3784 64.9957 15.621 65.2281 15.8055C65.4604 15.99 65.7565 16.0822 66.1164 16.0822ZM71.2698 16.8203C70.9372 16.8203 70.6354 16.7576 70.3644 16.6323C70.0933 16.5048 69.878 16.3214 69.7186 16.0822C69.5591 15.8408 69.4794 15.5492 69.4794 15.2075C69.4794 14.9069 69.5386 14.6631 69.6571 14.4764C69.7755 14.2873 69.9338 14.1392 70.132 14.0322C70.3302 13.9251 70.5489 13.8454 70.788 13.793C71.0295 13.7383 71.2721 13.695 71.5158 13.6632C71.8347 13.6222 72.0933 13.5914 72.2914 13.5709C72.4919 13.5481 72.6377 13.5105 72.7288 13.4582C72.8222 13.4058 72.8689 13.3146 72.8689 13.1848V13.1575C72.8689 12.8204 72.7766 12.5584 72.5921 12.3716C72.4099 12.1848 72.1331 12.0914 71.7618 12.0914C71.3769 12.0914 71.0751 12.1757 70.8564 12.3443C70.6377 12.5128 70.484 12.6928 70.3951 12.8841L69.6298 12.6108C69.7664 12.2919 69.9487 12.0436 70.1764 11.8659C70.4065 11.686 70.6571 11.5607 70.9281 11.4901C71.2015 11.4172 71.4703 11.3807 71.7345 11.3807C71.9031 11.3807 72.0967 11.4012 72.3154 11.4422C72.5363 11.481 72.7493 11.5618 72.9543 11.6848C73.1616 11.8078 73.3336 11.9935 73.4702 12.2418C73.6069 12.4901 73.6752 12.8226 73.6752 13.2395V16.6973H72.8689V15.9866H72.8279C72.7732 16.1005 72.6821 16.2223 72.5545 16.3522C72.427 16.482 72.2573 16.5925 72.0454 16.6836C71.8336 16.7747 71.575 16.8203 71.2698 16.8203ZM71.3928 16.0959C71.7117 16.0959 71.9805 16.0333 72.1992 15.908C72.4201 15.7827 72.5864 15.621 72.698 15.4228C72.8119 15.2246 72.8689 15.0162 72.8689 14.7975V14.0595C72.8347 14.1005 72.7595 14.1381 72.6434 14.1723C72.5295 14.2042 72.3974 14.2326 72.247 14.2577C72.099 14.2805 71.9543 14.301 71.8131 14.3192C71.6741 14.3351 71.5614 14.3488 71.4748 14.3602C71.2653 14.3875 71.0694 14.4319 70.8871 14.4934C70.7072 14.5527 70.5614 14.6426 70.4498 14.7634C70.3404 14.8818 70.2858 15.0435 70.2858 15.2485C70.2858 15.5287 70.3894 15.7406 70.5967 15.8841C70.8063 16.0253 71.0716 16.0959 71.3928 16.0959ZM77.1287 16.8066C76.6914 16.8066 76.3053 16.6961 75.9705 16.4752C75.6356 16.2519 75.3737 15.9376 75.1846 15.5321C74.9955 15.1244 74.901 14.6426 74.901 14.0868C74.901 13.5356 74.9955 13.0572 75.1846 12.6518C75.3737 12.2463 75.6368 11.9331 75.9739 11.7122C76.311 11.4912 76.7005 11.3807 77.1424 11.3807C77.4841 11.3807 77.754 11.4377 77.9522 11.5516C78.1526 11.6632 78.3053 11.7908 78.41 11.9343C78.5171 12.0755 78.6002 12.1917 78.6595 12.2828H78.7278V9.69969H79.5342V16.6973H78.7551V15.8909H78.6595C78.6002 15.9866 78.516 16.1073 78.4066 16.2531C78.2973 16.3966 78.1413 16.5253 77.9385 16.6392C77.7358 16.7508 77.4659 16.8066 77.1287 16.8066ZM77.2381 16.0822C77.5615 16.0822 77.8349 15.998 78.0581 15.8294C78.2813 15.6586 78.451 15.4228 78.5672 15.1221C78.6834 14.8192 78.7415 14.4695 78.7415 14.0732C78.7415 13.6814 78.6845 13.3386 78.5706 13.0447C78.4567 12.7486 78.2882 12.5185 78.0649 12.3545C77.8417 12.1882 77.5661 12.1051 77.2381 12.1051C76.8964 12.1051 76.6117 12.1928 76.3839 12.3682C76.1584 12.5413 75.9887 12.7771 75.8748 13.0755C75.7632 13.3716 75.7074 13.7042 75.7074 14.0732C75.7074 14.4467 75.7643 14.7861 75.8782 15.0914C75.9944 15.3943 76.1652 15.6358 76.3907 15.8157C76.6185 15.9934 76.901 16.0822 77.2381 16.0822ZM85.9611 16.8066C85.4873 16.8066 85.0716 16.6938 84.714 16.4683C84.3587 16.2428 84.0808 15.9273 83.8803 15.5219C83.6821 15.1164 83.5831 14.6426 83.5831 14.1005C83.5831 13.5538 83.6821 13.0766 83.8803 12.6689C84.0808 12.2611 84.3587 11.9445 84.714 11.719C85.0716 11.4935 85.4873 11.3807 85.9611 11.3807C86.4349 11.3807 86.8495 11.4935 87.2049 11.719C87.5625 11.9445 87.8404 12.2611 88.0385 12.6689C88.239 13.0766 88.3392 13.5538 88.3392 14.1005C88.3392 14.6426 88.239 15.1164 88.0385 15.5219C87.8404 15.9273 87.5625 16.2428 87.2049 16.4683C86.8495 16.6938 86.4349 16.8066 85.9611 16.8066ZM85.9611 16.0822C86.321 16.0822 86.6172 15.99 86.8495 15.8055C87.0818 15.621 87.2538 15.3784 87.3654 15.0777C87.4771 14.777 87.5329 14.4513 87.5329 14.1005C87.5329 13.7497 87.4771 13.4228 87.3654 13.1199C87.2538 12.8169 87.0818 12.5721 86.8495 12.3853C86.6172 12.1985 86.321 12.1051 85.9611 12.1051C85.6012 12.1051 85.3051 12.1985 85.0728 12.3853C84.8404 12.5721 84.6685 12.8169 84.5568 13.1199C84.4452 13.4228 84.3894 13.7497 84.3894 14.1005C84.3894 14.4513 84.4452 14.777 84.5568 15.0777C84.6685 15.3784 84.8404 15.621 85.0728 15.8055C85.3051 15.99 85.6012 16.0822 85.9611 16.0822ZM90.3765 13.5402V16.6973H89.5701V11.4491H90.3491V12.2691H90.4175C90.5405 12.0026 90.7273 11.7885 90.9778 11.6268C91.2284 11.4627 91.5519 11.3807 91.9482 11.3807C92.3036 11.3807 92.6145 11.4536 92.881 11.5994C93.1475 11.7429 93.3548 11.9616 93.5028 12.2554C93.6509 12.547 93.7249 12.916 93.7249 13.3625V16.6973H92.9186V13.4172C92.9186 13.0049 92.8115 12.6837 92.5974 12.4536C92.3833 12.2213 92.0894 12.1051 91.7159 12.1051C91.4585 12.1051 91.2284 12.1609 91.0257 12.2725C90.8252 12.3841 90.6669 12.547 90.5507 12.7611C90.4346 12.9752 90.3765 13.2349 90.3765 13.5402ZM100.187 11.4491V12.1324H97.4672V11.4491H100.187ZM98.2599 10.1917H99.0662V15.1939C99.0662 15.4217 99.0993 15.5925 99.1653 15.7064C99.2336 15.818 99.3202 15.8932 99.425 15.9319C99.532 15.9684 99.6448 15.9866 99.7633 15.9866C99.8521 15.9866 99.925 15.982 99.9819 15.9729C100.039 15.9615 100.084 15.9524 100.119 15.9456L100.283 16.6699C100.228 16.6904 100.152 16.7109 100.054 16.7314C99.9557 16.7542 99.8316 16.7656 99.6812 16.7656C99.4535 16.7656 99.2302 16.7166 99.0116 16.6187C98.7952 16.5207 98.6152 16.3715 98.4717 16.1711C98.3305 15.9706 98.2599 15.7178 98.2599 15.4126V10.1917ZM102.319 13.5402V16.6973H101.513V9.69969H102.319V12.2691H102.387C102.51 11.998 102.695 11.7828 102.941 11.6233C103.189 11.4616 103.519 11.3807 103.932 11.3807C104.289 11.3807 104.603 11.4525 104.871 11.596C105.14 11.7372 105.349 11.9548 105.497 12.2486C105.647 12.5402 105.722 12.9115 105.722 13.3625V16.6973H104.916V13.4172C104.916 13.0003 104.808 12.678 104.591 12.4502C104.377 12.2201 104.08 12.1051 103.699 12.1051C103.435 12.1051 103.198 12.1609 102.989 12.2725C102.781 12.3841 102.617 12.547 102.497 12.7611C102.378 12.9752 102.319 13.2349 102.319 13.5402ZM109.398 16.8066C108.892 16.8066 108.456 16.695 108.089 16.4718C107.725 16.2462 107.443 15.9319 107.245 15.5287C107.049 15.1233 106.951 14.6517 106.951 14.1142C106.951 13.5766 107.049 13.1028 107.245 12.6928C107.443 12.2805 107.719 11.9593 108.072 11.7293C108.427 11.4969 108.842 11.3807 109.316 11.3807C109.589 11.3807 109.859 11.4263 110.126 11.5174C110.392 11.6085 110.635 11.7566 110.853 11.9616C111.072 12.1643 111.246 12.4331 111.376 12.768C111.506 13.1028 111.571 13.5151 111.571 14.0048V14.3465H107.525V13.6495H110.751C110.751 13.3534 110.692 13.0891 110.573 12.8568C110.457 12.6245 110.291 12.4411 110.074 12.3067C109.86 12.1723 109.607 12.1051 109.316 12.1051C108.995 12.1051 108.717 12.1848 108.482 12.3443C108.25 12.5015 108.071 12.7065 107.946 12.9593C107.82 13.2121 107.758 13.4832 107.758 13.7725V14.2372C107.758 14.6335 107.826 14.9695 107.963 15.2451C108.102 15.5185 108.294 15.7269 108.54 15.8704C108.786 16.0116 109.072 16.0822 109.398 16.0822C109.61 16.0822 109.801 16.0526 109.972 15.9934C110.145 15.9319 110.294 15.8408 110.419 15.7201C110.545 15.5971 110.641 15.4444 110.71 15.2622L111.489 15.4809C111.407 15.7451 111.269 15.9775 111.075 16.1779C110.882 16.3761 110.643 16.531 110.358 16.6426C110.073 16.7519 109.753 16.8066 109.398 16.8066Z" fill="white"/>
<path d="M37.2149 31.6973H35.4217L39.4508 20.5011H41.4025L45.4316 31.6973H43.6384L40.4731 22.5348H40.3857L37.2149 31.6973ZM37.5155 27.3128H43.3323V28.7342H37.5155V27.3128ZM46.3576 34.8462V23.3002H47.9539V24.6614H48.0906C48.1853 24.4865 48.322 24.2842 48.5006 24.0546C48.6792 23.825 48.927 23.6245 49.2441 23.4532C49.5612 23.2783 49.9803 23.1908 50.5015 23.1908C51.1794 23.1908 51.7844 23.3621 52.3165 23.7047C52.8486 24.0473 53.2659 24.5411 53.5684 25.1862C53.8745 25.8313 54.0276 26.6076 54.0276 27.5151C54.0276 28.4226 53.8763 29.2007 53.5738 29.8495C53.2713 30.4946 52.8559 30.992 52.3274 31.3419C51.7989 31.6882 51.1958 31.8613 50.5179 31.8613C50.0076 31.8613 49.5903 31.7756 49.266 31.6043C48.9452 31.433 48.6938 31.2326 48.5115 31.003C48.3293 30.7734 48.189 30.5693 48.0906 30.3907H47.9922V34.8462H46.3576ZM47.9594 27.4987C47.9594 28.0891 48.045 28.6067 48.2163 29.0513C48.3876 29.4959 48.6354 29.844 48.9598 30.0955C49.2842 30.3433 49.6814 30.4672 50.1516 30.4672C50.64 30.4672 51.0481 30.3378 51.3762 30.0791C51.7042 29.8167 51.952 29.4613 52.1197 29.013C52.2909 28.5648 52.3766 28.06 52.3766 27.4987C52.3766 26.9447 52.2928 26.4473 52.1251 26.0063C51.9611 25.5653 51.7133 25.2172 51.3816 24.9621C51.0536 24.707 50.6436 24.5794 50.1516 24.5794C49.6778 24.5794 49.2769 24.7015 48.9489 24.9457C48.6245 25.1899 48.3785 25.5306 48.2108 25.968C48.0432 26.4053 47.9594 26.9156 47.9594 27.4987ZM55.2994 34.8462V23.3002H56.8957V24.6614H57.0324C57.1271 24.4865 57.2638 24.2842 57.4424 24.0546C57.621 23.825 57.8688 23.6245 58.1859 23.4532C58.503 23.2783 58.9221 23.1908 59.4433 23.1908C60.1212 23.1908 60.7262 23.3621 61.2583 23.7047C61.7904 24.0473 62.2077 24.5411 62.5102 25.1862C62.8163 25.8313 62.9694 26.6076 62.9694 27.5151C62.9694 28.4226 62.8181 29.2007 62.5156 29.8495C62.2131 30.4946 61.7977 30.992 61.2692 31.3419C60.7407 31.6882 60.1376 31.8613 59.4597 31.8613C58.9494 31.8613 58.5321 31.7756 58.2078 31.6043C57.887 31.433 57.6356 31.2326 57.4533 31.003C57.2711 30.7734 57.1308 30.5693 57.0324 30.3907H56.934V34.8462H55.2994ZM56.9012 27.4987C56.9012 28.0891 56.9868 28.6067 57.1581 29.0513C57.3294 29.4959 57.5772 29.844 57.9016 30.0955C58.226 30.3433 58.6232 30.4672 59.0934 30.4672C59.5818 30.4672 59.9899 30.3378 60.318 30.0791C60.646 29.8167 60.8938 29.4613 61.0615 29.013C61.2327 28.5648 61.3184 28.06 61.3184 27.4987C61.3184 26.9447 61.2346 26.4473 61.0669 26.0063C60.9029 25.5653 60.6551 25.2172 60.3234 24.9621C59.9954 24.707 59.5854 24.5794 59.0934 24.5794C58.6196 24.5794 58.2187 24.7015 57.8907 24.9457C57.5663 25.1899 57.3203 25.5306 57.1526 25.968C56.985 26.4053 56.9012 26.9156 56.9012 27.4987ZM73.9935 23.4423C73.9351 22.9248 73.6946 22.5239 73.2718 22.2396C72.8491 21.9517 72.317 21.8077 71.6755 21.8077C71.2163 21.8077 70.819 21.8806 70.4837 22.0264C70.1484 22.1685 69.8878 22.3653 69.702 22.6168C69.5197 22.8646 69.4286 23.1471 69.4286 23.4642C69.4286 23.7302 69.4906 23.9598 69.6145 24.153C69.7421 24.3462 69.9079 24.5083 70.112 24.6396C70.3197 24.7671 70.542 24.8746 70.7789 24.9621C71.0158 25.0459 71.2436 25.1152 71.4623 25.1698L72.5557 25.4541C72.9128 25.5416 73.2791 25.66 73.6545 25.8095C74.0299 25.9589 74.378 26.1557 74.6987 26.3999C75.0194 26.6441 75.2782 26.9466 75.475 27.3074C75.6754 27.6682 75.7756 28.1001 75.7756 28.603C75.7756 29.2372 75.6116 29.8003 75.2836 30.2923C74.9593 30.7843 74.4873 31.1724 73.8677 31.4567C73.2518 31.741 72.5065 31.8831 71.6318 31.8831C70.7935 31.8831 70.0682 31.7501 69.456 31.4841C68.8437 31.218 68.3644 30.8408 68.0182 30.3524C67.6719 29.8604 67.4806 29.2773 67.4442 28.603H69.1389C69.1717 29.0076 69.3029 29.3447 69.5325 29.6144C69.7657 29.8804 70.0628 30.0791 70.4236 30.2103C70.7881 30.3378 71.1871 30.4016 71.6208 30.4016C72.0983 30.4016 72.5229 30.3269 72.8946 30.1775C73.27 30.0244 73.5652 29.813 73.7802 29.5433C73.9953 29.27 74.1028 28.9511 74.1028 28.5866C74.1028 28.255 74.008 27.9834 73.8185 27.7721C73.6326 27.5607 73.3793 27.3857 73.0586 27.2472C72.7415 27.1087 72.3826 26.9867 71.9816 26.881L70.6587 26.5202C69.7621 26.276 69.0514 25.917 68.5266 25.4432C68.0054 24.9694 67.7448 24.3425 67.7448 23.5626C67.7448 22.9175 67.9198 22.3544 68.2697 21.8733C68.6195 21.3922 69.0933 21.0187 69.691 20.7526C70.2887 20.4829 70.963 20.3481 71.7138 20.3481C72.4718 20.3481 73.1406 20.4811 73.7201 20.7471C74.3032 21.0132 74.7625 21.3795 75.0978 21.846C75.4331 22.3088 75.608 22.841 75.6226 23.4423H73.9935ZM81.0232 23.3002V24.6122H76.4365V23.3002H81.0232ZM77.6666 21.2884H79.3012V29.2317C79.3012 29.5488 79.3485 29.7875 79.4433 29.9479C79.5381 30.1046 79.6602 30.2121 79.8096 30.2704C79.9627 30.3251 80.1285 30.3524 80.3071 30.3524C80.4383 30.3524 80.5531 30.3433 80.6515 30.3251C80.7499 30.3069 80.8264 30.2923 80.8811 30.2813L81.1763 31.6317C81.0815 31.6681 80.9467 31.7046 80.7717 31.741C80.5968 31.7811 80.3781 31.803 80.1157 31.8066C79.6857 31.8139 79.2848 31.7374 78.913 31.577C78.5413 31.4166 78.2406 31.1688 78.011 30.8335C77.7814 30.4982 77.6666 30.0773 77.6666 29.5707V21.2884ZM85.7186 31.8667C84.9314 31.8667 84.2444 31.6863 83.6576 31.3255C83.0709 30.9647 82.6153 30.4599 82.2909 29.8112C81.9666 29.1625 81.8044 28.4044 81.8044 27.537C81.8044 26.6659 81.9666 25.9042 82.2909 25.2518C82.6153 24.5995 83.0709 24.0929 83.6576 23.7321C84.2444 23.3712 84.9314 23.1908 85.7186 23.1908C86.5059 23.1908 87.1929 23.3712 87.7797 23.7321C88.3664 24.0929 88.822 24.5995 89.1464 25.2518C89.4707 25.9042 89.6329 26.6659 89.6329 27.537C89.6329 28.4044 89.4707 29.1625 89.1464 29.8112C88.822 30.4599 88.3664 30.9647 87.7797 31.3255C87.1929 31.6863 86.5059 31.8667 85.7186 31.8667ZM85.7241 30.4946C86.2344 30.4946 86.6571 30.3597 86.9924 30.09C87.3277 29.8203 87.5756 29.4613 87.7359 29.013C87.8999 28.5648 87.9819 28.0709 87.9819 27.5315C87.9819 26.9958 87.8999 26.5037 87.7359 26.0555C87.5756 25.6035 87.3277 25.2409 86.9924 24.9676C86.6571 24.6942 86.2344 24.5575 85.7241 24.5575C85.2102 24.5575 84.7838 24.6942 84.4449 24.9676C84.1096 25.2409 83.8599 25.6035 83.6959 26.0555C83.5355 26.5037 83.4554 26.9958 83.4554 27.5315C83.4554 28.0709 83.5355 28.5648 83.6959 29.013C83.8599 29.4613 84.1096 29.8203 84.4449 30.09C84.7838 30.3597 85.2102 30.4946 85.7241 30.4946ZM90.8979 31.6973V23.3002H92.4778V24.6341H92.5653C92.7183 24.1822 92.988 23.8268 93.3744 23.568C93.7643 23.3056 94.2053 23.1744 94.6973 23.1744C94.7994 23.1744 94.9197 23.1781 95.0582 23.1854C95.2003 23.1927 95.3115 23.2018 95.3916 23.2127V24.7762C95.326 24.758 95.2094 24.738 95.0418 24.7161C94.8741 24.6906 94.7065 24.6778 94.5388 24.6778C94.1525 24.6778 93.8081 24.7598 93.5056 24.9238C93.2067 25.0842 92.9698 25.3083 92.7949 25.5963C92.6199 25.8805 92.5325 26.2049 92.5325 26.5694V31.6973H90.8979ZM99.565 31.8667C98.7377 31.8667 98.0251 31.69 97.4274 31.3365C96.8334 30.9793 96.3742 30.4782 96.0498 29.8331C95.7291 29.1843 95.5687 28.4244 95.5687 27.5534C95.5687 26.6933 95.7291 25.9352 96.0498 25.2792C96.3742 24.6232 96.8261 24.1111 97.4056 23.743C97.9887 23.3749 98.6702 23.1908 99.4502 23.1908C99.924 23.1908 100.383 23.2692 100.828 23.4259C101.272 23.5826 101.672 23.8286 102.025 24.1639C102.379 24.4992 102.657 24.9348 102.861 25.4705C103.066 26.0026 103.168 26.6495 103.168 27.4112V27.9907H96.4926V26.7662H101.566C101.566 26.3361 101.478 25.9552 101.303 25.6236C101.128 25.2883 100.882 25.0241 100.565 24.8309C100.252 24.6377 99.8839 24.5411 99.4611 24.5411C99.0019 24.5411 98.601 24.6541 98.2584 24.8801C97.9195 25.1024 97.657 25.394 97.4712 25.7548C97.2889 26.112 97.1978 26.5001 97.1978 26.9192V27.8759C97.1978 28.4372 97.2962 28.9146 97.493 29.3082C97.6935 29.7019 97.9723 30.0025 98.3295 30.2103C98.6866 30.4144 99.1039 30.5164 99.5814 30.5164C99.8912 30.5164 100.174 30.4727 100.429 30.3852C100.684 30.2941 100.904 30.1593 101.09 29.9807C101.276 29.8021 101.418 29.5816 101.517 29.3192L103.064 29.598C102.94 30.0536 102.718 30.4526 102.397 30.7952C102.08 31.1342 101.681 31.3984 101.2 31.5879C100.722 31.7738 100.177 31.8667 99.565 31.8667Z" fill="white"/>
</svg>
