<svg width="20" height="20" viewBox="0 0 20 20" fill="none" xmlns="http://www.w3.org/2000/svg">
<g id="proicons:search">
<path id="Vector" d="M12.9611 12.9611C13.5075 12.4148 13.9409 11.7662 14.2366 11.0523C14.5322 10.3385 14.6844 9.57337 14.6844 8.80071C14.6844 8.02805 14.5322 7.26295 14.2366 6.54911C13.9409 5.83526 13.5075 5.18665 12.9611 4.64029C12.4148 4.09394 11.7662 3.66055 11.0523 3.36486C10.3385 3.06918 9.57337 2.91699 8.80071 2.91699C8.02805 2.91699 7.26295 3.06918 6.54911 3.36486C5.83526 3.66055 5.18665 4.09394 4.64029 4.64029C3.53688 5.7437 2.91699 7.24025 2.91699 8.80071C2.91699 10.3612 3.53688 11.8577 4.64029 12.9611C5.7437 14.0645 7.24025 14.6844 8.80071 14.6844C10.3612 14.6844 11.8577 14.0645 12.9611 12.9611ZM12.9611 12.9611L16.667 16.667" stroke="#4B4B4B" stroke-width="1.5" stroke-linecap="round" stroke-linejoin="round"/>
</g>
</svg>
