<svg width="94" height="95" viewBox="0 0 94 95" fill="none" xmlns="http://www.w3.org/2000/svg">
<g id="Vector">
<path d="M0.154297 4.74668C0.154297 3.75909 0.546617 2.81194 1.24495 2.1136C1.94329 1.41527 2.89043 1.02295 3.87803 1.02295V4.74668H0.154297Z" fill="black"/>
<path d="M3.87803 1.02295H7.60176V4.74668H3.87803V1.02295Z" fill="black"/>
<path d="M7.60176 1.02295H11.3255V4.74668H7.60176V1.02295Z" fill="black"/>
<path d="M11.3255 1.02295H15.0492V4.74668H11.3255V1.02295Z" fill="black"/>
<path d="M15.0492 1.02295H18.7729V4.74668H15.0492V1.02295Z" fill="black"/>
<path d="M18.7729 1.02295H22.4967V4.74668H18.7729V1.02295Z" fill="black"/>
<path d="M22.4967 1.02295C23.4843 1.02295 24.4314 1.41527 25.1298 2.1136C25.8281 2.81194 26.2204 3.75909 26.2204 4.74668H22.4967V1.02295Z" fill="black"/>
<path d="M33.6679 4.74668C33.6679 3.75909 34.0602 2.81194 34.7585 2.1136C35.4569 1.41527 36.404 1.02295 37.3916 1.02295V4.74668H33.6679Z" fill="black"/>
<path d="M39.2535 1.02295C39.7473 1.02295 40.2208 1.21911 40.57 1.56828C40.9192 1.91744 41.1153 2.39102 41.1153 2.88481C41.1153 3.37861 40.9192 3.85218 40.57 4.20135C40.2208 4.55052 39.7473 4.74668 39.2535 4.74668H37.3916V1.02295H39.2535Z" fill="black"/>
<path d="M46.7009 1.02295C46.2071 1.02295 45.7336 1.21911 45.3844 1.56828C45.0352 1.91744 44.8391 2.39102 44.8391 2.88481C44.8391 3.37861 45.0352 3.85218 45.3844 4.20135C45.7336 4.55052 46.2071 4.74668 46.7009 4.74668H48.5628V1.02295H46.7009Z" fill="black"/>
<path d="M48.5628 1.02295H52.2865V4.74668H48.5628V1.02295Z" fill="black"/>
<path d="M52.2865 1.02295C53.2741 1.02295 54.2213 1.41527 54.9196 2.1136C55.6179 2.81194 56.0103 3.75909 56.0103 4.74668H52.2865V1.02295Z" fill="black"/>
<path d="M67.1814 4.74668C67.1814 3.75909 67.5738 2.81194 68.2721 2.1136C68.9704 1.41527 69.9176 1.02295 70.9052 1.02295V4.74668H67.1814Z" fill="black"/>
<path d="M70.9052 1.02295H74.6289V4.74668H70.9052V1.02295Z" fill="black"/>
<path d="M74.6289 1.02295H78.3526V4.74668H74.6289V1.02295Z" fill="black"/>
<path d="M78.3526 1.02295H82.0764V4.74668H78.3526V1.02295Z" fill="black"/>
<path d="M82.0764 1.02295H85.8001V4.74668H82.0764V1.02295Z" fill="black"/>
<path d="M85.8001 1.02295H89.5238V4.74668H85.8001V1.02295Z" fill="black"/>
<path d="M89.5238 1.02295C90.5114 1.02295 91.4586 1.41527 92.1569 2.1136C92.8552 2.81194 93.2476 3.75909 93.2476 4.74668H89.5238V1.02295Z" fill="black"/>
<path d="M0.154297 4.74668H3.87803V8.47041H0.154297V4.74668Z" fill="black"/>
<path d="M22.4967 4.74668H26.2204V8.47041H22.4967V4.74668Z" fill="black"/>
<path d="M33.6679 4.74668H37.3916V8.47041H33.6679V4.74668Z" fill="black"/>
<path d="M52.2865 4.74668H56.0103V8.47041H52.2865V4.74668Z" fill="black"/>
<path d="M61.5958 4.74668C62.0896 4.74668 62.5632 4.94284 62.9124 5.29201C63.2616 5.64117 63.4577 6.11475 63.4577 6.60854C63.4577 7.10234 63.2616 7.57591 62.9124 7.92508C62.5632 8.27425 62.0896 8.47041 61.5958 8.47041C61.102 8.47041 60.6285 8.27425 60.2793 7.92508C59.9301 7.57591 59.734 7.10234 59.734 6.60854C59.734 6.11475 59.9301 5.64117 60.2793 5.29201C60.6285 4.94284 61.102 4.74668 61.5958 4.74668Z" fill="black"/>
<path d="M67.1814 4.74668H70.9052V8.47041H67.1814V4.74668Z" fill="black"/>
<path d="M89.5238 4.74668H93.2476V8.47041H89.5238V4.74668Z" fill="black"/>
<path d="M0.154297 8.47041H3.87803V12.1941H0.154297V8.47041Z" fill="black"/>
<path d="M7.60176 12.1941C7.60176 11.2065 7.99408 10.2594 8.69241 9.56107C9.39075 8.86273 10.3379 8.47041 11.3255 8.47041V12.1941H7.60176Z" fill="black"/>
<path d="M11.3255 8.47041H15.0492V12.1941H11.3255V8.47041Z" fill="black"/>
<path d="M15.0492 8.47041C16.0368 8.47041 16.984 8.86273 17.6823 9.56107C18.3806 10.2594 18.7729 11.2065 18.7729 12.1941H15.0492V8.47041Z" fill="black"/>
<path d="M22.4967 8.47041H26.2204V12.1941H22.4967V8.47041Z" fill="black"/>
<path d="M29.9441 12.1941C29.9441 11.2065 30.3365 10.2594 31.0348 9.56107C31.7331 8.86273 32.6803 8.47041 33.6679 8.47041V12.1941H29.9441Z" fill="black"/>
<path d="M33.6679 12.1941C34.6555 12.1941 35.6026 11.8018 36.3009 11.1035C36.9993 10.4051 37.3916 9.458 37.3916 8.47041H33.6679V12.1941Z" fill="black"/>
<path d="M41.1153 10.3323C41.1153 9.83848 41.3115 9.36491 41.6607 9.01574C42.0098 8.66657 42.4834 8.47041 42.9772 8.47041C43.471 8.47041 43.9446 8.66657 44.2937 9.01574C44.6429 9.36491 44.8391 9.83848 44.8391 10.3323V12.1941H41.1153V10.3323Z" fill="black"/>
<path d="M50.4247 8.47041C49.9309 8.47041 49.4573 8.66657 49.1081 9.01574C48.7589 9.36491 48.5628 9.83848 48.5628 10.3323C48.5628 10.8261 48.7589 11.2996 49.1081 11.6488C49.4573 11.998 49.9309 12.1941 50.4247 12.1941H52.2865V8.47041H50.4247Z" fill="black"/>
<path d="M52.2865 12.1941C53.2741 12.1941 54.2213 11.8018 54.9196 11.1035C55.6179 10.4051 56.0103 9.458 56.0103 8.47041H52.2865V12.1941Z" fill="black"/>
<path d="M67.1814 8.47041H70.9052V12.1941H67.1814V8.47041Z" fill="black"/>
<path d="M74.6289 12.1941C74.6289 11.2065 75.0212 10.2594 75.7196 9.56107C76.4179 8.86273 77.365 8.47041 78.3526 8.47041V12.1941H74.6289Z" fill="black"/>
<path d="M78.3526 8.47041H82.0764V12.1941H78.3526V8.47041Z" fill="black"/>
<path d="M82.0764 8.47041C83.064 8.47041 84.0111 8.86273 84.7094 9.56107C85.4078 10.2594 85.8001 11.2065 85.8001 12.1941H82.0764V8.47041Z" fill="black"/>
<path d="M89.5238 8.47041H93.2476V12.1941H89.5238V8.47041Z" fill="black"/>
<path d="M0.154297 12.1941H3.87803V15.9179H0.154297V12.1941Z" fill="black"/>
<path d="M7.60176 12.1941H11.3255V15.9179H7.60176V12.1941Z" fill="black"/>
<path d="M11.3255 12.1941H15.0492V15.9179H11.3255V12.1941Z" fill="black"/>
<path d="M15.0492 12.1941H18.7729V15.9179H15.0492V12.1941Z" fill="black"/>
<path d="M22.4967 12.1941H26.2204V15.9179H22.4967V12.1941Z" fill="black"/>
<path d="M29.9441 14.056C29.9441 14.5498 30.1403 15.0234 30.4895 15.3725C30.8386 15.7217 31.3122 15.9179 31.806 15.9179C32.2998 15.9179 32.7734 15.7217 33.1225 15.3725C33.4717 15.0234 33.6679 14.5498 33.6679 14.056V12.1941H29.9441V14.056Z" fill="black"/>
<path d="M37.3916 15.9179C37.3916 14.9303 37.7839 13.9831 38.4823 13.2848C39.1806 12.5865 40.1277 12.1941 41.1153 12.1941V15.9179H37.3916Z" fill="black"/>
<path d="M41.1153 12.1941H44.8391V15.9179H41.1153V12.1941Z" fill="black"/>
<path d="M67.1814 12.1941H70.9052V15.9179H67.1814V12.1941Z" fill="black"/>
<path d="M74.6289 12.1941H78.3526V15.9179H74.6289V12.1941Z" fill="black"/>
<path d="M78.3526 12.1941H82.0764V15.9179H78.3526V12.1941Z" fill="black"/>
<path d="M82.0764 12.1941H85.8001V15.9179H82.0764V12.1941Z" fill="black"/>
<path d="M89.5238 12.1941H93.2476V15.9179H89.5238V12.1941Z" fill="black"/>
<path d="M0.154297 15.9179H3.87803V19.6416H0.154297V15.9179Z" fill="black"/>
<path d="M7.60176 15.9179C7.60176 16.9055 7.99408 17.8526 8.69241 18.5509C9.39075 19.2493 10.3379 19.6416 11.3255 19.6416V15.9179H7.60176Z" fill="black"/>
<path d="M11.3255 15.9179H15.0492V19.6416H11.3255V15.9179Z" fill="black"/>
<path d="M15.0492 19.6416C16.0368 19.6416 16.984 19.2493 17.6823 18.5509C18.3806 17.8526 18.7729 16.9055 18.7729 15.9179H15.0492V19.6416Z" fill="black"/>
<path d="M22.4967 15.9179H26.2204V19.6416H22.4967V15.9179Z" fill="black"/>
<path d="M33.6679 19.6416C33.6679 18.654 34.0602 17.7069 34.7585 17.0085C35.4569 16.3102 36.404 15.9179 37.3916 15.9179V19.6416H33.6679Z" fill="black"/>
<path d="M37.3916 15.9179H41.1153V19.6416H37.3916V15.9179Z" fill="black"/>
<path d="M41.1153 15.9179H44.8391V19.6416H41.1153V15.9179Z" fill="black"/>
<path d="M59.734 17.7797C59.734 17.2859 59.9301 16.8124 60.2793 16.4632C60.6285 16.114 61.102 15.9179 61.5958 15.9179C62.0896 15.9179 62.5632 16.114 62.9124 16.4632C63.2616 16.8124 63.4577 17.2859 63.4577 17.7797V19.6416H59.734V17.7797Z" fill="black"/>
<path d="M67.1814 15.9179H70.9052V19.6416H67.1814V15.9179Z" fill="black"/>
<path d="M74.6289 15.9179C74.6289 16.9055 75.0212 17.8526 75.7196 18.5509C76.4179 19.2493 77.365 19.6416 78.3526 19.6416V15.9179H74.6289Z" fill="black"/>
<path d="M78.3526 15.9179H82.0764V19.6416H78.3526V15.9179Z" fill="black"/>
<path d="M82.0764 19.6416C83.064 19.6416 84.0111 19.2493 84.7094 18.5509C85.4078 17.8526 85.8001 16.9055 85.8001 15.9179H82.0764V19.6416Z" fill="black"/>
<path d="M89.5238 15.9179H93.2476V19.6416H89.5238V15.9179Z" fill="black"/>
<path d="M0.154297 19.6416H3.87803V23.3653H0.154297V19.6416Z" fill="black"/>
<path d="M22.4967 19.6416H26.2204V23.3653H22.4967V19.6416Z" fill="black"/>
<path d="M33.6679 21.5035C33.6679 21.9973 33.864 22.4708 34.2132 22.82C34.5624 23.1692 35.0359 23.3653 35.5297 23.3653C36.0235 23.3653 36.4971 23.1692 36.8463 22.82C37.1954 22.4708 37.3916 21.9973 37.3916 21.5035V19.6416H33.6679V21.5035Z" fill="black"/>
<path d="M41.1153 21.5035C41.1153 21.9973 41.3115 22.4708 41.6607 22.82C42.0098 23.1692 42.4834 23.3653 42.9772 23.3653C43.471 23.3653 43.9446 23.1692 44.2937 22.82C44.6429 22.4708 44.8391 21.9973 44.8391 21.5035V19.6416H41.1153V21.5035Z" fill="black"/>
<path d="M52.2865 23.3653C52.2865 22.3777 52.6788 21.4306 53.3772 20.7323C54.0755 20.0339 55.0227 19.6416 56.0103 19.6416V23.3653H52.2865Z" fill="black"/>
<path d="M56.0103 19.6416H59.734V23.3653H56.0103V19.6416Z" fill="black"/>
<path d="M59.734 19.6416H63.4577V23.3653H59.734V19.6416Z" fill="black"/>
<path d="M67.1814 19.6416H70.9052V23.3653H67.1814V19.6416Z" fill="black"/>
<path d="M89.5238 19.6416H93.2476V23.3653H89.5238V19.6416Z" fill="black"/>
<path d="M0.154297 23.3653C0.154297 24.3529 0.546617 25.3001 1.24495 25.9984C1.94329 26.6967 2.89043 27.0891 3.87803 27.0891V23.3653H0.154297Z" fill="black"/>
<path d="M3.87803 23.3653H7.60176V27.0891H3.87803V23.3653Z" fill="black"/>
<path d="M7.60176 23.3653H11.3255V27.0891H7.60176V23.3653Z" fill="black"/>
<path d="M11.3255 23.3653H15.0492V27.0891H11.3255V23.3653Z" fill="black"/>
<path d="M15.0492 23.3653H18.7729V27.0891H15.0492V23.3653Z" fill="black"/>
<path d="M18.7729 23.3653H22.4967V27.0891H18.7729V23.3653Z" fill="black"/>
<path d="M22.4967 27.0891C23.4843 27.0891 24.4314 26.6967 25.1298 25.9984C25.8281 25.3001 26.2204 24.3529 26.2204 23.3653H22.4967V27.0891Z" fill="black"/>
<path d="M31.806 23.3653C32.2998 23.3653 32.7734 23.5615 33.1225 23.9107C33.4717 24.2598 33.6679 24.7334 33.6679 25.2272C33.6679 25.721 33.4717 26.1946 33.1225 26.5437C32.7734 26.8929 32.2998 27.0891 31.806 27.0891C31.3122 27.0891 30.8386 26.8929 30.4895 26.5437C30.1403 26.1946 29.9441 25.721 29.9441 25.2272C29.9441 24.7334 30.1403 24.2598 30.4895 23.9107C30.8386 23.5615 31.3122 23.3653 31.806 23.3653Z" fill="black"/>
<path d="M39.2535 23.3653C39.7473 23.3653 40.2208 23.5615 40.57 23.9107C40.9192 24.2598 41.1153 24.7334 41.1153 25.2272C41.1153 25.721 40.9192 26.1946 40.57 26.5437C40.2208 26.8929 39.7473 27.0891 39.2535 27.0891C38.7597 27.0891 38.2861 26.8929 37.9369 26.5437C37.5878 26.1946 37.3916 25.721 37.3916 25.2272C37.3916 24.7334 37.5878 24.2598 37.9369 23.9107C38.2861 23.5615 38.7597 23.3653 39.2535 23.3653Z" fill="black"/>
<path d="M46.7009 23.3653C47.1947 23.3653 47.6683 23.5615 48.0175 23.9107C48.3666 24.2598 48.5628 24.7334 48.5628 25.2272C48.5628 25.721 48.3666 26.1946 48.0175 26.5437C47.6683 26.8929 47.1947 27.0891 46.7009 27.0891C46.2071 27.0891 45.7336 26.8929 45.3844 26.5437C45.0352 26.1946 44.8391 25.721 44.8391 25.2272C44.8391 24.7334 45.0352 24.2598 45.3844 23.9107C45.7336 23.5615 46.2071 23.3653 46.7009 23.3653Z" fill="black"/>
<path d="M52.2865 25.2272C52.2865 25.721 52.4827 26.1946 52.8318 26.5437C53.181 26.8929 53.6546 27.0891 54.1484 27.0891C54.6422 27.0891 55.1158 26.8929 55.4649 26.5437C55.8141 26.1946 56.0103 25.721 56.0103 25.2272V23.3653H52.2865V25.2272Z" fill="black"/>
<path d="M59.734 25.2272C59.734 25.721 59.9301 26.1946 60.2793 26.5437C60.6285 26.8929 61.102 27.0891 61.5958 27.0891C62.0896 27.0891 62.5632 26.8929 62.9124 26.5437C63.2616 26.1946 63.4577 25.721 63.4577 25.2272V23.3653H59.734V25.2272Z" fill="black"/>
<path d="M67.1814 23.3653C67.1814 24.3529 67.5738 25.3001 68.2721 25.9984C68.9704 26.6967 69.9176 27.0891 70.9052 27.0891V23.3653H67.1814Z" fill="black"/>
<path d="M70.9052 23.3653H74.6289V27.0891H70.9052V23.3653Z" fill="black"/>
<path d="M74.6289 23.3653H78.3526V27.0891H74.6289V23.3653Z" fill="black"/>
<path d="M78.3526 23.3653H82.0764V27.0891H78.3526V23.3653Z" fill="black"/>
<path d="M82.0764 23.3653H85.8001V27.0891H82.0764V23.3653Z" fill="black"/>
<path d="M85.8001 23.3653H89.5238V27.0891H85.8001V23.3653Z" fill="black"/>
<path d="M89.5238 27.0891C90.5114 27.0891 91.4586 26.6967 92.1569 25.9984C92.8552 25.3001 93.2476 24.3529 93.2476 23.3653H89.5238V27.0891Z" fill="black"/>
<path d="M11.3255 34.5365C11.3255 33.5489 11.7178 32.6018 12.4161 31.9035C13.1145 31.2051 14.0616 30.8128 15.0492 30.8128V34.5365H11.3255Z" fill="black"/>
<path d="M16.9111 30.8128C17.4049 30.8128 17.8785 31.009 18.2276 31.3581C18.5768 31.7073 18.7729 32.1809 18.7729 32.6747C18.7729 33.1685 18.5768 33.642 18.2276 33.9912C17.8785 34.3404 17.4049 34.5365 16.9111 34.5365H15.0492V30.8128H16.9111Z" fill="black"/>
<path d="M24.3585 30.8128C23.8647 30.8128 23.3912 31.009 23.042 31.3581C22.6928 31.7073 22.4967 32.1809 22.4967 32.6747C22.4967 33.1685 22.6928 33.642 23.042 33.9912C23.3912 34.3404 23.8647 34.5365 24.3585 34.5365H26.2204V30.8128H24.3585Z" fill="black"/>
<path d="M26.2204 30.8128C27.208 30.8128 28.1551 31.2051 28.8535 31.9035C29.5518 32.6018 29.9441 33.5489 29.9441 34.5365H26.2204V30.8128Z" fill="black"/>
<path d="M35.5297 30.8128C35.0359 30.8128 34.5624 31.009 34.2132 31.3581C33.864 31.7073 33.6679 32.1809 33.6679 32.6747C33.6679 33.1685 33.864 33.642 34.2132 33.9912C34.5624 34.3404 35.0359 34.5365 35.5297 34.5365H37.3916V30.8128H35.5297Z" fill="black"/>
<path d="M37.3916 30.8128H41.1153V34.5365H37.3916V30.8128Z" fill="black"/>
<path d="M41.1153 30.8128H44.8391V34.5365H41.1153V30.8128Z" fill="black"/>
<path d="M46.7009 30.8128C47.1947 30.8128 47.6683 31.009 48.0175 31.3581C48.3666 31.7073 48.5628 32.1809 48.5628 32.6747C48.5628 33.1685 48.3666 33.642 48.0175 33.9912C47.6683 34.3404 47.1947 34.5365 46.7009 34.5365H44.8391V30.8128H46.7009Z" fill="black"/>
<path d="M52.2865 34.5365C52.2865 33.5489 52.6788 32.6018 53.3772 31.9035C54.0755 31.2051 55.0227 30.8128 56.0103 30.8128V34.5365H52.2865Z" fill="black"/>
<path d="M56.0103 30.8128H59.734V34.5365H56.0103V30.8128Z" fill="black"/>
<path d="M59.734 30.8128C60.7216 30.8128 61.6687 31.2051 62.3671 31.9035C63.0654 32.6018 63.4577 33.5489 63.4577 34.5365H59.734V30.8128Z" fill="black"/>
<path d="M80.2145 30.8128C79.7207 30.8128 79.2471 31.009 78.898 31.3581C78.5488 31.7073 78.3526 32.1809 78.3526 32.6747C78.3526 33.1685 78.5488 33.642 78.898 33.9912C79.2471 34.3404 79.7207 34.5365 80.2145 34.5365H82.0764V30.8128H80.2145Z" fill="black"/>
<path d="M82.0764 30.8128C83.064 30.8128 84.0111 31.2051 84.7094 31.9035C85.4078 32.6018 85.8001 33.5489 85.8001 34.5365H82.0764V30.8128Z" fill="black"/>
<path d="M3.87803 38.2603C3.87803 37.2727 4.27035 36.3255 4.96868 35.6272C5.66702 34.9288 6.61416 34.5365 7.60176 34.5365V38.2603H3.87803Z" fill="black"/>
<path d="M7.60176 34.5365H11.3255V38.2603H7.60176V34.5365Z" fill="black"/>
<path d="M11.3255 38.2603C12.3131 38.2603 13.2602 37.8679 13.9586 37.1696C14.6569 36.4713 15.0492 35.5241 15.0492 34.5365H11.3255V38.2603Z" fill="black"/>
<path d="M20.6348 34.5365C21.1286 34.5365 21.6022 34.7327 21.9514 35.0819C22.3005 35.431 22.4967 35.9046 22.4967 36.3984C22.4967 36.8922 22.3005 37.3658 21.9514 37.7149C21.6022 38.0641 21.1286 38.2603 20.6348 38.2603C20.141 38.2603 19.6674 38.0641 19.3183 37.7149C18.9691 37.3658 18.7729 36.8922 18.7729 36.3984C18.7729 35.9046 18.9691 35.431 19.3183 35.0819C19.6674 34.7327 20.141 34.5365 20.6348 34.5365Z" fill="black"/>
<path d="M26.2204 34.5365C26.2204 35.5241 26.6127 36.4713 27.3111 37.1696C28.0094 37.8679 28.9565 38.2603 29.9441 38.2603V34.5365H26.2204Z" fill="black"/>
<path d="M31.806 34.5365C32.2998 34.5365 32.7734 34.7327 33.1225 35.0819C33.4717 35.431 33.6679 35.9046 33.6679 36.3984C33.6679 36.8922 33.4717 37.3658 33.1225 37.7149C32.7734 38.0641 32.2998 38.2603 31.806 38.2603H29.9441V34.5365H31.806Z" fill="black"/>
<path d="M41.1153 34.5365H44.8391V38.2603H41.1153V34.5365Z" fill="black"/>
<path d="M52.2865 34.5365C52.2865 35.5241 52.6788 36.4713 53.3772 37.1696C54.0755 37.8679 55.0227 38.2603 56.0103 38.2603V34.5365H52.2865Z" fill="black"/>
<path d="M56.0103 34.5365H59.734V38.2603H56.0103V34.5365Z" fill="black"/>
<path d="M59.734 34.5365H63.4577V38.2603H59.734V34.5365Z" fill="black"/>
<path d="M72.767 34.5365C72.2732 34.5365 71.7997 34.7327 71.4505 35.0819C71.1013 35.431 70.9052 35.9046 70.9052 36.3984C70.9052 36.8922 71.1013 37.3658 71.4505 37.7149C71.7997 38.0641 72.2732 38.2603 72.767 38.2603H74.6289V34.5365H72.767Z" fill="black"/>
<path d="M74.6289 34.5365C75.6165 34.5365 76.5637 34.9288 77.262 35.6272C77.9603 36.3255 78.3526 37.2727 78.3526 38.2603H74.6289V34.5365Z" fill="black"/>
<path d="M82.0764 34.5365H85.8001V38.2603H82.0764V34.5365Z" fill="black"/>
<path d="M3.87803 40.1221C3.87803 40.6159 4.07419 41.0895 4.42336 41.4387C4.77252 41.7878 5.2461 41.984 5.73989 41.984C6.23369 41.984 6.70726 41.7878 7.05643 41.4387C7.4056 41.0895 7.60176 40.6159 7.60176 40.1221V38.2603H3.87803V40.1221Z" fill="black"/>
<path d="M16.9111 38.2603C17.4049 38.2603 17.8785 38.4564 18.2276 38.8056C18.5768 39.1548 18.7729 39.6283 18.7729 40.1221C18.7729 40.6159 18.5768 41.0895 18.2276 41.4387C17.8785 41.7878 17.4049 41.984 16.9111 41.984C16.4173 41.984 15.9437 41.7878 15.5945 41.4387C15.2454 41.0895 15.0492 40.6159 15.0492 40.1221C15.0492 39.6283 15.2454 39.1548 15.5945 38.8056C15.9437 38.4564 16.4173 38.2603 16.9111 38.2603Z" fill="black"/>
<path d="M24.3585 38.2603C24.8523 38.2603 25.3259 38.4564 25.6751 38.8056C26.0243 39.1548 26.2204 39.6283 26.2204 40.1221C26.2204 40.6159 26.0243 41.0895 25.6751 41.4387C25.3259 41.7878 24.8523 41.984 24.3585 41.984C23.8647 41.984 23.3912 41.7878 23.042 41.4387C22.6928 41.0895 22.4967 40.6159 22.4967 40.1221C22.4967 39.6283 22.6928 39.1548 23.042 38.8056C23.3912 38.4564 23.8647 38.2603 24.3585 38.2603Z" fill="black"/>
<path d="M33.6679 40.1221C33.6679 39.6283 33.864 39.1548 34.2132 38.8056C34.5624 38.4564 35.0359 38.2603 35.5297 38.2603C36.0235 38.2603 36.4971 38.4564 36.8463 38.8056C37.1954 39.1548 37.3916 39.6283 37.3916 40.1221V41.984H33.6679V40.1221Z" fill="black"/>
<path d="M41.1153 38.2603H44.8391V41.984H41.1153V38.2603Z" fill="black"/>
<path d="M59.734 38.2603C59.734 39.2478 60.1263 40.195 60.8246 40.8933C61.523 41.5917 62.4701 41.984 63.4577 41.984V38.2603H59.734Z" fill="black"/>
<path d="M63.4577 38.2603C64.4453 38.2603 65.3925 38.6526 66.0908 39.3509C66.7891 40.0492 67.1814 40.9964 67.1814 41.984H63.4577V38.2603Z" fill="black"/>
<path d="M74.6289 40.1221C74.6289 40.6159 74.8251 41.0895 75.1742 41.4387C75.5234 41.7878 75.997 41.984 76.4908 41.984C76.9846 41.984 77.4581 41.7878 77.8073 41.4387C78.1565 41.0895 78.3526 40.6159 78.3526 40.1221V38.2603H74.6289V40.1221Z" fill="black"/>
<path d="M82.0764 38.2603H85.8001V41.984H82.0764V38.2603Z" fill="black"/>
<path d="M89.5238 40.1221C89.5238 39.6283 89.72 39.1548 90.0692 38.8056C90.4183 38.4564 90.8919 38.2603 91.3857 38.2603C91.8795 38.2603 92.3531 38.4564 92.7022 38.8056C93.0514 39.1548 93.2476 39.6283 93.2476 40.1221V41.984H89.5238V40.1221Z" fill="black"/>
<path d="M0.154297 43.8458C0.154297 43.3521 0.350457 42.8785 0.699625 42.5293C1.04879 42.1801 1.52236 41.984 2.01616 41.984C2.50996 41.984 2.98353 42.1801 3.3327 42.5293C3.68187 42.8785 3.87803 43.3521 3.87803 43.8458V45.7077H0.154297V43.8458Z" fill="black"/>
<path d="M9.46362 41.984C8.96983 41.984 8.49625 42.1801 8.14709 42.5293C7.79792 42.8785 7.60176 43.3521 7.60176 43.8458C7.60176 44.3396 7.79792 44.8132 8.14709 45.1624C8.49625 45.5116 8.96983 45.7077 9.46362 45.7077H11.3255V41.984H9.46362Z" fill="black"/>
<path d="M13.1874 41.984C13.6812 41.984 14.1547 42.1801 14.5039 42.5293C14.8531 42.8785 15.0492 43.3521 15.0492 43.8458C15.0492 44.3396 14.8531 44.8132 14.5039 45.1624C14.1547 45.5116 13.6812 45.7077 13.1874 45.7077H11.3255V41.984H13.1874Z" fill="black"/>
<path d="M18.7729 43.8458C18.7729 43.3521 18.9691 42.8785 19.3183 42.5293C19.6674 42.1801 20.141 41.984 20.6348 41.984C21.1286 41.984 21.6022 42.1801 21.9514 42.5293C22.3005 42.8785 22.4967 43.3521 22.4967 43.8458V45.7077H18.7729V43.8458Z" fill="black"/>
<path d="M31.806 41.984C31.3122 41.984 30.8386 42.1801 30.4895 42.5293C30.1403 42.8785 29.9441 43.3521 29.9441 43.8458C29.9441 44.3396 30.1403 44.8132 30.4895 45.1624C30.8386 45.5116 31.3122 45.7077 31.806 45.7077H33.6679V41.984H31.806Z" fill="black"/>
<path d="M33.6679 41.984H37.3916V45.7077H33.6679V41.984Z" fill="black"/>
<path d="M37.3916 41.984H41.1153V45.7077H37.3916V41.984Z" fill="black"/>
<path d="M41.1153 41.984H44.8391V45.7077H41.1153V41.984Z" fill="black"/>
<path d="M54.1484 41.984C53.6546 41.984 53.181 42.1801 52.8318 42.5293C52.4827 42.8785 52.2865 43.3521 52.2865 43.8458C52.2865 44.3396 52.4827 44.8132 52.8318 45.1624C53.181 45.5116 53.6546 45.7077 54.1484 45.7077H56.0103V41.984H54.1484Z" fill="black"/>
<path d="M56.0103 41.984C56.9978 41.984 57.945 42.3763 58.6433 43.0746C59.3417 43.773 59.734 44.7201 59.734 45.7077H56.0103V41.984Z" fill="black"/>
<path d="M63.4577 41.984H67.1814V45.7077H63.4577V41.984Z" fill="black"/>
<path d="M67.1814 41.984H70.9052V45.7077H67.1814V41.984Z" fill="black"/>
<path d="M72.767 41.984C73.2608 41.984 73.7344 42.1801 74.0836 42.5293C74.4327 42.8785 74.6289 43.3521 74.6289 43.8458C74.6289 44.3396 74.4327 44.8132 74.0836 45.1624C73.7344 45.5116 73.2608 45.7077 72.767 45.7077H70.9052V41.984H72.767Z" fill="black"/>
<path d="M82.0764 43.8458C82.0764 44.3396 82.2725 44.8132 82.6217 45.1624C82.9709 45.5116 83.4444 45.7077 83.9382 45.7077C84.432 45.7077 84.9056 45.5116 85.2548 45.1624C85.6039 44.8132 85.8001 44.3396 85.8001 43.8458V41.984H82.0764V43.8458Z" fill="black"/>
<path d="M89.5238 41.984H93.2476V45.7077H89.5238V41.984Z" fill="black"/>
<path d="M0.154297 45.7077H3.87803V49.4314H0.154297V45.7077Z" fill="black"/>
<path d="M15.0492 49.4314C15.0492 48.4438 15.4415 47.4967 16.1399 46.7984C16.8382 46.1 17.7854 45.7077 18.7729 45.7077V49.4314H15.0492Z" fill="black"/>
<path d="M18.7729 45.7077H22.4967V49.4314H18.7729V45.7077Z" fill="black"/>
<path d="M24.3585 45.7077C24.8523 45.7077 25.3259 45.9039 25.6751 46.253C26.0243 46.6022 26.2204 47.0758 26.2204 47.5696C26.2204 48.0634 26.0243 48.5369 25.6751 48.8861C25.3259 49.2353 24.8523 49.4314 24.3585 49.4314H22.4967V45.7077H24.3585Z" fill="black"/>
<path d="M41.1153 47.5696C41.1153 48.0634 41.3115 48.5369 41.6607 48.8861C42.0098 49.2353 42.4834 49.4314 42.9772 49.4314C43.471 49.4314 43.9446 49.2353 44.2937 48.8861C44.6429 48.5369 44.8391 48.0634 44.8391 47.5696V45.7077H41.1153V47.5696Z" fill="black"/>
<path d="M56.0103 45.7077C56.0103 46.6953 56.4026 47.6425 57.1009 48.3408C57.7992 49.0391 58.7464 49.4314 59.734 49.4314V45.7077H56.0103Z" fill="black"/>
<path d="M59.734 45.7077H63.4577V49.4314H59.734V45.7077Z" fill="black"/>
<path d="M63.4577 45.7077H67.1814V49.4314H63.4577V45.7077Z" fill="black"/>
<path d="M67.1814 49.4314C68.169 49.4314 69.1162 49.0391 69.8145 48.3408C70.5129 47.6425 70.9052 46.6953 70.9052 45.7077H67.1814V49.4314Z" fill="black"/>
<path d="M78.3526 47.5696C78.3526 47.0758 78.5488 46.6022 78.898 46.253C79.2471 45.9039 79.7207 45.7077 80.2145 45.7077C80.7083 45.7077 81.1819 45.9039 81.531 46.253C81.8802 46.6022 82.0764 47.0758 82.0764 47.5696V49.4314H78.3526V47.5696Z" fill="black"/>
<path d="M89.5238 47.5696C89.5238 48.0634 89.72 48.5369 90.0692 48.8861C90.4183 49.2353 90.8919 49.4314 91.3857 49.4314C91.8795 49.4314 92.3531 49.2353 92.7022 48.8861C93.0514 48.5369 93.2476 48.0634 93.2476 47.5696V45.7077H89.5238V47.5696Z" fill="black"/>
<path d="M0.154297 49.4314H3.87803V53.1552H0.154297V49.4314Z" fill="black"/>
<path d="M11.3255 53.1552C11.3255 52.1676 11.7178 51.2204 12.4161 50.5221C13.1145 49.8238 14.0616 49.4314 15.0492 49.4314V53.1552H11.3255Z" fill="black"/>
<path d="M15.0492 49.4314H18.7729V53.1552H15.0492V49.4314Z" fill="black"/>
<path d="M29.9441 51.2933C29.9441 50.7995 30.1403 50.3259 30.4895 49.9768C30.8386 49.6276 31.3122 49.4314 31.806 49.4314C32.2998 49.4314 32.7734 49.6276 33.1225 49.9768C33.4717 50.3259 33.6679 50.7995 33.6679 51.2933V53.1552H29.9441V51.2933Z" fill="black"/>
<path d="M48.5628 53.1552C48.5628 52.1676 48.9551 51.2204 49.6535 50.5221C50.3518 49.8238 51.2989 49.4314 52.2865 49.4314V53.1552H48.5628Z" fill="black"/>
<path d="M52.2865 49.4314C53.2741 49.4314 54.2213 49.8238 54.9196 50.5221C55.6179 51.2204 56.0103 52.1676 56.0103 53.1552H52.2865V49.4314Z" fill="black"/>
<path d="M59.734 49.4314H63.4577V53.1552H59.734V49.4314Z" fill="black"/>
<path d="M76.4908 49.4314C75.997 49.4314 75.5234 49.6276 75.1742 49.9768C74.8251 50.3259 74.6289 50.7995 74.6289 51.2933C74.6289 51.7871 74.8251 52.2607 75.1742 52.6098C75.5234 52.959 75.997 53.1552 76.4908 53.1552H78.3526V49.4314H76.4908Z" fill="black"/>
<path d="M78.3526 49.4314H82.0764V53.1552H78.3526V49.4314Z" fill="black"/>
<path d="M83.9382 49.4314C84.432 49.4314 84.9056 49.6276 85.2548 49.9768C85.6039 50.3259 85.8001 50.7995 85.8001 51.2933C85.8001 51.7871 85.6039 52.2607 85.2548 52.6098C84.9056 52.959 84.432 53.1552 83.9382 53.1552H82.0764V49.4314H83.9382Z" fill="black"/>
<path d="M0.154297 53.1552H3.87803V56.8789H0.154297V53.1552Z" fill="black"/>
<path d="M3.87803 53.1552H7.60176V56.8789H3.87803V53.1552Z" fill="black"/>
<path d="M7.60176 53.1552H11.3255V56.8789H7.60176V53.1552Z" fill="black"/>
<path d="M11.3255 53.1552H15.0492V56.8789H11.3255V53.1552Z" fill="black"/>
<path d="M15.0492 56.8789C16.0368 56.8789 16.984 56.4866 17.6823 55.7882C18.3806 55.0899 18.7729 54.1428 18.7729 53.1552H15.0492V56.8789Z" fill="black"/>
<path d="M24.3585 53.1552C23.8647 53.1552 23.3912 53.3513 23.042 53.7005C22.6928 54.0497 22.4967 54.5232 22.4967 55.017C22.4967 55.5108 22.6928 55.9844 23.042 56.3336C23.3912 56.6827 23.8647 56.8789 24.3585 56.8789H26.2204V53.1552H24.3585Z" fill="black"/>
<path d="M26.2204 53.1552H29.9441V56.8789H26.2204V53.1552Z" fill="black"/>
<path d="M29.9441 53.1552H33.6679V56.8789H29.9441V53.1552Z" fill="black"/>
<path d="M37.3916 55.017C37.3916 54.5232 37.5878 54.0497 37.9369 53.7005C38.2861 53.3513 38.7597 53.1552 39.2535 53.1552C39.7473 53.1552 40.2208 53.3513 40.57 53.7005C40.9192 54.0497 41.1153 54.5232 41.1153 55.017V56.8789H37.3916V55.017Z" fill="black"/>
<path d="M48.5628 53.1552C48.5628 54.1428 48.9551 55.0899 49.6535 55.7882C50.3518 56.4866 51.2989 56.8789 52.2865 56.8789V53.1552H48.5628Z" fill="black"/>
<path d="M52.2865 53.1552H56.0103V56.8789H52.2865V53.1552Z" fill="black"/>
<path d="M59.734 53.1552C59.734 54.1428 60.1263 55.0899 60.8246 55.7882C61.523 56.4866 62.4701 56.8789 63.4577 56.8789V53.1552H59.734Z" fill="black"/>
<path d="M65.3196 53.1552C65.8134 53.1552 66.2869 53.3513 66.6361 53.7005C66.9853 54.0497 67.1814 54.5232 67.1814 55.017C67.1814 55.5108 66.9853 55.9844 66.6361 56.3336C66.2869 56.6827 65.8134 56.8789 65.3196 56.8789H63.4577V53.1552H65.3196Z" fill="black"/>
<path d="M70.9052 55.017C70.9052 54.5232 71.1013 54.0497 71.4505 53.7005C71.7997 53.3513 72.2732 53.1552 72.767 53.1552C73.2608 53.1552 73.7344 53.3513 74.0836 53.7005C74.4327 54.0497 74.6289 54.5232 74.6289 55.017V56.8789H70.9052V55.017Z" fill="black"/>
<path d="M78.3526 53.1552H82.0764V56.8789H78.3526V53.1552Z" fill="black"/>
<path d="M85.8001 56.8789C85.8001 55.8913 86.1924 54.9442 86.8908 54.2458C87.5891 53.5475 88.5362 53.1552 89.5238 53.1552V56.8789H85.8001Z" fill="black"/>
<path d="M89.5238 53.1552C90.5114 53.1552 91.4586 53.5475 92.1569 54.2458C92.8552 54.9442 93.2476 55.8913 93.2476 56.8789H89.5238V53.1552Z" fill="black"/>
<path d="M0.154297 56.8789H3.87803V60.6026H0.154297V56.8789Z" fill="black"/>
<path d="M11.3255 58.7408C11.3255 59.2346 11.5216 59.7081 11.8708 60.0573C12.22 60.4065 12.6936 60.6026 13.1874 60.6026C13.6812 60.6026 14.1547 60.4065 14.5039 60.0573C14.8531 59.7081 15.0492 59.2346 15.0492 58.7408V56.8789H11.3255V58.7408Z" fill="black"/>
<path d="M20.6348 56.8789C21.1286 56.8789 21.6022 57.0751 21.9514 57.4242C22.3005 57.7734 22.4967 58.247 22.4967 58.7408C22.4967 59.2346 22.3005 59.7081 21.9514 60.0573C21.6022 60.4065 21.1286 60.6026 20.6348 60.6026C20.141 60.6026 19.6674 60.4065 19.3183 60.0573C18.9691 59.7081 18.7729 59.2346 18.7729 58.7408C18.7729 58.247 18.9691 57.7734 19.3183 57.4242C19.6674 57.0751 20.141 56.8789 20.6348 56.8789Z" fill="black"/>
<path d="M29.9441 56.8789H33.6679V60.6026H29.9441V56.8789Z" fill="black"/>
<path d="M33.6679 56.8789H37.3916V60.6026H33.6679V56.8789Z" fill="black"/>
<path d="M37.3916 56.8789H41.1153V60.6026H37.3916V56.8789Z" fill="black"/>
<path d="M41.1153 56.8789H44.8391V60.6026H41.1153V56.8789Z" fill="black"/>
<path d="M44.8391 56.8789C45.8267 56.8789 46.7738 57.2712 47.4721 57.9696C48.1705 58.6679 48.5628 59.615 48.5628 60.6026H44.8391V56.8789Z" fill="black"/>
<path d="M52.2865 56.8789C52.2865 57.8665 52.6788 58.8136 53.3772 59.512C54.0755 60.2103 55.0227 60.6026 56.0103 60.6026V56.8789H52.2865Z" fill="black"/>
<path d="M57.8721 56.8789C58.3659 56.8789 58.8395 57.0751 59.1887 57.4242C59.5378 57.7734 59.734 58.247 59.734 58.7408C59.734 59.2346 59.5378 59.7081 59.1887 60.0573C58.8395 60.4065 58.3659 60.6026 57.8721 60.6026H56.0103V56.8789H57.8721Z" fill="black"/>
<path d="M70.9052 56.8789H74.6289V60.6026H70.9052V56.8789Z" fill="black"/>
<path d="M78.3526 56.8789H82.0764V60.6026H78.3526V56.8789Z" fill="black"/>
<path d="M82.0764 56.8789H85.8001V60.6026H82.0764V56.8789Z" fill="black"/>
<path d="M85.8001 56.8789H89.5238V60.6026H85.8001V56.8789Z" fill="black"/>
<path d="M89.5238 60.6026C90.5114 60.6026 91.4586 60.2103 92.1569 59.512C92.8552 58.8136 93.2476 57.8665 93.2476 56.8789H89.5238V60.6026Z" fill="black"/>
<path d="M0.154297 62.4645C0.154297 62.9583 0.350457 63.4319 0.699625 63.781C1.04879 64.1302 1.52236 64.3264 2.01616 64.3264C2.50996 64.3264 2.98353 64.1302 3.3327 63.781C3.68187 63.4319 3.87803 62.9583 3.87803 62.4645V60.6026H0.154297V62.4645Z" fill="black"/>
<path d="M9.46362 60.6026C9.95742 60.6026 10.431 60.7988 10.7802 61.148C11.1293 61.4971 11.3255 61.9707 11.3255 62.4645C11.3255 62.9583 11.1293 63.4319 10.7802 63.781C10.431 64.1302 9.95742 64.3264 9.46362 64.3264C8.96983 64.3264 8.49625 64.1302 8.14709 63.781C7.79792 63.4319 7.60176 62.9583 7.60176 62.4645C7.60176 61.9707 7.79792 61.4971 8.14709 61.148C8.49625 60.7988 8.96983 60.6026 9.46362 60.6026Z" fill="black"/>
<path d="M24.3585 60.6026C23.8647 60.6026 23.3912 60.7988 23.042 61.148C22.6928 61.4971 22.4967 61.9707 22.4967 62.4645C22.4967 62.9583 22.6928 63.4319 23.042 63.781C23.3912 64.1302 23.8647 64.3264 24.3585 64.3264H26.2204V60.6026H24.3585Z" fill="black"/>
<path d="M26.2204 60.6026H29.9441V64.3264H26.2204V60.6026Z" fill="black"/>
<path d="M29.9441 60.6026H33.6679V64.3264H29.9441V60.6026Z" fill="black"/>
<path d="M33.6679 64.3264C34.6555 64.3264 35.6026 63.934 36.3009 63.2357C36.9993 62.5374 37.3916 61.5902 37.3916 60.6026H33.6679V64.3264Z" fill="black"/>
<path d="M41.1153 60.6026C41.1153 61.5902 41.5077 62.5374 42.206 63.2357C42.9043 63.934 43.8515 64.3264 44.8391 64.3264V60.6026H41.1153Z" fill="black"/>
<path d="M44.8391 60.6026H48.5628V64.3264H44.8391V60.6026Z" fill="black"/>
<path d="M48.5628 60.6026C49.5504 60.6026 50.4975 60.995 51.1959 61.6933C51.8942 62.3916 52.2865 63.3388 52.2865 64.3264H48.5628V60.6026Z" fill="black"/>
<path d="M59.734 64.3264C59.734 63.3388 60.1263 62.3916 60.8246 61.6933C61.523 60.995 62.4701 60.6026 63.4577 60.6026V64.3264H59.734Z" fill="black"/>
<path d="M63.4577 60.6026H67.1814V64.3264H63.4577V60.6026Z" fill="black"/>
<path d="M67.1814 60.6026H70.9052V64.3264H67.1814V60.6026Z" fill="black"/>
<path d="M70.9052 60.6026H74.6289V64.3264H70.9052V60.6026Z" fill="black"/>
<path d="M74.6289 60.6026H78.3526V64.3264H74.6289V60.6026Z" fill="black"/>
<path d="M78.3526 60.6026H82.0764V64.3264H78.3526V60.6026Z" fill="black"/>
<path d="M82.0764 64.3264C83.064 64.3264 84.0111 63.934 84.7094 63.2357C85.4078 62.5374 85.8001 61.5902 85.8001 60.6026H82.0764V64.3264Z" fill="black"/>
<path d="M29.9441 64.3264H33.6679V68.0501H29.9441V64.3264Z" fill="black"/>
<path d="M39.2535 64.3264C39.7473 64.3264 40.2208 64.5225 40.57 64.8717C40.9192 65.2209 41.1153 65.6944 41.1153 66.1882C41.1153 66.682 40.9192 67.1556 40.57 67.5048C40.2208 67.8539 39.7473 68.0501 39.2535 68.0501C38.7597 68.0501 38.2861 67.8539 37.9369 67.5048C37.5878 67.1556 37.3916 66.682 37.3916 66.1882C37.3916 65.6944 37.5878 65.2209 37.9369 64.8717C38.2861 64.5225 38.7597 64.3264 39.2535 64.3264Z" fill="black"/>
<path d="M48.5628 66.1882C48.5628 66.682 48.7589 67.1556 49.1081 67.5048C49.4573 67.8539 49.9309 68.0501 50.4247 68.0501C50.9185 68.0501 51.392 67.8539 51.7412 67.5048C52.0904 67.1556 52.2865 66.682 52.2865 66.1882V64.3264H48.5628V66.1882Z" fill="black"/>
<path d="M59.734 64.3264H63.4577V68.0501H59.734V64.3264Z" fill="black"/>
<path d="M74.6289 64.3264H78.3526V68.0501H74.6289V64.3264Z" fill="black"/>
<path d="M87.662 64.3264C88.1558 64.3264 88.6293 64.5225 88.9785 64.8717C89.3277 65.2209 89.5238 65.6944 89.5238 66.1882C89.5238 66.682 89.3277 67.1556 88.9785 67.5048C88.6293 67.8539 88.1558 68.0501 87.662 68.0501C87.1682 68.0501 86.6946 67.8539 86.3454 67.5048C85.9963 67.1556 85.8001 66.682 85.8001 66.1882C85.8001 65.6944 85.9963 65.2209 86.3454 64.8717C86.6946 64.5225 87.1682 64.3264 87.662 64.3264Z" fill="black"/>
<path d="M0.154297 71.7738C0.154297 70.7862 0.546617 69.8391 1.24495 69.1408C1.94329 68.4424 2.89043 68.0501 3.87803 68.0501V71.7738H0.154297Z" fill="black"/>
<path d="M3.87803 68.0501H7.60176V71.7738H3.87803V68.0501Z" fill="black"/>
<path d="M7.60176 68.0501H11.3255V71.7738H7.60176V68.0501Z" fill="black"/>
<path d="M11.3255 68.0501H15.0492V71.7738H11.3255V68.0501Z" fill="black"/>
<path d="M15.0492 68.0501H18.7729V71.7738H15.0492V68.0501Z" fill="black"/>
<path d="M18.7729 68.0501H22.4967V71.7738H18.7729V68.0501Z" fill="black"/>
<path d="M22.4967 68.0501C23.4843 68.0501 24.4314 68.4424 25.1298 69.1408C25.8281 69.8391 26.2204 70.7862 26.2204 71.7738H22.4967V68.0501Z" fill="black"/>
<path d="M29.9441 68.0501C29.9441 69.0377 30.3365 69.9848 31.0348 70.6832C31.7331 71.3815 32.6803 71.7738 33.6679 71.7738V68.0501H29.9441Z" fill="black"/>
<path d="M35.5297 68.0501C36.0235 68.0501 36.4971 68.2463 36.8463 68.5954C37.1954 68.9446 37.3916 69.4182 37.3916 69.912C37.3916 70.4058 37.1954 70.8793 36.8463 71.2285C36.4971 71.5777 36.0235 71.7738 35.5297 71.7738H33.6679V68.0501H35.5297Z" fill="black"/>
<path d="M42.9772 68.0501C42.4834 68.0501 42.0098 68.2463 41.6607 68.5954C41.3115 68.9446 41.1153 69.4182 41.1153 69.912C41.1153 70.4058 41.3115 70.8793 41.6607 71.2285C42.0098 71.5777 42.4834 71.7738 42.9772 71.7738H44.8391V68.0501H42.9772Z" fill="black"/>
<path d="M44.8391 68.0501C45.8267 68.0501 46.7738 68.4424 47.4721 69.1408C48.1705 69.8391 48.5628 70.7862 48.5628 71.7738H44.8391V68.0501Z" fill="black"/>
<path d="M54.1484 68.0501C53.6546 68.0501 53.181 68.2463 52.8318 68.5954C52.4827 68.9446 52.2865 69.4182 52.2865 69.912C52.2865 70.4058 52.4827 70.8793 52.8318 71.2285C53.181 71.5777 53.6546 71.7738 54.1484 71.7738H56.0103V68.0501H54.1484Z" fill="black"/>
<path d="M56.0103 68.0501H59.734V71.7738H56.0103V68.0501Z" fill="black"/>
<path d="M59.734 68.0501H63.4577V71.7738H59.734V68.0501Z" fill="black"/>
<path d="M69.0433 68.0501C69.5371 68.0501 70.0107 68.2463 70.3598 68.5954C70.709 68.9446 70.9052 69.4182 70.9052 69.912C70.9052 70.4058 70.709 70.8793 70.3598 71.2285C70.0107 71.5777 69.5371 71.7738 69.0433 71.7738C68.5495 71.7738 68.0759 71.5777 67.7268 71.2285C67.3776 70.8793 67.1814 70.4058 67.1814 69.912C67.1814 69.4182 67.3776 68.9446 67.7268 68.5954C68.0759 68.2463 68.5495 68.0501 69.0433 68.0501Z" fill="black"/>
<path d="M74.6289 68.0501H78.3526V71.7738H74.6289V68.0501Z" fill="black"/>
<path d="M78.3526 68.0501H82.0764V71.7738H78.3526V68.0501Z" fill="black"/>
<path d="M83.9382 68.0501C84.432 68.0501 84.9056 68.2463 85.2548 68.5954C85.6039 68.9446 85.8001 69.4182 85.8001 69.912C85.8001 70.4058 85.6039 70.8793 85.2548 71.2285C84.9056 71.5777 84.432 71.7738 83.9382 71.7738H82.0764V68.0501H83.9382Z" fill="black"/>
<path d="M89.5238 69.912C89.5238 69.4182 89.72 68.9446 90.0692 68.5954C90.4183 68.2463 90.8919 68.0501 91.3857 68.0501C91.8795 68.0501 92.3531 68.2463 92.7022 68.5954C93.0514 68.9446 93.2476 69.4182 93.2476 69.912V71.7738H89.5238V69.912Z" fill="black"/>
<path d="M0.154297 71.7738H3.87803V75.4976H0.154297V71.7738Z" fill="black"/>
<path d="M22.4967 71.7738H26.2204V75.4976H22.4967V71.7738Z" fill="black"/>
<path d="M37.3916 73.6357C37.3916 73.1419 37.5878 72.6683 37.9369 72.3192C38.2861 71.97 38.7597 71.7738 39.2535 71.7738C39.7473 71.7738 40.2208 71.97 40.57 72.3192C40.9192 72.6683 41.1153 73.1419 41.1153 73.6357V75.4976H37.3916V73.6357Z" fill="black"/>
<path d="M44.8391 73.6357C44.8391 74.1295 45.0352 74.6031 45.3844 74.9522C45.7336 75.3014 46.2071 75.4976 46.7009 75.4976C47.1947 75.4976 47.6683 75.3014 48.0175 74.9522C48.3666 74.6031 48.5628 74.1295 48.5628 73.6357V71.7738H44.8391V73.6357Z" fill="black"/>
<path d="M59.734 71.7738H63.4577V75.4976H59.734V71.7738Z" fill="black"/>
<path d="M74.6289 71.7738H78.3526V75.4976H74.6289V71.7738Z" fill="black"/>
<path d="M78.3526 71.7738H82.0764V75.4976H78.3526V71.7738Z" fill="black"/>
<path d="M85.8001 75.4976C85.8001 74.51 86.1924 73.5628 86.8908 72.8645C87.5891 72.1662 88.5362 71.7738 89.5238 71.7738V75.4976H85.8001Z" fill="black"/>
<path d="M89.5238 75.4976C90.5114 75.4976 91.4586 75.1052 92.1569 74.4069C92.8552 73.7086 93.2476 72.7614 93.2476 71.7738H89.5238V75.4976Z" fill="black"/>
<path d="M0.154297 75.4976H3.87803V79.2213H0.154297V75.4976Z" fill="black"/>
<path d="M7.60176 79.2213C7.60176 78.2337 7.99408 77.2866 8.69241 76.5882C9.39075 75.8899 10.3379 75.4976 11.3255 75.4976V79.2213H7.60176Z" fill="black"/>
<path d="M11.3255 75.4976H15.0492V79.2213H11.3255V75.4976Z" fill="black"/>
<path d="M15.0492 75.4976C16.0368 75.4976 16.984 75.8899 17.6823 76.5882C18.3806 77.2866 18.7729 78.2337 18.7729 79.2213H15.0492V75.4976Z" fill="black"/>
<path d="M22.4967 75.4976H26.2204V79.2213H22.4967V75.4976Z" fill="black"/>
<path d="M29.9441 79.2213C29.9441 78.2337 30.3365 77.2866 31.0348 76.5882C31.7331 75.8899 32.6803 75.4976 33.6679 75.4976V79.2213H29.9441Z" fill="black"/>
<path d="M33.6679 75.4976H37.3916V79.2213H33.6679V75.4976Z" fill="black"/>
<path d="M37.3916 79.2213C38.3792 79.2213 39.3263 78.829 40.0247 78.1306C40.723 77.4323 41.1153 76.4852 41.1153 75.4976H37.3916V79.2213Z" fill="black"/>
<path d="M57.8721 75.4976C57.3783 75.4976 56.9047 75.6937 56.5556 76.0429C56.2064 76.3921 56.0103 76.8656 56.0103 77.3594C56.0103 77.8532 56.2064 78.3268 56.5556 78.676C56.9047 79.0251 57.3783 79.2213 57.8721 79.2213H59.734V75.4976H57.8721Z" fill="black"/>
<path d="M59.734 75.4976H63.4577V79.2213H59.734V75.4976Z" fill="black"/>
<path d="M63.4577 75.4976H67.1814V79.2213H63.4577V75.4976Z" fill="black"/>
<path d="M67.1814 75.4976H70.9052V79.2213H67.1814V75.4976Z" fill="black"/>
<path d="M70.9052 75.4976H74.6289V79.2213H70.9052V75.4976Z" fill="black"/>
<path d="M74.6289 75.4976H78.3526V79.2213H74.6289V75.4976Z" fill="black"/>
<path d="M78.3526 75.4976H82.0764V79.2213H78.3526V75.4976Z" fill="black"/>
<path d="M85.8001 77.3594C85.8001 77.8532 85.9963 78.3268 86.3454 78.676C86.6946 79.0251 87.1682 79.2213 87.662 79.2213C88.1558 79.2213 88.6293 79.0251 88.9785 78.676C89.3277 78.3268 89.5238 77.8532 89.5238 77.3594V75.4976H85.8001V77.3594Z" fill="black"/>
<path d="M0.154297 79.2213H3.87803V82.945H0.154297V79.2213Z" fill="black"/>
<path d="M7.60176 79.2213H11.3255V82.945H7.60176V79.2213Z" fill="black"/>
<path d="M11.3255 79.2213H15.0492V82.945H11.3255V79.2213Z" fill="black"/>
<path d="M15.0492 79.2213H18.7729V82.945H15.0492V79.2213Z" fill="black"/>
<path d="M22.4967 79.2213H26.2204V82.945H22.4967V79.2213Z" fill="black"/>
<path d="M29.9441 81.0832C29.9441 81.577 30.1403 82.0505 30.4895 82.3997C30.8386 82.7489 31.3122 82.945 31.806 82.945C32.2998 82.945 32.7734 82.7489 33.1225 82.3997C33.4717 82.0505 33.6679 81.577 33.6679 81.0832V79.2213H29.9441V81.0832Z" fill="black"/>
<path d="M44.8391 81.0832C44.8391 80.5894 45.0352 80.1158 45.3844 79.7666C45.7336 79.4175 46.2071 79.2213 46.7009 79.2213C47.1947 79.2213 47.6683 79.4175 48.0175 79.7666C48.3666 80.1158 48.5628 80.5894 48.5628 81.0832V82.945H44.8391V81.0832Z" fill="black"/>
<path d="M52.2865 81.0832C52.2865 80.5894 52.4827 80.1158 52.8318 79.7666C53.181 79.4175 53.6546 79.2213 54.1484 79.2213C54.6422 79.2213 55.1158 79.4175 55.4649 79.7666C55.8141 80.1158 56.0103 80.5894 56.0103 81.0832V82.945H52.2865V81.0832Z" fill="black"/>
<path d="M63.4577 79.2213C63.4577 80.2089 63.85 81.156 64.5484 81.8544C65.2467 82.5527 66.1938 82.945 67.1814 82.945V79.2213H63.4577Z" fill="black"/>
<path d="M67.1814 82.945C68.169 82.945 69.1162 82.5527 69.8145 81.8544C70.5129 81.156 70.9052 80.2089 70.9052 79.2213H67.1814V82.945Z" fill="black"/>
<path d="M78.3526 79.2213C78.3526 80.2089 78.745 81.156 79.4433 81.8544C80.1416 82.5527 81.0888 82.945 82.0764 82.945V79.2213H78.3526Z" fill="black"/>
<path d="M83.9382 79.2213C84.432 79.2213 84.9056 79.4175 85.2548 79.7666C85.6039 80.1158 85.8001 80.5894 85.8001 81.0832C85.8001 81.577 85.6039 82.0505 85.2548 82.3997C84.9056 82.7489 84.432 82.945 83.9382 82.945H82.0764V79.2213H83.9382Z" fill="black"/>
<path d="M89.5238 81.0832C89.5238 80.5894 89.72 80.1158 90.0692 79.7666C90.4183 79.4175 90.8919 79.2213 91.3857 79.2213C91.8795 79.2213 92.3531 79.4175 92.7022 79.7666C93.0514 80.1158 93.2476 80.5894 93.2476 81.0832V82.945H89.5238V81.0832Z" fill="black"/>
<path d="M0.154297 82.945H3.87803V86.6687H0.154297V82.945Z" fill="black"/>
<path d="M7.60176 82.945C7.60176 83.9326 7.99408 84.8798 8.69241 85.5781C9.39075 86.2764 10.3379 86.6687 11.3255 86.6687V82.945H7.60176Z" fill="black"/>
<path d="M11.3255 82.945H15.0492V86.6687H11.3255V82.945Z" fill="black"/>
<path d="M15.0492 86.6687C16.0368 86.6687 16.984 86.2764 17.6823 85.5781C18.3806 84.8798 18.7729 83.9326 18.7729 82.945H15.0492V86.6687Z" fill="black"/>
<path d="M22.4967 82.945H26.2204V86.6687H22.4967V82.945Z" fill="black"/>
<path d="M39.2535 82.945C38.7597 82.945 38.2861 83.1412 37.9369 83.4903C37.5878 83.8395 37.3916 84.3131 37.3916 84.8069C37.3916 85.3007 37.5878 85.7743 37.9369 86.1234C38.2861 86.4726 38.7597 86.6687 39.2535 86.6687H41.1153V82.945H39.2535Z" fill="black"/>
<path d="M41.1153 82.945H44.8391V86.6687H41.1153V82.945Z" fill="black"/>
<path d="M44.8391 82.945H48.5628V86.6687H44.8391V82.945Z" fill="black"/>
<path d="M48.5628 82.945H52.2865V86.6687H48.5628V82.945Z" fill="black"/>
<path d="M52.2865 82.945H56.0103V86.6687H52.2865V82.945Z" fill="black"/>
<path d="M61.5958 82.945C62.0896 82.945 62.5632 83.1412 62.9124 83.4903C63.2616 83.8395 63.4577 84.3131 63.4577 84.8069C63.4577 85.3007 63.2616 85.7743 62.9124 86.1234C62.5632 86.4726 62.0896 86.6687 61.5958 86.6687C61.102 86.6687 60.6285 86.4726 60.2793 86.1234C59.9301 85.7743 59.734 85.3007 59.734 84.8069C59.734 84.3131 59.9301 83.8395 60.2793 83.4903C60.6285 83.1412 61.102 82.945 61.5958 82.945Z" fill="black"/>
<path d="M70.9052 86.6687C70.9052 85.6812 71.2975 84.734 71.9958 84.0357C72.6942 83.3373 73.6413 82.945 74.6289 82.945V86.6687H70.9052Z" fill="black"/>
<path d="M76.4908 82.945C76.9846 82.945 77.4581 83.1412 77.8073 83.4903C78.1565 83.8395 78.3526 84.3131 78.3526 84.8069C78.3526 85.3007 78.1565 85.7743 77.8073 86.1234C77.4581 86.4726 76.9846 86.6687 76.4908 86.6687H74.6289V82.945H76.4908Z" fill="black"/>
<path d="M85.8001 86.6687C85.8001 85.6812 86.1924 84.734 86.8908 84.0357C87.5891 83.3373 88.5362 82.945 89.5238 82.945V86.6687H85.8001Z" fill="black"/>
<path d="M89.5238 82.945H93.2476V86.6687H89.5238V82.945Z" fill="black"/>
<path d="M0.154297 86.6687H3.87803V90.3925H0.154297V86.6687Z" fill="black"/>
<path d="M22.4967 86.6687H26.2204V90.3925H22.4967V86.6687Z" fill="black"/>
<path d="M35.5297 86.6687C36.0235 86.6687 36.4971 86.8649 36.8463 87.2141C37.1954 87.5632 37.3916 88.0368 37.3916 88.5306C37.3916 89.0244 37.1954 89.498 36.8463 89.8472C36.4971 90.1963 36.0235 90.3925 35.5297 90.3925C35.0359 90.3925 34.5624 90.1963 34.2132 89.8472C33.864 89.498 33.6679 89.0244 33.6679 88.5306C33.6679 88.0368 33.864 87.5632 34.2132 87.2141C34.5624 86.8649 35.0359 86.6687 35.5297 86.6687Z" fill="black"/>
<path d="M44.8391 86.6687H48.5628V90.3925H44.8391V86.6687Z" fill="black"/>
<path d="M52.2865 86.6687H56.0103V90.3925H52.2865V86.6687Z" fill="black"/>
<path d="M69.0433 86.6687C68.5495 86.6687 68.0759 86.8649 67.7268 87.2141C67.3776 87.5632 67.1814 88.0368 67.1814 88.5306C67.1814 89.0244 67.3776 89.498 67.7268 89.8472C68.0759 90.1963 68.5495 90.3925 69.0433 90.3925H70.9052V86.6687H69.0433Z" fill="black"/>
<path d="M70.9052 86.6687H74.6289V90.3925H70.9052V86.6687Z" fill="black"/>
<path d="M78.3526 90.3925C78.3526 89.4049 78.745 88.4577 79.4433 87.7594C80.1416 87.0611 81.0888 86.6687 82.0764 86.6687V90.3925H78.3526Z" fill="black"/>
<path d="M82.0764 86.6687H85.8001V90.3925H82.0764V86.6687Z" fill="black"/>
<path d="M85.8001 86.6687H89.5238V90.3925H85.8001V86.6687Z" fill="black"/>
<path d="M89.5238 86.6687H93.2476V90.3925H89.5238V86.6687Z" fill="black"/>
<path d="M0.154297 90.3925C0.154297 91.3801 0.546617 92.3272 1.24495 93.0256C1.94329 93.7239 2.89043 94.1162 3.87803 94.1162V90.3925H0.154297Z" fill="black"/>
<path d="M3.87803 90.3925H7.60176V94.1162H3.87803V90.3925Z" fill="black"/>
<path d="M7.60176 90.3925H11.3255V94.1162H7.60176V90.3925Z" fill="black"/>
<path d="M11.3255 90.3925H15.0492V94.1162H11.3255V90.3925Z" fill="black"/>
<path d="M15.0492 90.3925H18.7729V94.1162H15.0492V90.3925Z" fill="black"/>
<path d="M18.7729 90.3925H22.4967V94.1162H18.7729V90.3925Z" fill="black"/>
<path d="M22.4967 94.1162C23.4843 94.1162 24.4314 93.7239 25.1298 93.0256C25.8281 92.3272 26.2204 91.3801 26.2204 90.3925H22.4967V94.1162Z" fill="black"/>
<path d="M42.9772 90.3925C42.4834 90.3925 42.0098 90.5886 41.6607 90.9378C41.3115 91.287 41.1153 91.7605 41.1153 92.2543C41.1153 92.7481 41.3115 93.2217 41.6607 93.5709C42.0098 93.9201 42.4834 94.1162 42.9772 94.1162H44.8391V90.3925H42.9772Z" fill="black"/>
<path d="M44.8391 90.3925H48.5628V94.1162H44.8391V90.3925Z" fill="black"/>
<path d="M48.5628 90.3925H52.2865V94.1162H48.5628V90.3925Z" fill="black"/>
<path d="M52.2865 94.1162C53.2741 94.1162 54.2213 93.7239 54.9196 93.0256C55.6179 92.3272 56.0103 91.3801 56.0103 90.3925H52.2865V94.1162Z" fill="black"/>
<path d="M61.5958 90.3925C61.102 90.3925 60.6285 90.5886 60.2793 90.9378C59.9301 91.287 59.734 91.7605 59.734 92.2543C59.734 92.7481 59.9301 93.2217 60.2793 93.5709C60.6285 93.9201 61.102 94.1162 61.5958 94.1162H63.4577V90.3925H61.5958Z" fill="black"/>
<path d="M65.3196 90.3925C65.8134 90.3925 66.2869 90.5886 66.6361 90.9378C66.9853 91.287 67.1814 91.7605 67.1814 92.2543C67.1814 92.7481 66.9853 93.2217 66.6361 93.5709C66.2869 93.9201 65.8134 94.1162 65.3196 94.1162H63.4577V90.3925H65.3196Z" fill="black"/>
<path d="M70.9052 90.3925C70.9052 91.3801 71.2975 92.3272 71.9958 93.0256C72.6942 93.7239 73.6413 94.1162 74.6289 94.1162V90.3925H70.9052Z" fill="black"/>
<path d="M74.6289 90.3925H78.3526V94.1162H74.6289V90.3925Z" fill="black"/>
<path d="M78.3526 94.1162C79.3402 94.1162 80.2874 93.7239 80.9857 93.0256C81.684 92.3272 82.0764 91.3801 82.0764 90.3925H78.3526V94.1162Z" fill="black"/>
<path d="M89.5238 92.2543C89.5238 92.7481 89.72 93.2217 90.0692 93.5709C90.4183 93.9201 90.8919 94.1162 91.3857 94.1162C91.8795 94.1162 92.3531 93.9201 92.7022 93.5709C93.0514 93.2217 93.2476 92.7481 93.2476 92.2543V90.3925H89.5238V92.2543Z" fill="black"/>
<path d="M0.154297 4.74668C0.154297 3.75909 0.546617 2.81194 1.24495 2.1136C1.94329 1.41527 2.89043 1.02295 3.87803 1.02295M0.154297 4.74668H3.87803M0.154297 4.74668V8.47041M3.87803 1.02295V4.74668M3.87803 1.02295H7.60176M3.87803 4.74668H7.60176M3.87803 4.74668V8.47041M7.60176 1.02295V4.74668M7.60176 1.02295H11.3255M7.60176 4.74668H11.3255M11.3255 1.02295V4.74668M11.3255 1.02295H15.0492M11.3255 4.74668H15.0492M15.0492 1.02295V4.74668M15.0492 1.02295H18.7729M15.0492 4.74668H18.7729M18.7729 1.02295V4.74668M18.7729 1.02295H22.4967M18.7729 4.74668H22.4967M22.4967 1.02295V4.74668M22.4967 1.02295C23.4843 1.02295 24.4314 1.41527 25.1298 2.1136C25.8281 2.81194 26.2204 3.75909 26.2204 4.74668M22.4967 4.74668H26.2204M22.4967 4.74668V8.47041M26.2204 4.74668V8.47041M33.6679 4.74668C33.6679 3.75909 34.0602 2.81194 34.7585 2.1136C35.4569 1.41527 36.404 1.02295 37.3916 1.02295M33.6679 4.74668H37.3916M33.6679 4.74668V8.47041M37.3916 1.02295V4.74668M37.3916 1.02295H39.2535C39.7473 1.02295 40.2208 1.21911 40.57 1.56828C40.9192 1.91744 41.1153 2.39102 41.1153 2.88481C41.1153 3.37861 40.9192 3.85218 40.57 4.20135C40.2208 4.55052 39.7473 4.74668 39.2535 4.74668H37.3916M37.3916 4.74668V8.47041M48.5628 4.74668H46.7009C46.2071 4.74668 45.7336 4.55052 45.3844 4.20135C45.0352 3.85218 44.8391 3.37861 44.8391 2.88481C44.8391 2.39102 45.0352 1.91744 45.3844 1.56828C45.7336 1.21911 46.2071 1.02295 46.7009 1.02295H48.5628M48.5628 4.74668V1.02295M48.5628 4.74668H52.2865M48.5628 1.02295H52.2865M52.2865 1.02295V4.74668M52.2865 1.02295C53.2741 1.02295 54.2213 1.41527 54.9196 2.1136C55.6179 2.81194 56.0103 3.75909 56.0103 4.74668M52.2865 4.74668H56.0103M52.2865 4.74668V8.47041M56.0103 4.74668V8.47041M67.1814 4.74668C67.1814 3.75909 67.5738 2.81194 68.2721 2.1136C68.9704 1.41527 69.9176 1.02295 70.9052 1.02295M67.1814 4.74668H70.9052M67.1814 4.74668V8.47041M70.9052 1.02295V4.74668M70.9052 1.02295H74.6289M70.9052 4.74668H74.6289M70.9052 4.74668V8.47041M74.6289 1.02295V4.74668M74.6289 1.02295H78.3526M74.6289 4.74668H78.3526M78.3526 1.02295V4.74668M78.3526 1.02295H82.0764M78.3526 4.74668H82.0764M82.0764 1.02295V4.74668M82.0764 1.02295H85.8001M82.0764 4.74668H85.8001M85.8001 1.02295V4.74668M85.8001 1.02295H89.5238M85.8001 4.74668H89.5238M89.5238 1.02295V4.74668M89.5238 1.02295C90.5114 1.02295 91.4586 1.41527 92.1569 2.1136C92.8552 2.81194 93.2476 3.75909 93.2476 4.74668M89.5238 4.74668H93.2476M89.5238 4.74668V8.47041M93.2476 4.74668V8.47041M3.87803 8.47041H0.154297M3.87803 8.47041V12.1941M0.154297 8.47041V12.1941M26.2204 8.47041H22.4967M26.2204 8.47041V12.1941M22.4967 8.47041V12.1941M37.3916 8.47041H33.6679M37.3916 8.47041C37.3916 9.45801 36.9993 10.4051 36.3009 11.1035C35.6026 11.8018 34.6555 12.1941 33.6679 12.1941M33.6679 8.47041C32.6803 8.47041 31.7331 8.86273 31.0348 9.56107C30.3365 10.2594 29.9441 11.2065 29.9441 12.1941M33.6679 8.47041V12.1941M56.0103 8.47041H52.2865M56.0103 8.47041C56.0103 9.45801 55.6179 10.4051 54.9196 11.1035C54.2213 11.8018 53.2741 12.1941 52.2865 12.1941M52.2865 8.47041V12.1941M52.2865 8.47041H50.4247C49.9309 8.47041 49.4573 8.66657 49.1081 9.01574C48.759 9.36491 48.5628 9.83848 48.5628 10.3323C48.5628 10.8261 48.759 11.2996 49.1081 11.6488C49.4573 11.998 49.9309 12.1941 50.4247 12.1941H52.2865M70.9052 8.47041H67.1814M70.9052 8.47041V12.1941M67.1814 8.47041V12.1941M93.2476 8.47041H89.5238M93.2476 8.47041V12.1941M89.5238 8.47041V12.1941M3.87803 12.1941H0.154297M3.87803 12.1941V15.9179M0.154297 12.1941V15.9179M7.60176 12.1941C7.60176 11.2065 7.99408 10.2594 8.69241 9.56107C9.39075 8.86273 10.3379 8.47041 11.3255 8.47041M7.60176 12.1941H11.3255M7.60176 12.1941V15.9179M11.3255 8.47041V12.1941M11.3255 8.47041H15.0492M11.3255 12.1941H15.0492M11.3255 12.1941V15.9179M15.0492 8.47041V12.1941M15.0492 8.47041C16.0368 8.47041 16.984 8.86273 17.6823 9.56107C18.3806 10.2594 18.7729 11.2065 18.7729 12.1941M15.0492 12.1941H18.7729M15.0492 12.1941V15.9179M18.7729 12.1941V15.9179M26.2204 12.1941H22.4967M26.2204 12.1941V15.9179M22.4967 12.1941V15.9179M29.9441 12.1941H33.6679M29.9441 12.1941V14.056C29.9441 14.5498 30.1403 15.0234 30.4895 15.3725C30.8386 15.7217 31.3122 15.9179 31.806 15.9179C32.2998 15.9179 32.7734 15.7217 33.1225 15.3725C33.4717 15.0234 33.6679 14.5498 33.6679 14.056V12.1941M44.8391 12.1941V10.3323C44.8391 9.83848 44.6429 9.36491 44.2937 9.01574C43.9446 8.66657 43.471 8.47041 42.9772 8.47041C42.4834 8.47041 42.0098 8.66657 41.6607 9.01574C41.3115 9.36491 41.1153 9.83848 41.1153 10.3323V12.1941M44.8391 12.1941H41.1153M44.8391 12.1941V15.9179M41.1153 12.1941C40.1277 12.1941 39.1806 12.5865 38.4823 13.2848C37.7839 13.9831 37.3916 14.9303 37.3916 15.9179M41.1153 12.1941V15.9179M70.9052 12.1941H67.1814M70.9052 12.1941V15.9179M67.1814 12.1941V15.9179M74.6289 12.1941C74.6289 11.2065 75.0212 10.2594 75.7196 9.56107C76.4179 8.86273 77.365 8.47041 78.3526 8.47041M74.6289 12.1941H78.3526M74.6289 12.1941V15.9179M78.3526 8.47041V12.1941M78.3526 8.47041H82.0764M78.3526 12.1941H82.0764M78.3526 12.1941V15.9179M82.0764 8.47041V12.1941M82.0764 8.47041C83.064 8.47041 84.0111 8.86273 84.7094 9.56107C85.4078 10.2594 85.8001 11.2065 85.8001 12.1941M82.0764 12.1941H85.8001M82.0764 12.1941V15.9179M85.8001 12.1941V15.9179M93.2476 12.1941H89.5238M93.2476 12.1941V15.9179M89.5238 12.1941V15.9179M3.87803 15.9179H0.154297M3.87803 15.9179V19.6416M0.154297 15.9179V19.6416M11.3255 15.9179H7.60176M11.3255 15.9179H15.0492M11.3255 15.9179V19.6416M7.60176 15.9179C7.60176 16.9055 7.99408 17.8526 8.69241 18.5509C9.39075 19.2493 10.3379 19.6416 11.3255 19.6416M15.0492 15.9179H18.7729M15.0492 15.9179V19.6416M18.7729 15.9179C18.7729 16.9055 18.3806 17.8526 17.6823 18.5509C16.984 19.2493 16.0368 19.6416 15.0492 19.6416M26.2204 15.9179H22.4967M26.2204 15.9179V19.6416M22.4967 15.9179V19.6416M37.3916 15.9179H41.1153M37.3916 15.9179C36.404 15.9179 35.4569 16.3102 34.7585 17.0085C34.0602 17.7069 33.6679 18.654 33.6679 19.6416M37.3916 15.9179V19.6416M41.1153 15.9179H44.8391M41.1153 15.9179V19.6416M44.8391 15.9179V19.6416M70.9052 15.9179H67.1814M70.9052 15.9179V19.6416M67.1814 15.9179V19.6416M78.3526 15.9179H74.6289M78.3526 15.9179H82.0764M78.3526 15.9179V19.6416M74.6289 15.9179C74.6289 16.9055 75.0212 17.8526 75.7196 18.5509C76.4179 19.2493 77.365 19.6416 78.3526 19.6416M82.0764 15.9179H85.8001M82.0764 15.9179V19.6416M85.8001 15.9179C85.8001 16.9055 85.4078 17.8526 84.7094 18.5509C84.0111 19.2493 83.064 19.6416 82.0764 19.6416M93.2476 15.9179H89.5238M93.2476 15.9179V19.6416M89.5238 15.9179V19.6416M3.87803 19.6416H0.154297M3.87803 19.6416V23.3653M0.154297 19.6416V23.3653M11.3255 19.6416H15.0492M26.2204 19.6416H22.4967M26.2204 19.6416V23.3653M22.4967 19.6416V23.3653M33.6679 19.6416H37.3916M33.6679 19.6416V21.5035C33.6679 21.9973 33.864 22.4708 34.2132 22.82C34.5624 23.1692 35.0359 23.3653 35.5297 23.3653C36.0235 23.3653 36.4971 23.1692 36.8463 22.82C37.1954 22.4708 37.3916 21.9973 37.3916 21.5035V19.6416M37.3916 19.6416H41.1153M41.1153 19.6416H44.8391M41.1153 19.6416V21.5035C41.1153 21.9973 41.3115 22.4708 41.6607 22.82C42.0098 23.1692 42.4834 23.3653 42.9772 23.3653C43.471 23.3653 43.9446 23.1692 44.2937 22.82C44.6429 22.4708 44.8391 21.9973 44.8391 21.5035V19.6416M63.4577 19.6416V17.7797C63.4577 17.2859 63.2616 16.8124 62.9124 16.4632C62.5632 16.114 62.0896 15.9179 61.5958 15.9179C61.102 15.9179 60.6285 16.114 60.2793 16.4632C59.9301 16.8124 59.734 17.2859 59.734 17.7797V19.6416M63.4577 19.6416H59.734M63.4577 19.6416V23.3653M59.734 19.6416H56.0103M59.734 19.6416V23.3653M70.9052 19.6416H67.1814M70.9052 19.6416V23.3653M67.1814 19.6416V23.3653M78.3526 19.6416H82.0764M93.2476 19.6416H89.5238M93.2476 19.6416V23.3653M89.5238 19.6416V23.3653M3.87803 23.3653H0.154297M3.87803 23.3653V27.0891M3.87803 23.3653H7.60176M0.154297 23.3653C0.154297 24.3529 0.546617 25.3001 1.24495 25.9984C1.94329 26.6967 2.89043 27.0891 3.87803 27.0891M26.2204 23.3653H22.4967M26.2204 23.3653C26.2204 24.3529 25.8281 25.3001 25.1298 25.9984C24.4314 26.6967 23.4843 27.0891 22.4967 27.0891M22.4967 23.3653H18.7729M22.4967 23.3653V27.0891M52.2865 23.3653C52.2865 22.3777 52.6788 21.4306 53.3772 20.7323C54.0755 20.0339 55.0227 19.6416 56.0103 19.6416M52.2865 23.3653H56.0103M52.2865 23.3653V25.2272C52.2865 25.721 52.4827 26.1946 52.8318 26.5437C53.181 26.8929 53.6546 27.0891 54.1484 27.0891C54.6422 27.0891 55.1158 26.8929 55.4649 26.5437C55.8141 26.1946 56.0103 25.721 56.0103 25.2272V23.3653M56.0103 19.6416V23.3653M56.0103 23.3653H59.734M59.734 23.3653H63.4577M59.734 23.3653V25.2272C59.734 25.721 59.9301 26.1946 60.2793 26.5437C60.6285 26.8929 61.102 27.0891 61.5958 27.0891C62.0896 27.0891 62.5632 26.8929 62.9124 26.5437C63.2616 26.1946 63.4577 25.721 63.4577 25.2272V23.3653M70.9052 23.3653H67.1814M70.9052 23.3653V27.0891M70.9052 23.3653H74.6289M67.1814 23.3653C67.1814 24.3529 67.5738 25.3001 68.2721 25.9984C68.9704 26.6967 69.9176 27.0891 70.9052 27.0891M93.2476 23.3653H89.5238M93.2476 23.3653C93.2476 24.3529 92.8552 25.3001 92.1569 25.9984C91.4586 26.6967 90.5114 27.0891 89.5238 27.0891M89.5238 23.3653H85.8001M89.5238 23.3653V27.0891M3.87803 27.0891H7.60176M7.60176 23.3653V27.0891M7.60176 23.3653H11.3255M7.60176 27.0891H11.3255M11.3255 23.3653V27.0891M11.3255 23.3653H15.0492M11.3255 27.0891H15.0492M15.0492 23.3653V27.0891M15.0492 23.3653H18.7729M15.0492 27.0891H18.7729M18.7729 23.3653V27.0891M18.7729 27.0891H22.4967M70.9052 27.0891H74.6289M74.6289 23.3653V27.0891M74.6289 23.3653H78.3526M74.6289 27.0891H78.3526M78.3526 23.3653V27.0891M78.3526 23.3653H82.0764M78.3526 27.0891H82.0764M82.0764 23.3653V27.0891M82.0764 23.3653H85.8001M82.0764 27.0891H85.8001M85.8001 23.3653V27.0891M85.8001 27.0891H89.5238M11.3255 34.5365C11.3255 33.5489 11.7178 32.6018 12.4161 31.9034C13.1145 31.2051 14.0616 30.8128 15.0492 30.8128M11.3255 34.5365H15.0492M11.3255 34.5365H7.60176M11.3255 34.5365V38.2603M15.0492 30.8128V34.5365M15.0492 30.8128H16.9111C17.4049 30.8128 17.8785 31.009 18.2276 31.3581C18.5768 31.7073 18.7729 32.1809 18.7729 32.6747C18.7729 33.1685 18.5768 33.642 18.2276 33.9912C17.8785 34.3404 17.4049 34.5365 16.9111 34.5365H15.0492M15.0492 34.5365C15.0492 35.5241 14.6569 36.4713 13.9586 37.1696C13.2602 37.8679 12.3131 38.2603 11.3255 38.2603M26.2204 34.5365H24.3585C23.8647 34.5365 23.3912 34.3404 23.042 33.9912C22.6928 33.642 22.4967 33.1685 22.4967 32.6747C22.4967 32.1809 22.6928 31.7073 23.042 31.3581C23.3912 31.009 23.8647 30.8128 24.3585 30.8128H26.2204M26.2204 34.5365V30.8128M26.2204 34.5365H29.9441M26.2204 34.5365C26.2204 35.5241 26.6127 36.4713 27.3111 37.1696C28.0094 37.8679 28.9565 38.2603 29.9441 38.2603M26.2204 30.8128C27.208 30.8128 28.1552 31.2051 28.8535 31.9034C29.5518 32.6018 29.9441 33.5489 29.9441 34.5365M29.9441 34.5365V38.2603M29.9441 34.5365H31.806C32.2998 34.5365 32.7734 34.7327 33.1225 35.0819C33.4717 35.431 33.6679 35.9046 33.6679 36.3984C33.6679 36.8922 33.4717 37.3658 33.1225 37.7149C32.7734 38.0641 32.2998 38.2603 31.806 38.2603H29.9441M37.3916 34.5365H35.5297C35.0359 34.5365 34.5624 34.3404 34.2132 33.9912C33.864 33.642 33.6679 33.1685 33.6679 32.6747C33.6679 32.1809 33.864 31.7073 34.2132 31.3581C34.5624 31.009 35.0359 30.8128 35.5297 30.8128H37.3916M37.3916 34.5365V30.8128M37.3916 34.5365H41.1153M37.3916 30.8128H41.1153M41.1153 30.8128V34.5365M41.1153 30.8128H44.8391M41.1153 34.5365H44.8391M41.1153 34.5365V38.2603M44.8391 30.8128V34.5365M44.8391 30.8128H46.7009C47.1947 30.8128 47.6683 31.009 48.0175 31.3581C48.3666 31.7073 48.5628 32.1809 48.5628 32.6747C48.5628 33.1685 48.3666 33.642 48.0175 33.9912C47.6683 34.3404 47.1947 34.5365 46.7009 34.5365H44.8391M44.8391 34.5365V38.2603M52.2865 34.5365C52.2865 33.5489 52.6788 32.6018 53.3772 31.9034C54.0755 31.2051 55.0227 30.8128 56.0103 30.8128M52.2865 34.5365H56.0103M52.2865 34.5365C52.2865 35.5241 52.6788 36.4713 53.3772 37.1696C54.0755 37.8679 55.0227 38.2603 56.0103 38.2603M56.0103 30.8128V34.5365M56.0103 30.8128H59.734M56.0103 34.5365H59.734M56.0103 34.5365V38.2603M59.734 30.8128V34.5365M59.734 30.8128C60.7216 30.8128 61.6687 31.2051 62.3671 31.9034C63.0654 32.6018 63.4577 33.5489 63.4577 34.5365M59.734 34.5365H63.4577M59.734 34.5365V38.2603M63.4577 34.5365V38.2603M82.0764 34.5365H80.2145C79.7207 34.5365 79.2471 34.3404 78.898 33.9912C78.5488 33.642 78.3526 33.1685 78.3526 32.6747C78.3526 32.1809 78.5488 31.7073 78.898 31.3581C79.2471 31.009 79.7207 30.8128 80.2145 30.8128H82.0764M82.0764 34.5365V30.8128M82.0764 34.5365H85.8001M82.0764 34.5365V38.2603M82.0764 30.8128C83.064 30.8128 84.0111 31.2051 84.7094 31.9034C85.4078 32.6018 85.8001 33.5489 85.8001 34.5365M85.8001 34.5365V38.2603M3.87803 38.2603C3.87803 37.2727 4.27035 36.3255 4.96868 35.6272C5.66702 34.9288 6.61416 34.5365 7.60176 34.5365M3.87803 38.2603H7.60176M3.87803 38.2603V40.1221C3.87803 40.6159 4.07419 41.0895 4.42335 41.4387C4.77252 41.7878 5.2461 41.984 5.73989 41.984C6.23369 41.984 6.70726 41.7878 7.05643 41.4387C7.4056 41.0895 7.60176 40.6159 7.60176 40.1221V38.2603M7.60176 34.5365V38.2603M7.60176 38.2603H11.3255M44.8391 38.2603H41.1153M44.8391 38.2603V41.984M41.1153 38.2603V41.984M56.0103 38.2603H59.734M59.734 38.2603H63.4577M59.734 38.2603C59.734 39.2478 60.1263 40.195 60.8246 40.8933C61.523 41.5917 62.4701 41.984 63.4577 41.984M63.4577 38.2603V41.984M63.4577 38.2603C64.4453 38.2603 65.3925 38.6526 66.0908 39.3509C66.7891 40.0492 67.1814 40.9964 67.1814 41.984M74.6289 38.2603H72.767C72.2732 38.2603 71.7997 38.0641 71.4505 37.7149C71.1013 37.3658 70.9052 36.8922 70.9052 36.3984C70.9052 35.9046 71.1013 35.431 71.4505 35.0819C71.7997 34.7327 72.2732 34.5365 72.767 34.5365H74.6289M74.6289 38.2603V34.5365M74.6289 38.2603H78.3526M74.6289 38.2603V40.1221C74.6289 40.6159 74.8251 41.0895 75.1742 41.4387C75.5234 41.7878 75.997 41.984 76.4908 41.984C76.9846 41.984 77.4581 41.7878 77.8073 41.4387C78.1565 41.0895 78.3526 40.6159 78.3526 40.1221V38.2603M74.6289 34.5365C75.6165 34.5365 76.5636 34.9288 77.262 35.6272C77.9603 36.3255 78.3526 37.2727 78.3526 38.2603M85.8001 38.2603H82.0764M85.8001 38.2603V41.984M82.0764 38.2603V41.984M37.3916 41.984V40.1221C37.3916 39.6283 37.1954 39.1548 36.8463 38.8056C36.4971 38.4564 36.0235 38.2603 35.5297 38.2603C35.0359 38.2603 34.5624 38.4564 34.2132 38.8056C33.864 39.1548 33.6679 39.6283 33.6679 40.1221V41.984M37.3916 41.984H33.6679M37.3916 41.984V45.7077M37.3916 41.984H41.1153M33.6679 41.984V45.7077M33.6679 41.984H31.806C31.3122 41.984 30.8386 42.1801 30.4895 42.5293C30.1403 42.8785 29.9441 43.3521 29.9441 43.8458C29.9441 44.3396 30.1403 44.8132 30.4895 45.1624C30.8386 45.5116 31.3122 45.7077 31.806 45.7077H33.6679M44.8391 41.984H41.1153M44.8391 41.984V45.7077M41.1153 41.984V45.7077M63.4577 41.984H67.1814M63.4577 41.984V45.7077M67.1814 41.984V45.7077M67.1814 41.984H70.9052M85.8001 41.984H82.0764M85.8001 41.984V43.8458C85.8001 44.3396 85.6039 44.8132 85.2548 45.1624C84.9056 45.5116 84.432 45.7077 83.9382 45.7077C83.4444 45.7077 82.9709 45.5116 82.6217 45.1624C82.2725 44.8132 82.0764 44.3396 82.0764 43.8458V41.984M93.2476 41.984V40.1221C93.2476 39.6283 93.0514 39.1548 92.7022 38.8056C92.3531 38.4564 91.8795 38.2603 91.3857 38.2603C90.8919 38.2603 90.4183 38.4564 90.0692 38.8056C89.72 39.1548 89.5238 39.6283 89.5238 40.1221V41.984M93.2476 41.984H89.5238M93.2476 41.984V45.7077M89.5238 41.984V45.7077M3.87803 45.7077V43.8458C3.87803 43.3521 3.68187 42.8785 3.3327 42.5293C2.98353 42.1801 2.50996 41.984 2.01616 41.984C1.52236 41.984 1.04879 42.1801 0.699625 42.5293C0.350457 42.8785 0.154297 43.3521 0.154297 43.8458V45.7077M3.87803 45.7077H0.154297M3.87803 45.7077V49.4314M0.154297 45.7077V49.4314M11.3255 45.7077H9.46362C8.96983 45.7077 8.49625 45.5116 8.14709 45.1624C7.79792 44.8132 7.60176 44.3396 7.60176 43.8458C7.60176 43.3521 7.79792 42.8785 8.14709 42.5293C8.49625 42.1801 8.96983 41.984 9.46362 41.984H11.3255M11.3255 45.7077V41.984M11.3255 45.7077H13.1874C13.6812 45.7077 14.1547 45.5116 14.5039 45.1624C14.8531 44.8132 15.0492 44.3396 15.0492 43.8458C15.0492 43.3521 14.8531 42.8785 14.5039 42.5293C14.1547 42.1801 13.6812 41.984 13.1874 41.984H11.3255M22.4967 45.7077V43.8458C22.4967 43.3521 22.3005 42.8785 21.9514 42.5293C21.6022 42.1801 21.1286 41.984 20.6348 41.984C20.141 41.984 19.6674 42.1801 19.3183 42.5293C18.9691 42.8785 18.7729 43.3521 18.7729 43.8458V45.7077M22.4967 45.7077H18.7729M22.4967 45.7077V49.4314M22.4967 45.7077H24.3585C24.8523 45.7077 25.3259 45.9039 25.6751 46.253C26.0243 46.6022 26.2204 47.0758 26.2204 47.5696C26.2204 48.0634 26.0243 48.537 25.6751 48.8861C25.3259 49.2353 24.8523 49.4314 24.3585 49.4314H22.4967M18.7729 45.7077C17.7854 45.7077 16.8382 46.1 16.1399 46.7984C15.4415 47.4967 15.0492 48.4438 15.0492 49.4314M18.7729 45.7077V49.4314M33.6679 45.7077H37.3916M37.3916 45.7077H41.1153M41.1153 45.7077H44.8391M41.1153 45.7077V47.5696C41.1153 48.0634 41.3115 48.537 41.6607 48.8861C42.0098 49.2353 42.4834 49.4314 42.9772 49.4314C43.471 49.4314 43.9446 49.2353 44.2937 48.8861C44.6429 48.537 44.8391 48.0634 44.8391 47.5696V45.7077M56.0103 45.7077H54.1484C53.6546 45.7077 53.181 45.5116 52.8318 45.1624C52.4827 44.8132 52.2865 44.3396 52.2865 43.8458C52.2865 43.3521 52.4827 42.8785 52.8318 42.5293C53.181 42.1801 53.6546 41.984 54.1484 41.984H56.0103M56.0103 45.7077V41.984M56.0103 45.7077H59.734M56.0103 45.7077C56.0103 46.6953 56.4026 47.6425 57.1009 48.3408C57.7992 49.0391 58.7464 49.4314 59.734 49.4314M56.0103 41.984C56.9978 41.984 57.945 42.3763 58.6433 43.0746C59.3417 43.773 59.734 44.7201 59.734 45.7077M59.734 45.7077V49.4314M59.734 45.7077H63.4577M67.1814 45.7077H63.4577M67.1814 45.7077H70.9052M67.1814 45.7077V49.4314M63.4577 45.7077V49.4314M70.9052 41.984V45.7077M70.9052 41.984H72.767C73.2608 41.984 73.7344 42.1801 74.0836 42.5293C74.4327 42.8785 74.6289 43.3521 74.6289 43.8458C74.6289 44.3396 74.4327 44.8132 74.0836 45.1624C73.7344 45.5116 73.2608 45.7077 72.767 45.7077H70.9052M70.9052 45.7077C70.9052 46.6953 70.5129 47.6425 69.8145 48.3408C69.1162 49.0391 68.169 49.4314 67.1814 49.4314M93.2476 45.7077H89.5238M93.2476 45.7077V47.5696C93.2476 48.0634 93.0514 48.537 92.7022 48.8861C92.3531 49.2353 91.8795 49.4314 91.3857 49.4314C90.8919 49.4314 90.4183 49.2353 90.0692 48.8861C89.72 48.537 89.5238 48.0634 89.5238 47.5696V45.7077M3.87803 49.4314H0.154297M3.87803 49.4314V53.1552M0.154297 49.4314V53.1552M15.0492 49.4314H18.7729M15.0492 49.4314C14.0616 49.4314 13.1145 49.8238 12.4161 50.5221C11.7178 51.2204 11.3255 52.1676 11.3255 53.1552M15.0492 49.4314V53.1552M18.7729 49.4314H22.4967M18.7729 49.4314V53.1552M59.734 49.4314H63.4577M59.734 49.4314V53.1552M63.4577 49.4314H67.1814M63.4577 49.4314V53.1552M82.0764 49.4314V47.5696C82.0764 47.0758 81.8802 46.6022 81.531 46.253C81.1819 45.9039 80.7083 45.7077 80.2145 45.7077C79.7207 45.7077 79.2471 45.9039 78.898 46.253C78.5488 46.6022 78.3526 47.0758 78.3526 47.5696V49.4314M82.0764 49.4314H78.3526M82.0764 49.4314V53.1552M82.0764 49.4314H83.9382C84.432 49.4314 84.9056 49.6276 85.2548 49.9768C85.6039 50.3259 85.8001 50.7995 85.8001 51.2933C85.8001 51.7871 85.6039 52.2607 85.2548 52.6098C84.9056 52.959 84.432 53.1552 83.9382 53.1552H82.0764M78.3526 49.4314V53.1552M78.3526 49.4314H76.4908C75.997 49.4314 75.5234 49.6276 75.1742 49.9768C74.8251 50.3259 74.6289 50.7995 74.6289 51.2933C74.6289 51.7871 74.8251 52.2607 75.1742 52.6098C75.5234 52.959 75.997 53.1552 76.4908 53.1552H78.3526M3.87803 53.1552H0.154297M3.87803 53.1552V56.8789M3.87803 53.1552H7.60176M0.154297 53.1552V56.8789M11.3255 53.1552H15.0492M11.3255 53.1552H7.60176M11.3255 53.1552V56.8789M15.0492 53.1552H18.7729M15.0492 53.1552V56.8789M18.7729 53.1552C18.7729 54.1428 18.3806 55.0899 17.6823 55.7882C16.984 56.4866 16.0368 56.8789 15.0492 56.8789M33.6679 53.1552V51.2933C33.6679 50.7995 33.4717 50.3259 33.1225 49.9768C32.7734 49.6276 32.2998 49.4314 31.806 49.4314C31.3122 49.4314 30.8386 49.6276 30.4895 49.9768C30.1403 50.3259 29.9441 50.7995 29.9441 51.2933V53.1552M33.6679 53.1552H29.9441M33.6679 53.1552V56.8789M29.9441 53.1552H26.2204M29.9441 53.1552V56.8789M48.5628 53.1552C48.5628 52.1676 48.9551 51.2204 49.6535 50.5221C50.3518 49.8238 51.2989 49.4314 52.2865 49.4314M48.5628 53.1552H52.2865M48.5628 53.1552C48.5628 54.1428 48.9551 55.0899 49.6535 55.7882C50.3518 56.4866 51.2989 56.8789 52.2865 56.8789M52.2865 49.4314V53.1552M52.2865 49.4314C53.2741 49.4314 54.2213 49.8238 54.9196 50.5221C55.6179 51.2204 56.0103 52.1676 56.0103 53.1552M52.2865 53.1552H56.0103M52.2865 53.1552V56.8789M56.0103 53.1552V56.8789M63.4577 53.1552H59.734M63.4577 53.1552V56.8789M63.4577 53.1552H65.3196C65.8134 53.1552 66.2869 53.3513 66.6361 53.7005C66.9853 54.0497 67.1814 54.5232 67.1814 55.017C67.1814 55.5108 66.9853 55.9844 66.6361 56.3336C66.2869 56.6827 65.8134 56.8789 65.3196 56.8789H63.4577M59.734 53.1552C59.734 54.1428 60.1263 55.0899 60.8246 55.7882C61.523 56.4866 62.4701 56.8789 63.4577 56.8789M78.3526 53.1552H82.0764M78.3526 53.1552V56.8789M82.0764 53.1552V56.8789M3.87803 56.8789H0.154297M3.87803 56.8789H7.60176M3.87803 56.8789V60.6026M0.154297 56.8789V60.6026M7.60176 53.1552V56.8789M7.60176 56.8789H11.3255M11.3255 56.8789H15.0492M11.3255 56.8789V58.7408C11.3255 59.2346 11.5216 59.7081 11.8708 60.0573C12.22 60.4065 12.6936 60.6026 13.1874 60.6026C13.6812 60.6026 14.1547 60.4065 14.5039 60.0573C14.8531 59.7081 15.0492 59.2346 15.0492 58.7408V56.8789M26.2204 56.8789H24.3585C23.8647 56.8789 23.3912 56.6827 23.042 56.3336C22.6928 55.9844 22.4967 55.5108 22.4967 55.017C22.4967 54.5232 22.6928 54.0497 23.042 53.7005C23.3912 53.3513 23.8647 53.1552 24.3585 53.1552H26.2204M26.2204 56.8789V53.1552M26.2204 56.8789H29.9441M29.9441 56.8789H33.6679M29.9441 56.8789V60.6026M33.6679 56.8789V60.6026M33.6679 56.8789H37.3916M41.1153 56.8789V55.017C41.1153 54.5232 40.9192 54.0497 40.57 53.7005C40.2208 53.3513 39.7473 53.1552 39.2535 53.1552C38.7597 53.1552 38.2861 53.3513 37.9369 53.7005C37.5878 54.0497 37.3916 54.5232 37.3916 55.017V56.8789M41.1153 56.8789H37.3916M41.1153 56.8789V60.6026M41.1153 56.8789H44.8391M37.3916 56.8789V60.6026M52.2865 56.8789H56.0103M52.2865 56.8789C52.2865 57.8665 52.6788 58.8136 53.3772 59.512C54.0755 60.2103 55.0227 60.6026 56.0103 60.6026M56.0103 56.8789V60.6026M56.0103 56.8789H57.8721C58.3659 56.8789 58.8395 57.0751 59.1887 57.4242C59.5378 57.7734 59.734 58.247 59.734 58.7408C59.734 59.2346 59.5378 59.7081 59.1887 60.0573C58.8395 60.4065 58.3659 60.6026 57.8721 60.6026H56.0103M74.6289 56.8789V55.017C74.6289 54.5232 74.4327 54.0497 74.0836 53.7005C73.7344 53.3513 73.2608 53.1552 72.767 53.1552C72.2732 53.1552 71.7997 53.3513 71.4505 53.7005C71.1013 54.0497 70.9052 54.5232 70.9052 55.017V56.8789M74.6289 56.8789H70.9052M74.6289 56.8789V60.6026M70.9052 56.8789V60.6026M82.0764 56.8789H78.3526M82.0764 56.8789V60.6026M82.0764 56.8789H85.8001M78.3526 56.8789V60.6026M85.8001 56.8789C85.8001 55.8913 86.1924 54.9442 86.8908 54.2458C87.5891 53.5475 88.5362 53.1552 89.5238 53.1552M85.8001 56.8789H89.5238M85.8001 56.8789V60.6026M89.5238 53.1552V56.8789M89.5238 53.1552C90.5114 53.1552 91.4586 53.5475 92.1569 54.2458C92.8552 54.9442 93.2476 55.8913 93.2476 56.8789M89.5238 56.8789H93.2476M89.5238 56.8789V60.6026M93.2476 56.8789C93.2476 57.8665 92.8552 58.8136 92.1569 59.512C91.4586 60.2103 90.5114 60.6026 89.5238 60.6026M3.87803 60.6026H0.154297M3.87803 60.6026V62.4645C3.87803 62.9583 3.68187 63.4319 3.3327 63.781C2.98353 64.1302 2.50996 64.3264 2.01616 64.3264C1.52236 64.3264 1.04879 64.1302 0.699625 63.781C0.350457 63.4319 0.154297 62.9583 0.154297 62.4645V60.6026M33.6679 60.6026H29.9441M33.6679 60.6026H37.3916M33.6679 60.6026V64.3264M29.9441 60.6026H26.2204M29.9441 60.6026V64.3264M37.3916 60.6026H41.1153M37.3916 60.6026C37.3916 61.5902 36.9993 62.5374 36.3009 63.2357C35.6026 63.934 34.6555 64.3264 33.6679 64.3264M41.1153 60.6026H44.8391M41.1153 60.6026C41.1153 61.5902 41.5077 62.5374 42.206 63.2357C42.9043 63.934 43.8515 64.3264 44.8391 64.3264M44.8391 56.8789V60.6026M44.8391 56.8789C45.8267 56.8789 46.7738 57.2712 47.4721 57.9696C48.1705 58.6679 48.5628 59.615 48.5628 60.6026M44.8391 60.6026H48.5628M44.8391 60.6026V64.3264M48.5628 60.6026V64.3264M48.5628 60.6026C49.5504 60.6026 50.4975 60.995 51.1959 61.6933C51.8942 62.3916 52.2865 63.3388 52.2865 64.3264M74.6289 60.6026H70.9052M74.6289 60.6026V64.3264M74.6289 60.6026H78.3526M70.9052 60.6026H67.1814M70.9052 60.6026V64.3264M82.0764 60.6026H78.3526M82.0764 60.6026H85.8001M82.0764 60.6026V64.3264M78.3526 60.6026V64.3264M85.8001 60.6026H89.5238M85.8001 60.6026C85.8001 61.5902 85.4078 62.5374 84.7094 63.2357C84.0111 63.934 83.064 64.3264 82.0764 64.3264M26.2204 64.3264H24.3585C23.8647 64.3264 23.3912 64.1302 23.042 63.781C22.6928 63.4319 22.4967 62.9583 22.4967 62.4645C22.4967 61.9707 22.6928 61.4971 23.042 61.148C23.3912 60.7988 23.8647 60.6026 24.3585 60.6026H26.2204M26.2204 64.3264V60.6026M26.2204 64.3264H29.9441M29.9441 64.3264H33.6679M29.9441 64.3264V68.0501M33.6679 64.3264V68.0501M44.8391 64.3264H48.5628M48.5628 64.3264H52.2865M48.5628 64.3264V66.1882C48.5628 66.682 48.759 67.1556 49.1081 67.5048C49.4573 67.8539 49.9309 68.0501 50.4247 68.0501C50.9185 68.0501 51.392 67.8539 51.7412 67.5048C52.0904 67.1556 52.2865 66.682 52.2865 66.1882V64.3264M59.734 64.3264C59.734 63.3388 60.1263 62.3916 60.8246 61.6933C61.523 60.995 62.4701 60.6026 63.4577 60.6026M59.734 64.3264H63.4577M59.734 64.3264V68.0501M63.4577 60.6026V64.3264M63.4577 60.6026H67.1814M63.4577 64.3264H67.1814M63.4577 64.3264V68.0501M67.1814 60.6026V64.3264M67.1814 64.3264H70.9052M70.9052 64.3264H74.6289M74.6289 64.3264H78.3526M74.6289 64.3264V68.0501M78.3526 64.3264H82.0764M78.3526 64.3264V68.0501M33.6679 68.0501H29.9441M33.6679 68.0501V71.7738M33.6679 68.0501H35.5297C36.0235 68.0501 36.4971 68.2463 36.8463 68.5954C37.1954 68.9446 37.3916 69.4182 37.3916 69.912C37.3916 70.4058 37.1954 70.8793 36.8463 71.2285C36.4971 71.5777 36.0235 71.7738 35.5297 71.7738H33.6679M29.9441 68.0501C29.9441 69.0377 30.3365 69.9848 31.0348 70.6832C31.7331 71.3815 32.6803 71.7738 33.6679 71.7738M63.4577 68.0501H59.734M63.4577 68.0501V71.7738M59.734 68.0501H56.0103M59.734 68.0501V71.7738M78.3526 68.0501H74.6289M78.3526 68.0501V71.7738M78.3526 68.0501H82.0764M74.6289 68.0501V71.7738M0.154297 71.7738C0.154297 70.7862 0.546617 69.8391 1.24495 69.1408C1.94329 68.4424 2.89043 68.0501 3.87803 68.0501M0.154297 71.7738H3.87803M0.154297 71.7738V75.4976M3.87803 68.0501V71.7738M3.87803 68.0501H7.60176M3.87803 71.7738H7.60176M3.87803 71.7738V75.4976M7.60176 68.0501V71.7738M7.60176 68.0501H11.3255M7.60176 71.7738H11.3255M11.3255 68.0501V71.7738M11.3255 68.0501H15.0492M11.3255 71.7738H15.0492M15.0492 68.0501V71.7738M15.0492 68.0501H18.7729M15.0492 71.7738H18.7729M18.7729 68.0501V71.7738M18.7729 68.0501H22.4967M18.7729 71.7738H22.4967M22.4967 68.0501V71.7738M22.4967 68.0501C23.4843 68.0501 24.4314 68.4424 25.1298 69.1408C25.8281 69.8391 26.2204 70.7862 26.2204 71.7738M22.4967 71.7738H26.2204M22.4967 71.7738V75.4976M26.2204 71.7738V75.4976M44.8391 71.7738H42.9772C42.4834 71.7738 42.0098 71.5777 41.6607 71.2285C41.3115 70.8793 41.1153 70.4058 41.1153 69.912C41.1153 69.4182 41.3115 68.9446 41.6607 68.5954C42.0098 68.2463 42.4834 68.0501 42.9772 68.0501H44.8391M44.8391 71.7738V68.0501M44.8391 71.7738H48.5628M44.8391 71.7738V73.6357C44.8391 74.1295 45.0352 74.6031 45.3844 74.9522C45.7336 75.3014 46.2071 75.4976 46.7009 75.4976C47.1947 75.4976 47.6683 75.3014 48.0175 74.9522C48.3666 74.6031 48.5628 74.1295 48.5628 73.6357V71.7738M44.8391 68.0501C45.8267 68.0501 46.7738 68.4424 47.4721 69.1408C48.1705 69.8391 48.5628 70.7862 48.5628 71.7738M56.0103 71.7738H54.1484C53.6546 71.7738 53.181 71.5777 52.8318 71.2285C52.4827 70.8793 52.2865 70.4058 52.2865 69.912C52.2865 69.4182 52.4827 68.9446 52.8318 68.5954C53.181 68.2463 53.6546 68.0501 54.1484 68.0501H56.0103M56.0103 71.7738V68.0501M56.0103 71.7738H59.734M59.734 71.7738H63.4577M59.734 71.7738V75.4976M63.4577 71.7738V75.4976M78.3526 71.7738H74.6289M78.3526 71.7738H82.0764M78.3526 71.7738V75.4976M74.6289 71.7738V75.4976M82.0764 68.0501V71.7738M82.0764 68.0501H83.9382C84.432 68.0501 84.9056 68.2463 85.2548 68.5954C85.6039 68.9446 85.8001 69.4182 85.8001 69.912C85.8001 70.4058 85.6039 70.8793 85.2548 71.2285C84.9056 71.5777 84.432 71.7738 83.9382 71.7738H82.0764M82.0764 71.7738V75.4976M93.2476 71.7738V69.912C93.2476 69.4182 93.0514 68.9446 92.7022 68.5954C92.3531 68.2463 91.8795 68.0501 91.3857 68.0501C90.8919 68.0501 90.4183 68.2463 90.0692 68.5954C89.72 68.9446 89.5238 69.4182 89.5238 69.912V71.7738M93.2476 71.7738H89.5238M93.2476 71.7738C93.2476 72.7614 92.8552 73.7086 92.1569 74.4069C91.4586 75.1052 90.5114 75.4976 89.5238 75.4976M89.5238 71.7738C88.5362 71.7738 87.5891 72.1662 86.8908 72.8645C86.1924 73.5628 85.8001 74.51 85.8001 75.4976M89.5238 71.7738V75.4976M3.87803 75.4976H0.154297M3.87803 75.4976V79.2213M0.154297 75.4976V79.2213M26.2204 75.4976H22.4967M26.2204 75.4976V79.2213M22.4967 75.4976V79.2213M41.1153 75.4976V73.6357C41.1153 73.1419 40.9192 72.6683 40.57 72.3192C40.2208 71.97 39.7473 71.7738 39.2535 71.7738C38.7597 71.7738 38.2861 71.97 37.9369 72.3192C37.5878 72.6683 37.3916 73.1419 37.3916 73.6357V75.4976M41.1153 75.4976H37.3916M41.1153 75.4976C41.1153 76.4852 40.723 77.4323 40.0247 78.1306C39.3263 78.829 38.3792 79.2213 37.3916 79.2213M37.3916 75.4976H33.6679M37.3916 75.4976V79.2213M63.4577 75.4976H59.734M63.4577 75.4976V79.2213M63.4577 75.4976H67.1814M59.734 75.4976V79.2213M59.734 75.4976H57.8721C57.3783 75.4976 56.9047 75.6937 56.5556 76.0429C56.2064 76.3921 56.0103 76.8656 56.0103 77.3594C56.0103 77.8532 56.2064 78.3268 56.5556 78.676C56.9047 79.0251 57.3783 79.2213 57.8721 79.2213H59.734M78.3526 75.4976H74.6289M78.3526 75.4976H82.0764M78.3526 75.4976V79.2213M74.6289 75.4976H70.9052M74.6289 75.4976V79.2213M82.0764 75.4976V79.2213M85.8001 75.4976H89.5238M85.8001 75.4976V77.3594C85.8001 77.8532 85.9963 78.3268 86.3454 78.676C86.6946 79.0251 87.1682 79.2213 87.662 79.2213C88.1558 79.2213 88.6293 79.0251 88.9785 78.676C89.3277 78.3268 89.5238 77.8532 89.5238 77.3594V75.4976M3.87803 79.2213H0.154297M3.87803 79.2213V82.945M0.154297 79.2213V82.945M7.60176 79.2213C7.60176 78.2337 7.99408 77.2866 8.69241 76.5882C9.39075 75.8899 10.3379 75.4976 11.3255 75.4976M7.60176 79.2213H11.3255M7.60176 79.2213V82.945M11.3255 75.4976V79.2213M11.3255 75.4976H15.0492M11.3255 79.2213H15.0492M11.3255 79.2213V82.945M15.0492 75.4976V79.2213M15.0492 75.4976C16.0368 75.4976 16.984 75.8899 17.6823 76.5882C18.3806 77.2866 18.7729 78.2337 18.7729 79.2213M15.0492 79.2213H18.7729M15.0492 79.2213V82.945M18.7729 79.2213V82.945M26.2204 79.2213H22.4967M26.2204 79.2213V82.945M22.4967 79.2213V82.945M29.9441 79.2213C29.9441 78.2337 30.3365 77.2866 31.0348 76.5882C31.7331 75.8899 32.6803 75.4976 33.6679 75.4976M29.9441 79.2213H33.6679M29.9441 79.2213V81.0832C29.9441 81.577 30.1403 82.0505 30.4895 82.3997C30.8386 82.7489 31.3122 82.945 31.806 82.945C32.2998 82.945 32.7734 82.7489 33.1225 82.3997C33.4717 82.0505 33.6679 81.577 33.6679 81.0832V79.2213M33.6679 75.4976V79.2213M33.6679 79.2213H37.3916M59.734 79.2213H63.4577M63.4577 79.2213H67.1814M63.4577 79.2213C63.4577 80.2089 63.85 81.156 64.5484 81.8544C65.2467 82.5527 66.1938 82.945 67.1814 82.945M67.1814 75.4976V79.2213M67.1814 75.4976H70.9052M67.1814 79.2213H70.9052M67.1814 79.2213V82.945M70.9052 75.4976V79.2213M70.9052 79.2213H74.6289M70.9052 79.2213C70.9052 80.2089 70.5129 81.156 69.8145 81.8544C69.1162 82.5527 68.169 82.945 67.1814 82.945M74.6289 79.2213H78.3526M78.3526 79.2213H82.0764M78.3526 79.2213C78.3526 80.2089 78.745 81.156 79.4433 81.8544C80.1416 82.5527 81.0888 82.945 82.0764 82.945M82.0764 79.2213V82.945M82.0764 79.2213H83.9382C84.432 79.2213 84.9056 79.4175 85.2548 79.7666C85.6039 80.1158 85.8001 80.5894 85.8001 81.0832C85.8001 81.577 85.6039 82.0505 85.2548 82.3997C84.9056 82.7489 84.432 82.945 83.9382 82.945H82.0764M3.87803 82.945H0.154297M3.87803 82.945V86.6687M0.154297 82.945V86.6687M11.3255 82.945H7.60176M11.3255 82.945H15.0492M11.3255 82.945V86.6687M7.60176 82.945C7.60176 83.9326 7.99408 84.8798 8.69241 85.5781C9.39075 86.2764 10.3379 86.6687 11.3255 86.6687M15.0492 82.945H18.7729M15.0492 82.945V86.6687M18.7729 82.945C18.7729 83.9326 18.3806 84.8798 17.6823 85.5781C16.984 86.2764 16.0368 86.6687 15.0492 86.6687M26.2204 82.945H22.4967M26.2204 82.945V86.6687M22.4967 82.945V86.6687M48.5628 82.945V81.0832C48.5628 80.5894 48.3666 80.1158 48.0175 79.7666C47.6683 79.4175 47.1947 79.2213 46.7009 79.2213C46.2071 79.2213 45.7336 79.4175 45.3844 79.7666C45.0352 80.1158 44.8391 80.5894 44.8391 81.0832V82.945M48.5628 82.945H44.8391M48.5628 82.945V86.6687M48.5628 82.945H52.2865M44.8391 82.945H41.1153M44.8391 82.945V86.6687M56.0103 82.945V81.0832C56.0103 80.5894 55.8141 80.1158 55.4649 79.7666C55.1158 79.4175 54.6422 79.2213 54.1484 79.2213C53.6546 79.2213 53.181 79.4175 52.8318 79.7666C52.4827 80.1158 52.2865 80.5894 52.2865 81.0832V82.945M56.0103 82.945H52.2865M56.0103 82.945V86.6687M52.2865 82.945V86.6687M93.2476 82.945V81.0832C93.2476 80.5894 93.0514 80.1158 92.7022 79.7666C92.3531 79.4175 91.8795 79.2213 91.3857 79.2213C90.8919 79.2213 90.4183 79.4175 90.0692 79.7666C89.72 80.1158 89.5238 80.5894 89.5238 81.0832V82.945M93.2476 82.945H89.5238M93.2476 82.945V86.6687M89.5238 82.945C88.5362 82.945 87.5891 83.3373 86.8908 84.0357C86.1924 84.734 85.8001 85.6812 85.8001 86.6687M89.5238 82.945V86.6687M3.87803 86.6687H0.154297M3.87803 86.6687V90.3925M0.154297 86.6687V90.3925M11.3255 86.6687H15.0492M26.2204 86.6687H22.4967M26.2204 86.6687V90.3925M22.4967 86.6687V90.3925M41.1153 86.6687H39.2535C38.7597 86.6687 38.2861 86.4726 37.9369 86.1234C37.5878 85.7743 37.3916 85.3007 37.3916 84.8069C37.3916 84.3131 37.5878 83.8395 37.9369 83.4903C38.2861 83.1412 38.7597 82.945 39.2535 82.945H41.1153M41.1153 86.6687V82.945M41.1153 86.6687H44.8391M44.8391 86.6687H48.5628M44.8391 86.6687V90.3925M48.5628 86.6687H52.2865M48.5628 86.6687V90.3925M52.2865 86.6687H56.0103M52.2865 86.6687V90.3925M56.0103 86.6687V90.3925M70.9052 86.6687C70.9052 85.6812 71.2975 84.734 71.9958 84.0357C72.6942 83.3373 73.6413 82.945 74.6289 82.945M70.9052 86.6687H74.6289M70.9052 86.6687V90.3925M70.9052 86.6687H69.0433C68.5495 86.6687 68.0759 86.8649 67.7268 87.2141C67.3776 87.5632 67.1814 88.0368 67.1814 88.5306C67.1814 89.0244 67.3776 89.498 67.7268 89.8472C68.0759 90.1963 68.5495 90.3925 69.0433 90.3925H70.9052M74.6289 82.945V86.6687M74.6289 82.945H76.4908C76.9846 82.945 77.4581 83.1412 77.8073 83.4903C78.1565 83.8395 78.3526 84.3131 78.3526 84.8069C78.3526 85.3007 78.1565 85.7743 77.8073 86.1234C77.4581 86.4726 76.9846 86.6687 76.4908 86.6687H74.6289M74.6289 86.6687V90.3925M85.8001 86.6687H89.5238M85.8001 86.6687H82.0764M85.8001 86.6687V90.3925M89.5238 86.6687H93.2476M89.5238 86.6687V90.3925M93.2476 86.6687V90.3925M3.87803 90.3925H0.154297M3.87803 90.3925V94.1162M3.87803 90.3925H7.60176M0.154297 90.3925C0.154297 91.3801 0.546617 92.3272 1.24495 93.0256C1.94329 93.7239 2.89043 94.1162 3.87803 94.1162M26.2204 90.3925H22.4967M26.2204 90.3925C26.2204 91.3801 25.8281 92.3272 25.1298 93.0256C24.4314 93.7239 23.4843 94.1162 22.4967 94.1162M22.4967 90.3925H18.7729M22.4967 90.3925V94.1162M48.5628 90.3925H44.8391M48.5628 90.3925V94.1162M48.5628 90.3925H52.2865M44.8391 90.3925V94.1162M44.8391 90.3925H42.9772C42.4834 90.3925 42.0098 90.5886 41.6607 90.9378C41.3115 91.287 41.1153 91.7605 41.1153 92.2543C41.1153 92.7481 41.3115 93.2217 41.6607 93.5709C42.0098 93.92 42.4834 94.1162 42.9772 94.1162H44.8391M56.0103 90.3925H52.2865M56.0103 90.3925C56.0103 91.3801 55.6179 92.3272 54.9196 93.0256C54.2213 93.7239 53.2741 94.1162 52.2865 94.1162M52.2865 90.3925V94.1162M70.9052 90.3925H74.6289M70.9052 90.3925C70.9052 91.3801 71.2975 92.3272 71.9958 93.0256C72.6942 93.7239 73.6413 94.1162 74.6289 94.1162M74.6289 90.3925V94.1162M74.6289 90.3925H78.3526M78.3526 90.3925C78.3526 89.4049 78.745 88.4577 79.4433 87.7594C80.1416 87.0611 81.0888 86.6687 82.0764 86.6687M78.3526 90.3925H82.0764M78.3526 90.3925V94.1162M82.0764 86.6687V90.3925M82.0764 90.3925H85.8001M82.0764 90.3925C82.0764 91.3801 81.684 92.3272 80.9857 93.0256C80.2874 93.7239 79.3402 94.1162 78.3526 94.1162M85.8001 90.3925H89.5238M89.5238 90.3925H93.2476M89.5238 90.3925V92.2543C89.5238 92.7481 89.72 93.2217 90.0692 93.5709C90.4183 93.92 90.8919 94.1162 91.3857 94.1162C91.8795 94.1162 92.3531 93.92 92.7022 93.5709C93.0514 93.2217 93.2476 92.7481 93.2476 92.2543V90.3925M3.87803 94.1162H7.60176M7.60176 90.3925V94.1162M7.60176 90.3925H11.3255M7.60176 94.1162H11.3255M11.3255 90.3925V94.1162M11.3255 90.3925H15.0492M11.3255 94.1162H15.0492M15.0492 90.3925V94.1162M15.0492 90.3925H18.7729M15.0492 94.1162H18.7729M18.7729 90.3925V94.1162M18.7729 94.1162H22.4967M44.8391 94.1162H48.5628M48.5628 94.1162H52.2865M63.4577 94.1162H61.5958C61.102 94.1162 60.6285 93.92 60.2793 93.5709C59.9301 93.2217 59.734 92.7481 59.734 92.2543C59.734 91.7605 59.9301 91.287 60.2793 90.9378C60.6285 90.5886 61.102 90.3925 61.5958 90.3925H63.4577M63.4577 94.1162V90.3925M63.4577 94.1162H65.3196C65.8134 94.1162 66.2869 93.92 66.6361 93.5709C66.9853 93.2217 67.1814 92.7481 67.1814 92.2543C67.1814 91.7605 66.9853 91.287 66.6361 90.9378C66.2869 90.5886 65.8134 90.3925 65.3196 90.3925H63.4577M74.6289 94.1162H78.3526M61.5958 4.74668C62.0896 4.74668 62.5632 4.94284 62.9124 5.29201C63.2616 5.64117 63.4577 6.11475 63.4577 6.60855C63.4577 7.10234 63.2616 7.57592 62.9124 7.92508C62.5632 8.27425 62.0896 8.47041 61.5958 8.47041C61.102 8.47041 60.6285 8.27425 60.2793 7.92508C59.9301 7.57592 59.734 7.10234 59.734 6.60855C59.734 6.11475 59.9301 5.64117 60.2793 5.29201C60.6285 4.94284 61.102 4.74668 61.5958 4.74668ZM31.806 23.3653C32.2998 23.3653 32.7734 23.5615 33.1225 23.9107C33.4717 24.2598 33.6679 24.7334 33.6679 25.2272C33.6679 25.721 33.4717 26.1946 33.1225 26.5437C32.7734 26.8929 32.2998 27.0891 31.806 27.0891C31.3122 27.0891 30.8386 26.8929 30.4895 26.5437C30.1403 26.1946 29.9441 25.721 29.9441 25.2272C29.9441 24.7334 30.1403 24.2598 30.4895 23.9107C30.8386 23.5615 31.3122 23.3653 31.806 23.3653ZM39.2535 23.3653C39.7473 23.3653 40.2208 23.5615 40.57 23.9107C40.9192 24.2598 41.1153 24.7334 41.1153 25.2272C41.1153 25.721 40.9192 26.1946 40.57 26.5437C40.2208 26.8929 39.7473 27.0891 39.2535 27.0891C38.7597 27.0891 38.2861 26.8929 37.9369 26.5437C37.5878 26.1946 37.3916 25.721 37.3916 25.2272C37.3916 24.7334 37.5878 24.2598 37.9369 23.9107C38.2861 23.5615 38.7597 23.3653 39.2535 23.3653ZM46.7009 23.3653C47.1947 23.3653 47.6683 23.5615 48.0175 23.9107C48.3666 24.2598 48.5628 24.7334 48.5628 25.2272C48.5628 25.721 48.3666 26.1946 48.0175 26.5437C47.6683 26.8929 47.1947 27.0891 46.7009 27.0891C46.2071 27.0891 45.7336 26.8929 45.3844 26.5437C45.0352 26.1946 44.8391 25.721 44.8391 25.2272C44.8391 24.7334 45.0352 24.2598 45.3844 23.9107C45.7336 23.5615 46.2071 23.3653 46.7009 23.3653ZM20.6348 34.5365C21.1286 34.5365 21.6022 34.7327 21.9514 35.0819C22.3005 35.431 22.4967 35.9046 22.4967 36.3984C22.4967 36.8922 22.3005 37.3658 21.9514 37.7149C21.6022 38.0641 21.1286 38.2603 20.6348 38.2603C20.141 38.2603 19.6674 38.0641 19.3183 37.7149C18.9691 37.3658 18.7729 36.8922 18.7729 36.3984C18.7729 35.9046 18.9691 35.431 19.3183 35.0819C19.6674 34.7327 20.141 34.5365 20.6348 34.5365ZM16.9111 38.2603C17.4049 38.2603 17.8785 38.4564 18.2276 38.8056C18.5768 39.1548 18.7729 39.6283 18.7729 40.1221C18.7729 40.6159 18.5768 41.0895 18.2276 41.4387C17.8785 41.7878 17.4049 41.984 16.9111 41.984C16.4173 41.984 15.9437 41.7878 15.5945 41.4387C15.2454 41.0895 15.0492 40.6159 15.0492 40.1221C15.0492 39.6283 15.2454 39.1548 15.5945 38.8056C15.9437 38.4564 16.4173 38.2603 16.9111 38.2603ZM24.3585 38.2603C24.8523 38.2603 25.3259 38.4564 25.6751 38.8056C26.0243 39.1548 26.2204 39.6283 26.2204 40.1221C26.2204 40.6159 26.0243 41.0895 25.6751 41.4387C25.3259 41.7878 24.8523 41.984 24.3585 41.984C23.8647 41.984 23.3912 41.7878 23.042 41.4387C22.6928 41.0895 22.4967 40.6159 22.4967 40.1221C22.4967 39.6283 22.6928 39.1548 23.042 38.8056C23.3912 38.4564 23.8647 38.2603 24.3585 38.2603ZM20.6348 56.8789C21.1286 56.8789 21.6022 57.0751 21.9514 57.4242C22.3005 57.7734 22.4967 58.247 22.4967 58.7408C22.4967 59.2346 22.3005 59.7081 21.9514 60.0573C21.6022 60.4065 21.1286 60.6026 20.6348 60.6026C20.141 60.6026 19.6674 60.4065 19.3183 60.0573C18.9691 59.7081 18.7729 59.2346 18.7729 58.7408C18.7729 58.247 18.9691 57.7734 19.3183 57.4242C19.6674 57.0751 20.141 56.8789 20.6348 56.8789ZM9.46362 60.6026C9.95742 60.6026 10.431 60.7988 10.7802 61.148C11.1293 61.4971 11.3255 61.9707 11.3255 62.4645C11.3255 62.9583 11.1293 63.4319 10.7802 63.781C10.431 64.1302 9.95742 64.3264 9.46362 64.3264C8.96983 64.3264 8.49625 64.1302 8.14709 63.781C7.79792 63.4319 7.60176 62.9583 7.60176 62.4645C7.60176 61.9707 7.79792 61.4971 8.14709 61.148C8.49625 60.7988 8.96983 60.6026 9.46362 60.6026ZM39.2535 64.3264C39.7473 64.3264 40.2208 64.5225 40.57 64.8717C40.9192 65.2209 41.1153 65.6944 41.1153 66.1882C41.1153 66.682 40.9192 67.1556 40.57 67.5048C40.2208 67.8539 39.7473 68.0501 39.2535 68.0501C38.7597 68.0501 38.2861 67.8539 37.9369 67.5048C37.5878 67.1556 37.3916 66.682 37.3916 66.1882C37.3916 65.6944 37.5878 65.2209 37.9369 64.8717C38.2861 64.5225 38.7597 64.3264 39.2535 64.3264ZM87.662 64.3264C88.1558 64.3264 88.6293 64.5225 88.9785 64.8717C89.3277 65.2209 89.5238 65.6944 89.5238 66.1882C89.5238 66.682 89.3277 67.1556 88.9785 67.5048C88.6293 67.8539 88.1558 68.0501 87.662 68.0501C87.1682 68.0501 86.6946 67.8539 86.3454 67.5048C85.9963 67.1556 85.8001 66.682 85.8001 66.1882C85.8001 65.6944 85.9963 65.2209 86.3454 64.8717C86.6946 64.5225 87.1682 64.3264 87.662 64.3264ZM69.0433 68.0501C69.5371 68.0501 70.0107 68.2463 70.3599 68.5954C70.709 68.9446 70.9052 69.4182 70.9052 69.912C70.9052 70.4058 70.709 70.8793 70.3599 71.2285C70.0107 71.5777 69.5371 71.7738 69.0433 71.7738C68.5495 71.7738 68.0759 71.5777 67.7268 71.2285C67.3776 70.8793 67.1814 70.4058 67.1814 69.912C67.1814 69.4182 67.3776 68.9446 67.7268 68.5954C68.0759 68.2463 68.5495 68.0501 69.0433 68.0501ZM61.5958 82.945C62.0896 82.945 62.5632 83.1412 62.9124 83.4903C63.2616 83.8395 63.4577 84.3131 63.4577 84.8069C63.4577 85.3007 63.2616 85.7743 62.9124 86.1234C62.5632 86.4726 62.0896 86.6687 61.5958 86.6687C61.102 86.6687 60.6285 86.4726 60.2793 86.1234C59.9301 85.7743 59.734 85.3007 59.734 84.8069C59.734 84.3131 59.9301 83.8395 60.2793 83.4903C60.6285 83.1412 61.102 82.945 61.5958 82.945ZM35.5297 86.6687C36.0235 86.6687 36.4971 86.8649 36.8463 87.2141C37.1954 87.5632 37.3916 88.0368 37.3916 88.5306C37.3916 89.0244 37.1954 89.498 36.8463 89.8472C36.4971 90.1963 36.0235 90.3925 35.5297 90.3925C35.0359 90.3925 34.5624 90.1963 34.2132 89.8472C33.864 89.498 33.6679 89.0244 33.6679 88.5306C33.6679 88.0368 33.864 87.5632 34.2132 87.2141C34.5624 86.8649 35.0359 86.6687 35.5297 86.6687Z" stroke="black" stroke-width="0.215976"/>
</g>
</svg>
