<svg width="7" height="8" viewBox="0 0 7 8" fill="none" xmlns="http://www.w3.org/2000/svg">
<g id="star 1" clip-path="url(#clip0_851_10554)">
<path id="Vector" d="M3.26768 2.23321L3.6448 2.99833C3.69562 3.10414 3.83203 3.20453 3.94703 3.22624L4.62906 3.34019C5.06502 3.41345 5.16666 3.7336 4.85373 4.05376L4.32148 4.59368C4.23322 4.68322 4.1824 4.85957 4.21182 4.98709L4.36427 5.65454C4.48463 6.18089 4.20647 6.38709 3.74911 6.11035L3.10988 5.72508C2.99487 5.65454 2.8023 5.65454 2.68729 5.72508L2.04805 6.11035C1.5907 6.38438 1.31254 6.18089 1.4329 5.65454L1.58535 4.98709C1.61477 4.86229 1.56396 4.68593 1.47569 4.59368L0.943447 4.05376C0.630516 3.73632 0.732152 3.41616 1.16811 3.34019L1.85013 3.22624C1.96514 3.20725 2.10155 3.10414 2.15236 2.99833L2.52949 2.23321C2.73008 1.8181 3.06173 1.8181 3.26768 2.23321Z" fill="#E9D83F"/>
</g>
<defs>
<clipPath id="clip0_851_10554">
<rect width="6.41909" height="6.51164" fill="white" transform="translate(0.0136719 0.836914)"/>
</clipPath>
</defs>
</svg>
