<svg width="691" height="606" viewBox="0 0 691 606" fill="none" xmlns="http://www.w3.org/2000/svg">
<path d="M684.991 166.553C684.991 166.553 641.099 313.171 540.736 262.15C472.844 227.64 435.177 184.019 389.694 183.994C351.469 183.972 314.348 231.453 302.247 260.941C285.373 302.053 297.044 368.513 276.75 408.163C234.334 491.051 58.9187 445.515 38.9575 320.837" stroke="white" stroke-opacity="0.54" stroke-width="0.0888754" stroke-miterlimit="10"/>
<path d="M683.978 165.617C683.978 165.617 640.471 310.03 541.62 262.155C474.858 229.82 437.217 188.21 391.681 188.288C383.05 188.297 374.469 190.675 366.211 194.676C361.012 197.19 355.947 200.334 351.085 203.924C329.682 219.71 312.124 244.413 304.179 262.257C286.52 301.777 296.607 365.995 275.9 404.627C232.915 485.306 61.6494 442.846 41.25 325.992" stroke="white" stroke-opacity="0.54" stroke-width="0.0888754" stroke-miterlimit="10"/>
<path d="M682.939 164.685C682.939 164.685 639.833 306.894 542.475 262.159C476.846 232.001 439.231 192.402 393.636 192.578C385.077 192.602 376.558 194.903 368.348 198.758C363.174 201.181 358.13 204.193 353.283 207.625C331.949 222.712 314.357 246.439 306.076 263.564C287.63 301.49 296.04 363.419 275.013 401.077C231.259 479.435 64.3415 440.168 43.5086 331.133" stroke="white" stroke-opacity="0.54" stroke-width="0.0888754" stroke-miterlimit="10"/>
<path d="M681.906 163.754C681.906 163.754 639.21 303.761 543.341 262.165C478.853 234.181 441.252 196.591 395.604 196.875C387.113 196.912 378.66 199.137 370.495 202.845C365.347 205.174 360.322 208.058 355.495 211.332C334.226 225.72 316.599 248.47 307.99 264.882C288.756 301.211 295.544 360.876 274.14 397.542C229.726 473.631 67.0461 437.499 45.7798 336.284" stroke="white" stroke-opacity="0.54" stroke-width="0.0888754" stroke-miterlimit="10"/>
<path d="M680.867 162.818C680.867 162.818 638.59 300.624 544.2 262.165C480.857 236.357 443.263 200.777 397.562 201.16C389.141 201.211 380.749 203.359 372.636 206.923C367.509 209.161 362.509 211.913 357.697 215.029C336.496 228.722 318.872 250.517 309.893 266.189C289.962 300.977 295.042 358.32 273.262 393.997C228.194 467.818 69.7487 434.821 48.0443 341.429" stroke="white" stroke-opacity="0.54" stroke-width="0.0888754" stroke-miterlimit="10"/>
<path d="M679.834 161.885C679.834 161.885 637.995 297.487 545.062 262.168C482.881 238.536 445.284 204.967 399.528 205.454C391.178 205.519 382.848 207.59 374.779 211.007C369.678 213.154 364.698 215.774 359.906 218.734C338.774 231.727 321.122 252.551 311.804 267.504C291.104 300.715 294.546 355.775 272.387 390.455C226.671 462.006 72.4545 432.15 50.3177 346.573" stroke="white" stroke-opacity="0.54" stroke-width="0.0888754" stroke-miterlimit="10"/>
<path d="M678.802 160.952C678.802 160.952 637.409 294.349 545.929 262.171C484.915 240.709 447.307 209.154 401.494 209.743C393.213 209.822 384.949 211.816 376.926 215.084C371.849 217.14 366.89 219.627 362.114 222.429C341.047 234.723 323.369 254.58 313.71 268.808C292.241 300.444 294.051 353.217 271.511 386.907C225.158 456.187 75.1555 429.469 52.5843 351.716" stroke="white" stroke-opacity="0.54" stroke-width="0.0888754" stroke-miterlimit="10"/>
<path d="M677.77 160.016C677.77 160.016 636.84 291.204 546.791 262.171C486.953 242.88 449.325 213.341 403.46 214.033C395.248 214.126 387.049 216.041 379.074 219.167C374.019 221.131 369.084 223.487 364.327 226.132C343.329 237.727 325.619 256.612 315.625 270.121C293.38 300.179 293.569 350.665 270.64 383.367C223.654 450.377 77.8661 426.796 54.8568 356.865" stroke="white" stroke-opacity="0.54" stroke-width="0.0888754" stroke-miterlimit="10"/>
<path d="M676.75 159.083C676.75 159.083 636.3 288.057 547.67 262.174C489.017 245.044 451.361 217.526 405.439 218.322C397.299 218.429 389.159 220.265 381.231 223.246C376.201 225.12 371.283 227.346 366.546 229.83C345.617 240.727 327.878 258.644 317.545 271.43C294.527 299.914 293.096 348.113 269.775 379.822C222.165 444.56 80.5818 424.122 57.1402 362.007" stroke="white" stroke-opacity="0.54" stroke-width="0.0888754" stroke-miterlimit="10"/>
<path d="M675.718 158.146C675.718 158.146 635.762 284.903 548.533 262.172C491.075 247.199 453.38 221.809 407.405 222.61C399.332 222.752 391.259 224.492 383.38 227.327C378.372 229.105 373.477 231.204 368.759 233.531C347.896 243.728 330.124 260.677 319.457 272.74C295.658 299.649 292.619 345.56 268.906 376.276C220.684 438.745 83.2909 421.442 59.415 367.15" stroke="white" stroke-opacity="0.54" stroke-width="0.0888754" stroke-miterlimit="10"/>
<path d="M674.674 157.213C674.674 157.213 635.23 281.74 549.388 262.175C493.139 249.353 455.393 226.006 409.361 226.899C401.361 227.054 393.352 228.734 385.514 231.406C380.534 233.102 375.657 235.06 370.956 237.226C350.161 246.727 332.356 262.708 321.356 274.045C296.779 299.383 292.132 343.006 268.023 372.732C219.195 432.933 85.9892 418.765 61.6764 372.291" stroke="white" stroke-opacity="0.54" stroke-width="0.0888754" stroke-miterlimit="10"/>
<path d="M673.639 156.28C673.639 156.28 634.722 278.568 550.248 262.176C495.218 251.496 457.408 230.198 411.325 231.19C403.393 231.359 395.45 232.963 387.657 235.488C382.701 237.094 377.846 238.919 373.164 240.928C352.438 249.73 334.597 264.742 323.266 275.358C297.902 299.114 291.658 340.452 267.145 369.186C217.72 427.122 88.6937 416.086 63.9467 377.435" stroke="white" stroke-opacity="0.54" stroke-width="0.0888754" stroke-miterlimit="10"/>
<path d="M672.625 155.342C672.625 155.342 634.256 275.377 551.134 262.173C497.331 253.625 459.454 234.382 413.313 235.472C405.454 235.656 397.572 237.183 389.827 239.563C384.897 241.078 380.067 242.78 375.396 244.621C354.753 252.765 336.861 266.767 325.197 276.66C299.047 298.844 291.215 337.895 266.295 365.632C216.284 421.305 91.422 413.401 66.242 382.569" stroke="white" stroke-opacity="0.54" stroke-width="0.0888754" stroke-miterlimit="10"/>
<path d="M671.578 154.406C671.578 154.406 633.772 272.175 551.983 262.17C499.422 255.742 461.459 238.57 415.267 239.76C407.475 239.962 399.656 241.407 391.96 243.642C387.051 245.065 382.245 246.64 377.594 248.32C357.019 255.769 339.088 268.797 327.097 277.969C300.156 298.575 290.742 335.344 265.411 362.087C214.825 415.5 94.1249 410.723 68.5082 387.709" stroke="white" stroke-opacity="0.54" stroke-width="0.0888754" stroke-miterlimit="10"/>
<path d="M670.554 153.47C670.554 153.47 633.33 268.948 552.859 262.171C501.547 257.847 463.494 242.761 417.245 244.046C409.526 244.262 401.769 245.63 394.121 247.719C389.237 249.052 384.448 250.494 379.817 252.017C359.31 258.77 341.34 270.824 329.023 279.276C301.286 298.302 290.302 332.792 264.556 358.54C213.399 409.697 96.851 408.041 70.8005 392.849" stroke="white" stroke-opacity="0.54" stroke-width="0.0888754" stroke-miterlimit="10"/>
<path d="M669.518 152.528C669.518 152.528 632.89 265.693 553.72 262.16C503.671 259.928 465.514 246.937 419.215 248.321C411.564 248.551 403.872 249.843 396.27 251.786C391.411 253.027 386.643 254.337 382.031 255.703C361.59 261.756 343.584 272.841 330.94 280.572C302.41 298.015 289.858 330.234 263.692 354.977C211.977 403.886 99.571 405.347 73.0853 397.968" stroke="white" stroke-opacity="0.54" stroke-width="0.0888754" stroke-miterlimit="10"/>
<path d="M668.482 151.589C668.482 151.589 632.462 262.412 554.587 262.152C505.806 261.989 467.539 251.114 421.185 252.601C413.603 252.845 405.977 254.061 398.419 255.857C393.583 257.007 388.838 258.185 384.243 259.393C363.867 264.751 345.823 274.857 332.852 281.872C303.52 297.729 289.411 327.681 262.821 351.421C210.556 398.088 102.283 402.654 75.364 403.097" stroke="white" stroke-opacity="0.54" stroke-width="0.0888754" stroke-miterlimit="10"/>
<path d="M667.469 150.652C667.469 150.652 632.07 259.103 555.476 262.146C507.971 264.029 469.588 255.29 423.184 256.88C415.674 257.139 408.106 258.276 400.601 259.928C395.789 260.988 391.066 262.033 386.49 263.085C366.184 267.743 348.097 276.875 334.804 283.169C304.672 297.438 289.012 325.132 261.994 347.866C209.19 392.296 105.043 399.963 77.6918 408.222" stroke="white" stroke-opacity="0.54" stroke-width="0.0888754" stroke-miterlimit="10"/>
<path d="M666.433 149.711C666.433 149.711 631.659 255.76 556.339 262.134C510.113 266.048 471.609 259.463 425.15 261.156C417.71 261.428 410.207 262.49 402.747 263.995C397.957 264.963 393.257 265.881 388.698 266.771C368.457 270.733 350.332 278.887 336.716 284.466C305.785 297.142 288.575 322.587 261.125 344.305C207.791 386.506 107.759 397.27 79.9718 413.343" stroke="white" stroke-opacity="0.54" stroke-width="0.0888754" stroke-miterlimit="10"/>
<path d="M665.39 148.773C665.39 148.773 631.247 252.381 557.197 262.126C512.254 268.044 473.627 263.636 427.117 265.433C419.746 265.719 412.305 266.703 404.897 268.064C400.133 268.937 395.453 269.727 390.913 270.46C370.739 273.723 352.573 280.898 338.632 285.765C306.896 296.843 288.147 320.046 260.259 340.75C206.404 380.737 110.475 394.579 82.2589 418.471" stroke="white" stroke-opacity="0.54" stroke-width="0.0888754" stroke-miterlimit="10"/>
<path d="M664.361 147.831C664.361 147.831 630.842 248.956 558.067 262.114C514.401 270.009 475.656 267.804 429.091 269.707C421.793 270.004 414.414 270.911 407.05 272.129C402.308 272.911 397.649 273.568 393.132 274.145C373.024 276.709 354.82 282.906 340.555 287.062C308.019 296.539 287.727 317.512 259.405 337.195C205.029 374.977 113.206 391.888 84.5539 423.593" stroke="white" stroke-opacity="0.54" stroke-width="0.0888754" stroke-miterlimit="10"/>
<path d="M663.326 146.896C663.326 146.896 630.424 245.501 558.933 262.11C516.539 271.96 477.682 271.976 431.066 273.986C423.837 274.297 416.524 275.128 409.204 276.2C404.487 276.891 399.849 277.416 395.348 277.835C375.309 279.7 357.06 284.918 342.474 288.363C309.138 296.24 287.311 314.988 258.544 333.64C203.658 369.227 115.931 389.197 86.8424 428.718" stroke="white" stroke-opacity="0.54" stroke-width="0.0888754" stroke-miterlimit="10"/>
<path d="M662.298 145.957C662.298 145.957 629.997 242.001 559.803 262.101C518.675 273.881 479.712 276.143 433.04 278.263C425.879 278.587 418.628 279.341 411.361 280.269C406.666 280.868 402.052 281.262 397.571 281.524C377.599 282.686 359.308 286.926 344.397 289.662C310.26 295.931 286.9 312.472 257.69 330.089C202.299 363.491 118.659 386.51 89.1378 433.842" stroke="white" stroke-opacity="0.54" stroke-width="0.0888754" stroke-miterlimit="10"/>
<path d="M661.265 145.017C661.265 145.017 629.541 238.458 560.673 262.092C520.792 275.78 481.742 280.308 435.018 282.536C427.93 282.875 420.741 283.548 413.518 284.333C408.849 284.838 404.255 285.103 399.79 285.207C379.884 285.67 361.558 288.925 346.32 290.958C311.386 295.615 286.493 309.956 256.833 326.533C200.939 357.772 121.385 383.822 91.4324 438.966" stroke="white" stroke-opacity="0.54" stroke-width="0.0888754" stroke-miterlimit="10"/>
<path d="M660.221 144.08C660.221 144.08 629.04 234.877 561.526 262.084C522.879 277.66 483.752 284.475 436.975 286.813C429.957 287.162 422.829 287.761 415.659 288.398C411.012 288.812 406.441 288.937 401.997 288.893C382.16 288.617 363.794 290.931 348.232 292.256C312.5 295.302 286.075 307.453 255.965 322.977C199.571 352.061 124.102 381.13 93.7127 444.087" stroke="white" stroke-opacity="0.54" stroke-width="0.0888754" stroke-miterlimit="10"/>
<path d="M659.201 143.144C659.201 143.144 628.529 231.264 562.407 262.079C524.97 279.525 485.79 288.554 438.965 291.089C432.015 291.44 424.954 291.959 417.828 292.466C413.206 292.776 408.656 292.782 404.227 292.58C384.457 291.605 366.052 292.933 350.167 293.555C313.644 294.988 285.679 304.958 255.125 319.428C198.228 346.372 126.84 378.447 96.0244 449.211" stroke="white" stroke-opacity="0.54" stroke-width="0.0888754" stroke-miterlimit="10"/>
<path d="M658.165 142.205C658.165 142.205 627.961 227.622 563.269 262.07C527.021 281.373 487.809 292.726 440.929 295.364C434.052 295.729 427.049 296.171 419.972 296.532C415.375 296.752 410.846 296.625 406.438 296.263C386.738 294.589 368.294 294.932 352.078 294.85C314.764 294.665 285.263 302.464 254.257 315.873C196.861 340.687 129.557 375.756 98.304 454.331" stroke="white" stroke-opacity="0.54" stroke-width="0.0888754" stroke-miterlimit="10"/>
<path d="M657.13 141.268C657.13 141.268 627.343 223.961 564.133 262.067C529.045 283.218 489.831 296.904 442.903 299.642C436.094 300.02 429.157 300.386 422.129 300.602C417.553 300.73 413.048 300.472 408.656 299.952C389.026 297.581 370.543 296.934 354.001 296.152C315.897 294.346 284.855 299.99 253.405 312.323C195.508 335.028 132.288 373.07 100.6 459.453" stroke="white" stroke-opacity="0.54" stroke-width="0.0888754" stroke-miterlimit="10"/>
<path d="M656.117 140.329C656.117 140.329 626.703 220.282 565.018 262.057C531.067 285.051 491.874 301.071 444.89 303.915C438.155 304.308 431.279 304.597 424.296 304.667C419.745 304.704 415.262 304.314 410.889 303.638C391.324 300.571 372.811 298.934 355.938 297.451C317.048 294.028 284.463 297.52 252.563 308.773C194.159 329.378 135.029 370.388 102.91 464.578" stroke="white" stroke-opacity="0.54" stroke-width="0.0888754" stroke-miterlimit="10"/>
<path d="M655.077 139.393C655.077 139.393 625.983 216.599 565.878 262.052C533.031 286.892 493.896 305.248 446.86 308.191C440.192 308.597 433.383 308.81 426.448 308.734C421.919 308.681 417.459 308.163 413.103 307.325C393.608 303.56 375.063 300.911 357.853 298.75C318.189 293.651 284.044 295.058 251.7 305.225C192.788 323.743 137.749 367.703 105.198 469.7" stroke="white" stroke-opacity="0.54" stroke-width="0.0888754" stroke-miterlimit="10"/>
<path d="M654.045 138.458C654.045 138.458 625.222 212.919 566.743 262.047C534.979 288.735 495.918 309.422 448.829 312.464C442.231 312.884 435.483 313.019 428.596 312.799C424.094 312.651 419.65 312.004 415.317 311.01C395.892 306.547 377.31 302.922 359.772 300.049C319.322 293.358 283.626 292.604 250.845 301.673C191.41 318.121 140.473 365.014 107.486 474.82" stroke="white" stroke-opacity="0.54" stroke-width="0.0888754" stroke-miterlimit="10"/>
<path d="M653.009 137.521C653.009 137.521 578.373 324.716 430.747 316.866C426.27 316.627 421.847 315.848 417.53 314.697C272.859 276.132 169.733 268.934 109.773 479.945" stroke="white" stroke-opacity="0.54" stroke-width="0.0888754" stroke-miterlimit="10"/>
<path d="M650.453 137.448C650.464 138.494 637.388 171.599 611.917 209.422C586.637 246.958 549.476 289.082 499.634 309.451C479.208 317.865 456.59 322.629 431.836 321.832C427.351 321.696 422.921 321.024 418.582 319.984C411.609 318.31 404.716 316.68 397.907 315.109C354.016 304.913 314.138 297.282 278.421 298.799C262.97 299.508 248.267 301.936 234.293 306.575C200.136 317.835 170.265 342.068 144.541 386.979C130.526 411.445 118.024 442.159 107.185 479.489" stroke="white" stroke-opacity="0.54" stroke-width="0.0888754" stroke-miterlimit="10"/>
<path d="M647.9 137.372C647.925 139.47 635.036 172.45 610.465 210.199C585.619 248.369 549.427 291.141 500.341 312.762C480.133 321.665 457.644 327.064 432.926 326.79C428.437 326.755 423.993 326.193 419.635 325.265C412.637 323.766 405.699 322.286 398.834 320.83C354.746 311.343 314.679 302.988 278.853 303.668C263.426 303.959 248.746 306.028 234.723 310.158C200.416 320.266 170.029 342.796 143.349 386.708C128.646 410.906 115.642 441.782 104.59 479.024" stroke="white" stroke-opacity="0.54" stroke-width="0.0888754" stroke-miterlimit="10"/>
<path d="M645.345 137.298C645.381 140.442 632.69 173.316 609.01 210.976C584.604 249.791 549.397 293.279 501.045 316.077C481.062 325.5 458.701 331.45 434.012 331.754C429.517 331.81 425.06 331.37 420.684 330.551C413.657 329.23 406.677 327.914 399.756 326.56C355.453 317.891 315.214 308.767 279.281 308.542C263.881 308.443 249.208 310.111 235.149 313.749C200.673 322.669 169.765 343.532 142.152 386.449C126.751 410.386 113.251 441.412 101.994 478.573" stroke="white" stroke-opacity="0.54" stroke-width="0.0888754" stroke-miterlimit="10"/>
<path d="M642.788 137.227C642.84 141.418 630.356 174.196 607.554 211.757C583.594 251.225 549.369 295.425 501.749 319.392C481.991 329.334 459.751 335.878 435.098 336.717C430.601 336.869 426.128 336.543 421.729 335.835C414.674 334.689 407.651 333.527 400.675 332.284C356.171 324.356 315.752 314.547 279.71 313.411C264.336 312.927 249.676 314.185 235.577 317.332C200.929 325.063 169.482 344.261 140.958 386.178C124.851 409.851 110.866 441.035 99.4002 478.109" stroke="white" stroke-opacity="0.54" stroke-width="0.0888754" stroke-miterlimit="10"/>
<path d="M640.24 137.152C640.303 142.39 628.042 175.084 606.106 212.534C582.599 252.67 549.347 297.575 502.455 322.705C482.926 333.172 460.805 340.301 436.186 341.679C431.682 341.93 427.203 341.715 422.779 341.122C415.7 340.152 408.63 339.144 401.599 338.012C356.898 330.826 316.295 320.334 280.141 318.283C264.797 317.415 250.138 318.265 236.002 320.921C201.182 327.459 169.178 344.988 139.765 385.914C122.94 409.324 108.482 440.664 96.8025 477.655" stroke="white" stroke-opacity="0.54" stroke-width="0.0888754" stroke-miterlimit="10"/>
<path d="M637.673 137.076C637.75 143.365 625.723 175.986 604.64 213.309C581.587 254.122 549.309 299.728 503.147 326.019C483.845 337.013 461.843 344.728 437.261 346.64C432.753 346.992 428.259 346.887 423.817 346.406C416.708 345.614 409.597 344.757 402.511 343.737C357.614 337.284 316.827 326.122 280.561 323.156C265.244 321.903 250.594 322.342 236.421 324.508C201.426 329.852 168.844 345.714 138.562 385.646C121.008 408.791 106.085 440.29 94.2 477.195" stroke="white" stroke-opacity="0.54" stroke-width="0.0888754" stroke-miterlimit="10"/>
<path d="M635.125 137.006C635.212 144.341 623.43 176.905 603.192 214.091C580.607 255.591 549.287 301.895 503.859 329.335C484.78 340.856 462.903 349.161 438.355 351.604C433.839 352.055 429.335 352.06 424.873 351.692C417.736 351.075 410.583 350.369 403.436 349.466C358.348 343.748 317.378 331.916 280.993 328.03C265.709 326.396 251.061 326.42 236.852 328.095C201.678 332.244 168.504 346.428 137.37 385.383C119.078 408.264 103.703 439.916 91.6043 476.738" stroke="white" stroke-opacity="0.54" stroke-width="0.0888754" stroke-miterlimit="10"/>
<path d="M632.561 136.93C632.664 145.312 621.14 177.826 601.732 214.868C579.621 257.065 549.256 304.066 504.558 332.649C485.709 344.704 463.947 353.593 439.44 356.568C434.921 357.12 430.401 357.238 425.922 356.978C418.76 356.537 411.564 355.985 404.358 355.193C359.075 350.209 317.922 337.714 281.421 332.9C266.165 330.89 251.521 330.494 237.278 331.682C201.927 334.629 168.144 347.143 136.173 385.117C117.137 407.732 101.312 439.543 89.0087 476.279" stroke="white" stroke-opacity="0.54" stroke-width="0.0888754" stroke-miterlimit="10"/>
<path d="M630.014 136.857C630.128 146.286 618.876 178.761 600.286 215.647C578.661 258.549 549.24 306.244 505.27 335.966C486.645 348.556 465.003 358.026 440.534 361.534C436.007 362.184 431.481 362.414 426.975 362.264C419.783 362.001 412.546 361.601 405.286 360.919C359.809 356.662 318.474 343.517 281.858 337.772C266.634 335.386 251.99 334.569 237.714 335.268C202.181 337.015 167.774 347.842 134.991 384.849C115.199 407.191 98.9392 439.169 86.4218 475.821" stroke="white" stroke-opacity="0.54" stroke-width="0.0888754" stroke-miterlimit="10"/>
<path d="M627.47 136.784C627.598 147.264 616.631 179.708 598.842 216.426C577.709 260.046 549.229 308.426 505.986 339.279C487.59 352.406 466.068 362.457 441.632 366.495C437.098 367.244 432.561 367.585 428.036 367.548C420.82 367.46 413.536 367.21 406.22 366.643C360.55 363.112 319.037 349.323 282.299 342.64C267.103 339.876 252.46 338.636 238.152 338.853C202.436 339.392 167.387 348.536 133.804 384.579C113.245 406.646 96.5575 438.792 83.8349 475.359" stroke="white" stroke-opacity="0.54" stroke-width="0.0888754" stroke-miterlimit="10"/>
<path d="M624.91 136.71C625.049 148.236 614.381 180.661 597.383 217.204C576.756 261.546 549.203 310.611 506.685 342.595C488.517 356.262 467.111 366.894 442.713 371.459C438.176 372.309 433.625 372.771 429.08 372.834C421.835 372.937 414.515 372.823 407.138 372.374C361.279 369.567 319.578 355.138 282.725 347.519C267.56 344.384 252.919 342.715 238.574 342.445C202.674 341.775 166.971 349.225 132.605 384.322C111.273 406.111 94.1695 438.424 81.2371 474.909" stroke="white" stroke-opacity="0.54" stroke-width="0.0888754" stroke-miterlimit="10"/>
<path d="M622.363 136.637C622.517 149.211 612.154 181.621 595.936 217.983C575.828 263.062 549.194 312.807 507.394 345.907C489.457 360.116 468.166 371.331 443.804 376.42C439.259 377.369 434.698 377.941 430.134 378.117C422.864 378.399 415.498 378.435 408.066 378.097C362.015 376.012 320.13 360.954 283.159 352.386C268.024 348.878 253.383 346.777 239.006 346.026C202.926 344.14 166.549 349.891 131.416 384.049C109.3 405.55 91.7895 438.045 78.6433 474.446" stroke="white" stroke-opacity="0.54" stroke-width="0.0888754" stroke-miterlimit="10"/>
<path d="M619.793 136.565C619.959 150.185 609.92 182.595 594.467 218.763C574.892 264.583 549.166 315.004 508.084 349.226C490.378 363.975 469.199 375.77 444.876 381.386C440.327 382.435 435.751 383.117 431.169 383.405C423.87 383.862 416.462 384.049 408.974 383.826C362.733 382.457 320.663 366.776 283.577 357.26C268.472 353.384 253.83 350.849 239.422 349.617C203.155 346.518 166.1 350.56 130.213 383.787C107.308 404.994 89.392 437.675 76.0407 473.991" stroke="white" stroke-opacity="0.54" stroke-width="0.0888754" stroke-miterlimit="10"/>
<path d="M617.253 136.489C617.432 151.16 607.728 183.568 593.027 219.539C573.999 266.108 549.169 317.207 508.802 352.54C491.327 367.835 470.264 380.213 445.977 386.349C441.423 387.502 436.838 388.291 432.229 388.689C424.905 389.322 417.452 389.658 409.908 389.55C363.476 388.896 321.22 372.6 284.017 362.128C268.94 357.888 254.3 354.912 239.861 353.199C203.41 348.88 165.658 351.204 129.03 383.514C105.328 404.422 87.0187 437.293 73.4538 473.525" stroke="white" stroke-opacity="0.54" stroke-width="0.0888754" stroke-miterlimit="10"/>
<path d="M614.691 136.414C614.881 152.132 605.524 184.546 591.566 220.316C573.099 267.641 549.155 319.411 509.5 355.851C492.257 371.696 471.308 384.65 447.057 391.309C442.496 392.561 437.899 393.464 433.272 393.971C425.919 394.782 418.428 395.267 410.824 395.277C364.198 395.337 321.753 378.43 284.437 367.002C269.391 362.393 254.756 358.979 240.279 356.79C203.646 351.247 165.187 351.847 127.825 383.255C103.317 403.857 84.6191 436.927 70.849 473.074" stroke="white" stroke-opacity="0.54" stroke-width="0.0888754" stroke-miterlimit="10"/>
<path d="M612.139 136.344C612.345 153.11 603.346 185.535 590.116 221.094C572.224 269.184 549.158 321.623 510.209 359.168C493.204 375.56 472.362 389.096 448.147 396.274C443.583 397.626 438.972 398.639 434.324 399.262C426.943 400.248 419.41 400.883 411.75 401.008C364.935 401.779 322.3 384.269 284.873 371.879C269.854 366.909 255.223 363.046 240.71 360.379C203.898 353.612 164.719 352.476 126.633 382.99C101.313 403.276 82.2369 436.555 68.2531 472.618" stroke="white" stroke-opacity="0.54" stroke-width="0.0888754" stroke-miterlimit="10"/>
<path d="M609.577 136.269C609.794 154.081 601.171 186.528 588.654 221.871C571.357 270.726 549.149 323.837 510.906 362.484C494.138 379.426 473.408 393.542 449.23 401.239C444.657 402.694 440.04 403.815 435.37 404.549C427.964 405.711 420.387 406.492 412.666 406.735C365.663 408.214 322.835 390.108 285.295 376.749C270.305 371.415 255.676 367.108 241.13 363.967C204.136 355.968 164.231 353.091 125.43 382.724C99.2932 402.685 79.8393 436.182 65.6503 472.16" stroke="white" stroke-opacity="0.54" stroke-width="0.0888754" stroke-miterlimit="10"/>
<path d="M607.031 136.195C607.262 155.059 599.02 187.519 587.213 222.651C570.527 272.283 549.167 326.055 511.624 365.798C495.096 383.292 474.472 397.985 450.33 406.201C445.754 407.757 441.121 408.978 436.433 409.834C428.998 411.158 421.38 412.102 413.603 412.46C366.408 414.646 323.387 395.947 285.741 381.619C270.779 375.924 256.153 371.169 241.575 367.55C204.4 358.319 163.765 353.688 124.257 382.454C97.2969 402.081 77.4757 435.802 63.073 471.696" stroke="white" stroke-opacity="0.54" stroke-width="0.0888754" stroke-miterlimit="10"/>
<path d="M604.481 136.121C604.723 156.031 596.88 188.514 585.763 223.428C569.708 273.84 549.179 328.276 512.332 369.114C496.044 387.164 475.529 402.432 451.421 411.166C446.839 412.825 442.193 414.153 437.482 415.119C430.019 416.618 422.36 417.71 414.525 418.19C367.139 421.079 323.922 401.795 286.168 386.497C271.228 380.443 256.611 375.237 242 371.141C204.649 360.68 163.27 354.282 123.058 382.194C95.2744 401.478 75.0828 435.435 60.4749 471.244" stroke="white" stroke-opacity="0.54" stroke-width="0.0888754" stroke-miterlimit="10"/>
<path d="M601.919 136.05C602.177 157.007 594.74 189.515 584.302 224.21C568.898 275.401 549.189 330.503 513.027 372.429C496.983 391.033 476.572 406.881 452.498 416.13C447.911 417.894 443.252 419.327 438.522 420.406C431.034 422.084 423.33 423.322 415.439 423.917C367.858 427.507 324.448 407.644 286.591 391.369C271.678 384.958 257.07 379.297 242.421 374.73C204.891 363.029 162.769 354.861 121.856 381.929C93.2427 400.86 72.6898 435.063 57.8719 470.79" stroke="white" stroke-opacity="0.54" stroke-width="0.0888754" stroke-miterlimit="10"/>
<path d="M599.374 135.977C599.643 157.981 592.627 190.517 582.857 224.989C568.123 276.965 549.218 332.729 513.741 375.747C497.944 394.904 477.637 411.334 453.593 421.097C449.003 422.96 444.332 424.507 439.581 425.694C432.064 427.547 424.319 428.932 416.371 429.646C368.6 433.936 324.988 413.498 287.029 396.241C272.138 389.472 257.54 383.357 242.853 378.315C205.148 365.375 162.276 355.424 120.666 381.66C91.2171 400.229 70.3082 434.688 55.2776 470.328" stroke="white" stroke-opacity="0.54" stroke-width="0.0888754" stroke-miterlimit="10"/>
<path d="M596.826 135.902C597.108 158.958 590.524 191.517 581.409 225.767C567.367 278.534 549.243 334.954 514.452 379.064C498.902 398.779 478.696 415.786 454.686 426.062C450.087 428.029 445.407 429.683 440.636 430.982C433.091 433.01 425.304 434.546 417.3 435.375C369.337 440.359 325.523 419.355 287.463 401.114C272.598 393.991 258.011 387.414 243.285 381.905C205.408 367.727 161.778 355.977 119.479 381.395C89.1928 399.595 67.9269 434.313 52.69 469.871" stroke="white" stroke-opacity="0.54" stroke-width="0.0888754" stroke-miterlimit="10"/>
<path d="M594.275 135.831C594.568 159.933 588.427 192.519 579.959 226.548C566.63 280.103 549.278 337.186 515.161 382.381C499.858 402.654 479.756 420.238 455.776 431.028C451.173 433.099 446.479 434.859 441.689 436.27C434.118 438.477 426.288 440.156 418.226 441.107C370.069 446.789 326.051 425.219 287.897 405.994C273.055 398.514 258.481 391.483 243.718 385.499C205.667 370.079 161.279 356.523 118.287 381.139C87.1636 398.955 65.544 433.951 50.0943 469.422" stroke="white" stroke-opacity="0.54" stroke-width="0.0888754" stroke-miterlimit="10"/>
<path d="M591.712 135.757C592.02 160.907 586.332 193.522 578.496 227.327C565.904 281.672 549.3 339.414 515.856 385.7C500.805 406.527 480.803 424.695 456.854 435.995C452.246 438.17 447.539 440.036 442.726 441.558C435.127 443.94 427.256 445.766 419.136 446.836C370.784 453.208 326.562 431.079 288.312 410.867C273.487 403.035 258.933 395.539 244.131 389.084C205.914 372.42 160.764 357.052 117.077 380.87C85.1144 398.295 63.1389 433.575 47.4829 468.964" stroke="white" stroke-opacity="0.54" stroke-width="0.0888754" stroke-miterlimit="10"/>
<path d="M589.158 135.684C589.478 161.88 584.253 194.519 577.043 228.107C565.207 283.243 549.336 341.646 516.562 389.019C501.765 410.406 481.863 429.151 457.944 440.965C453.333 443.24 448.614 445.22 443.779 446.85C436.15 449.41 428.236 451.379 420.063 452.568C371.518 459.634 327.085 436.945 288.748 415.744C273.944 407.557 259.405 399.601 244.564 392.678C206.178 374.769 160.264 357.576 115.886 380.609C83.0828 397.634 60.7569 433.208 44.8881 468.511" stroke="white" stroke-opacity="0.54" stroke-width="0.0888754" stroke-miterlimit="10"/>
<path d="M586.639 135.615C586.972 162.863 582.22 195.519 575.625 228.891C564.573 284.818 549.409 343.882 517.302 392.339C502.76 414.282 482.954 433.611 459.067 445.934C454.454 448.314 449.718 450.399 444.864 452.141C437.211 454.877 429.252 456.992 421.022 458.3C372.281 466.056 327.639 442.815 289.211 420.619C274.425 412.077 259.905 403.66 245.022 396.266C206.47 377.112 159.795 358.084 114.724 380.343C81.0819 396.961 58.4006 432.831 42.3254 468.053" stroke="white" stroke-opacity="0.54" stroke-width="0.0888754" stroke-miterlimit="10"/>
<path d="M584.074 135.54C584.419 163.835 580.151 196.512 574.16 229.669C563.914 286.384 549.445 346.115 517.992 395.657C503.709 418.161 483.999 438.068 460.138 450.901C455.521 453.385 450.772 455.575 445.898 457.434C438.216 460.345 430.216 462.607 421.928 464.037C372.987 472.482 328.136 448.693 289.622 425.5C274.856 416.607 260.353 407.725 245.43 399.863C206.718 379.458 159.279 358.59 113.512 380.086C79.0265 396.284 55.9969 432.469 39.7127 467.604" stroke="white" stroke-opacity="0.54" stroke-width="0.0888754" stroke-miterlimit="10"/>
<path d="M581.536 135.466C581.896 164.809 578.117 197.504 572.727 230.449C563.312 287.947 549.513 348.346 518.719 398.974C504.694 422.035 485.104 442.568 461.246 455.867C456.629 458.464 451.862 460.751 446.969 462.723C439.261 465.813 431.214 468.2 422.869 469.766C373.718 478.808 328.667 454.562 290.07 430.376C275.321 421.131 260.841 411.787 245.876 403.453C206.998 381.803 158.796 359.078 112.329 379.823C77.0061 395.593 53.6225 432.1 37.1243 467.152" stroke="white" stroke-opacity="0.54" stroke-width="0.0888754" stroke-miterlimit="10"/>
<path d="M578.991 135.397C579.362 165.787 576.089 198.497 571.283 231.234C562.727 289.514 549.573 350.582 519.433 402.299C505.667 425.917 486.164 447.019 462.342 460.841C457.718 463.538 452.942 465.94 448.023 468.018C440.287 471.283 432.198 473.821 423.797 475.502C374.451 485.258 329.18 460.442 290.502 435.256C275.767 425.658 261.324 415.83 246.306 407.049C207.299 384.095 158.303 359.567 111.135 379.564C74.9688 394.898 51.2326 431.735 34.5291 466.702" stroke="white" stroke-opacity="0.54" stroke-width="0.0888754" stroke-miterlimit="10"/>
<path d="M576.431 135.323C576.816 166.765 574.052 199.477 569.823 232.012C562.148 291.072 549.676 352.84 520.132 405.618C506.653 429.809 487.213 451.466 463.422 465.81C458.794 468.607 454.004 471.119 449.066 473.309C441.302 476.749 433.171 479.438 424.714 481.234C375.17 491.704 329.651 466.357 290.927 440.132C276.194 430.203 261.783 419.897 246.729 410.638C207.55 386.462 157.81 360.038 109.937 379.302C72.9333 394.193 48.8435 431.364 31.926 466.248" stroke="white" stroke-opacity="0.54" stroke-width="0.0888754" stroke-miterlimit="10"/>
<path d="M573.894 135.25C574.29 167.739 572.044 200.453 568.387 232.793C561.618 292.623 549.701 355.041 520.855 408.936C500.977 446.075 467.366 477.59 425.655 486.964C375.917 498.145 330.2 472.193 291.372 445.005C276.666 434.707 262.262 423.966 247.169 414.224C207.818 388.826 157.335 360.498 108.752 379.032C70.9111 393.468 46.4636 430.987 29.3396 465.79" stroke="white" stroke-opacity="0.54" stroke-width="0.0888754" stroke-miterlimit="10"/>
</svg>
