<svg width="1910" height="1631" viewBox="0 0 1910 1631" fill="none" xmlns="http://www.w3.org/2000/svg">
<path d="M1895.8 440.8C1895.8 440.8 1770.13 835.754 1494.66 701.446C1308.32 610.6 1205.69 494.469 1080.14 495.632C974.625 496.608 870.698 625.132 836.389 704.652C788.545 815.523 818.719 993.694 761.482 1100.73C641.849 1324.49 159.042 1206.94 107.776 872.642" stroke="white" stroke-opacity="0.3" stroke-width="0.25" stroke-miterlimit="10"/>
<path d="M1892.94 438.399C1892.94 438.399 1768.41 827.416 1497.02 701.516C1313.73 616.484 1211.1 505.756 1085.41 507.198C1061.58 507.455 1037.83 514.075 1014.91 525.042C1000.48 531.935 986.402 540.516 972.87 550.288C913.304 593.263 864.081 660.082 841.601 708.218C791.642 814.831 817.51 987.023 759.164 1091.33C638.029 1309.17 166.588 1199.78 113.873 886.502" stroke="white" stroke-opacity="0.3" stroke-width="0.25" stroke-miterlimit="10"/>
<path d="M1890.07 436.009C1890.07 436.009 1766.72 819.087 1499.36 701.583C1319.13 622.368 1216.52 517.041 1090.65 518.749C1067.03 519.043 1043.44 525.453 1020.66 536.029C1006.31 542.677 992.292 550.902 978.808 560.249C919.455 601.346 870.166 665.541 846.783 711.755C794.698 814.108 816.01 980.195 756.809 1081.9C633.628 1293.52 174.095 1192.58 119.943 900.323" stroke="white" stroke-opacity="0.3" stroke-width="0.25" stroke-miterlimit="10"/>
<path d="M1887.22 433.621C1887.22 433.621 1765.06 810.765 1501.72 701.655C1324.58 628.25 1221.95 528.318 1095.94 530.316C1072.5 530.645 1049.1 536.849 1026.45 547.03C1012.17 553.424 998.21 561.303 984.785 570.228C925.634 609.442 876.28 671.014 852.011 715.321C797.804 813.405 814.705 973.453 754.498 1072.5C629.564 1278.04 181.639 1185.41 126.051 914.169" stroke="white" stroke-opacity="0.3" stroke-width="0.25" stroke-miterlimit="10"/>
<path d="M1884.37 431.218C1884.37 431.218 1763.44 802.434 1504.08 701.709C1330.04 634.118 1227.36 539.587 1101.21 541.854C1077.96 542.218 1054.73 548.213 1032.23 558.004C1018.01 564.151 1004.13 571.677 990.749 580.177C931.808 617.522 882.493 676.528 857.227 718.857C801.142 812.818 813.401 966.674 752.185 1063.07C625.519 1262.54 189.193 1178.21 132.156 927.998" stroke="white" stroke-opacity="0.3" stroke-width="0.25" stroke-miterlimit="10"/>
<path d="M1881.5 428.823C1881.5 428.823 1761.84 794.101 1506.42 701.769C1335.52 639.991 1232.77 550.865 1106.46 553.409C1083.42 553.811 1060.36 559.597 1037.98 568.993C1023.84 574.896 1010.01 582.066 996.695 590.143C937.967 625.609 888.604 682.006 862.426 722.411C804.268 812.158 812.077 959.922 749.848 1053.65C621.463 1247.03 196.72 1171.03 138.251 941.822" stroke="white" stroke-opacity="0.3" stroke-width="0.25" stroke-miterlimit="10"/>
<path d="M1878.64 426.426C1878.64 426.426 1760.28 785.759 1508.78 701.828C1341.03 645.846 1238.2 562.129 1111.74 564.95C1088.88 565.387 1066 570.966 1043.76 579.958C1029.69 585.617 1015.92 592.43 1002.65 600.083C944.127 633.667 894.724 687.468 867.625 725.936C807.396 811.468 810.768 953.133 747.52 1044.21C617.45 1231.5 204.251 1163.82 144.343 955.635" stroke="white" stroke-opacity="0.3" stroke-width="0.25" stroke-miterlimit="10"/>
<path d="M1875.78 424.024C1875.78 424.024 1758.78 777.4 1511.13 701.878C1346.57 651.695 1243.62 573.394 1117.01 576.495C1094.34 576.967 1071.65 582.33 1049.55 590.939C1035.53 596.351 1021.84 602.811 1008.63 610.042C950.318 641.746 900.858 692.936 872.856 729.482C810.535 810.794 809.505 946.357 745.215 1034.79C613.472 1216 211.816 1156.62 150.46 969.465" stroke="white" stroke-opacity="0.3" stroke-width="0.25" stroke-miterlimit="10"/>
<path d="M1872.92 421.625C1872.92 421.625 1757.32 769.033 1513.5 701.931C1352.14 657.523 1249.06 584.652 1122.29 588.031C1099.82 588.54 1077.3 593.691 1055.33 601.909C1041.39 607.076 1027.75 613.188 1014.6 619.986C956.498 649.81 906.988 698.402 878.076 733.013C813.671 810.118 808.239 939.578 742.899 1025.35C609.507 1200.47 219.37 1149.42 156.582 983.27" stroke="white" stroke-opacity="0.3" stroke-width="0.25" stroke-miterlimit="10"/>
<path d="M1870.06 419.214C1870.06 419.214 1755.89 760.637 1515.85 701.967C1357.73 663.318 1254.48 596.165 1127.57 599.561C1105.28 600.159 1082.95 605.05 1061.11 612.876C1047.24 617.786 1033.66 623.554 1020.57 629.93C962.68 657.872 913.11 703.862 883.299 736.541C816.789 809.434 806.99 932.789 740.601 1015.9C605.592 1184.94 226.936 1142.2 162.711 997.069" stroke="white" stroke-opacity="0.3" stroke-width="0.25" stroke-miterlimit="10"/>
<path d="M1867.2 416.808C1867.2 416.808 1754.51 752.214 1518.21 702.007C1363.37 669.104 1259.91 607.442 1132.85 611.083C1110.76 611.718 1088.61 616.446 1066.9 623.831C1053.1 628.52 1039.58 633.909 1026.54 639.85C968.861 665.922 919.231 709.311 888.525 740.048C819.918 808.741 805.752 925.989 738.301 1006.45C601.697 1169.41 234.514 1134.97 168.845 1010.85" stroke="white" stroke-opacity="0.3" stroke-width="0.25" stroke-miterlimit="10"/>
<path d="M1864.34 414.404C1864.34 414.404 1753.18 743.766 1520.56 702.042C1369.03 674.859 1265.34 618.702 1138.14 622.612C1116.24 623.282 1094.27 627.803 1072.69 634.794C1058.96 639.238 1045.51 644.271 1032.53 649.789C975.06 673.982 925.361 714.767 893.767 743.573C823.039 808.039 804.537 919.188 736.006 996.994C597.828 1153.87 242.1 1127.73 174.995 1024.64" stroke="white" stroke-opacity="0.3" stroke-width="0.25" stroke-miterlimit="10"/>
<path d="M1861.49 411.981C1861.49 411.981 1751.92 735.255 1522.95 702.057C1374.74 680.565 1270.81 629.933 1143.45 634.108C1121.76 634.815 1099.96 639.126 1078.52 645.725C1064.86 649.925 1051.48 654.626 1038.54 659.695C981.321 682.115 931.518 720.189 899.026 747.062C826.183 807.323 803.37 912.366 733.75 987.501C594.032 1138.31 249.718 1120.47 181.181 1038.38" stroke="white" stroke-opacity="0.3" stroke-width="0.25" stroke-miterlimit="10"/>
<path d="M1858.62 409.558C1858.62 409.558 1750.68 726.703 1525.31 702.061C1380.47 686.226 1276.25 641.16 1148.75 645.604C1127.25 646.356 1105.63 650.448 1084.32 656.654C1070.73 660.607 1057.42 664.965 1044.54 669.601C987.537 690.151 937.659 725.608 904.29 750.554C829.317 806.593 802.211 905.545 731.492 978.016C590.267 1122.76 257.363 1113.2 187.386 1052.12" stroke="white" stroke-opacity="0.3" stroke-width="0.25" stroke-miterlimit="10"/>
<path d="M1855.76 407.125C1855.76 407.125 1749.51 718.07 1527.69 702.058C1386.25 691.841 1281.72 652.381 1154.08 657.078C1132.77 657.868 1111.32 661.751 1090.16 667.565C1076.64 671.273 1063.39 675.272 1050.56 679.486C993.774 698.166 943.823 731.005 909.578 754.022C832.465 805.838 801.1 898.705 729.273 968.507C586.552 1107.19 265.038 1105.9 193.629 1065.83" stroke="white" stroke-opacity="0.3" stroke-width="0.25" stroke-miterlimit="10"/>
<path d="M1852.9 404.671C1852.9 404.671 1748.37 709.346 1530.07 702.005C1392.06 697.37 1287.2 663.539 1159.43 668.505C1138.31 669.329 1117.05 673.005 1096.02 678.424C1082.58 681.887 1069.38 685.53 1056.62 689.322C1000.04 706.119 950.024 736.352 914.905 757.441C835.66 805.021 800.041 891.824 727.095 958.93C582.923 1091.58 272.776 1098.54 199.935 1079.45" stroke="white" stroke-opacity="0.3" stroke-width="0.25" stroke-miterlimit="10"/>
<path d="M1850.03 402.214C1850.03 402.214 1747.27 700.534 1532.47 701.942C1397.92 702.824 1292.7 674.682 1164.79 679.924C1143.87 680.783 1122.8 684.252 1101.89 689.276C1088.52 692.492 1075.39 695.781 1062.68 699.148C1006.31 714.072 956.228 741.677 920.234 760.848C838.838 804.188 799 884.932 724.923 949.349C579.323 1075.97 280.523 1091.15 206.257 1093.07" stroke="white" stroke-opacity="0.3" stroke-width="0.25" stroke-miterlimit="10"/>
<path d="M1847.18 399.763C1847.18 399.763 1746.21 691.651 1534.87 701.883C1403.8 708.22 1298.2 685.814 1170.17 691.334C1149.46 692.231 1128.55 695.488 1107.8 700.122C1094.49 703.093 1081.44 706.026 1068.78 708.971C1012.63 722.016 962.471 747.002 925.615 764.247C842.074 803.339 798.031 878.055 722.818 939.77C575.817 1060.39 288.345 1083.77 212.657 1106.66" stroke="white" stroke-opacity="0.3" stroke-width="0.25" stroke-miterlimit="10"/>
<path d="M1844.33 397.304C1844.33 397.304 1745.18 682.681 1537.28 701.814C1409.68 713.562 1303.71 696.941 1175.54 702.737C1155.01 703.668 1134.29 706.718 1113.67 710.957C1100.44 713.682 1087.45 716.272 1074.85 718.782C1018.91 729.957 968.677 752.316 930.957 767.648C845.274 802.483 797.033 871.196 720.669 930.187C572.297 1044.82 296.118 1076.39 218.998 1120.25" stroke="white" stroke-opacity="0.3" stroke-width="0.25" stroke-miterlimit="10"/>
<path d="M1841.45 394.852C1841.45 394.852 1744.13 673.619 1539.66 701.755C1415.56 718.838 1309.19 708.063 1180.9 714.137C1160.57 715.103 1140.02 717.944 1119.55 721.794C1106.39 724.264 1093.47 726.508 1080.93 728.596C1025.2 737.891 974.892 757.624 936.304 771.053C848.462 801.619 796.054 864.349 718.526 920.624C568.806 1029.31 303.886 1069.02 225.354 1133.86" stroke="white" stroke-opacity="0.3" stroke-width="0.25" stroke-miterlimit="10"/>
<path d="M1838.6 392.397C1838.6 392.397 1743.09 664.443 1542.06 701.69C1421.44 724.037 1314.69 719.173 1186.26 725.533C1166.13 726.526 1145.76 729.158 1125.42 732.623C1112.33 734.847 1099.46 736.735 1086.99 738.404C1031.48 745.821 981.104 762.929 941.65 774.457C851.663 800.748 795.08 857.528 716.395 911.069C565.331 1013.84 311.673 1061.66 231.711 1147.45" stroke="white" stroke-opacity="0.3" stroke-width="0.25" stroke-miterlimit="10"/>
<path d="M1835.75 389.959C1835.75 389.959 1742.03 655.186 1544.46 701.644C1427.3 729.195 1320.2 730.288 1191.64 736.935C1171.7 737.963 1151.52 740.388 1131.31 743.46C1118.29 745.44 1105.49 746.973 1093.07 748.218C1037.78 753.759 987.315 768.24 947.005 777.869C854.876 799.887 794.136 850.736 714.27 901.516C561.889 998.4 319.464 1054.31 238.069 1161.04" stroke="white" stroke-opacity="0.3" stroke-width="0.25" stroke-miterlimit="10"/>
<path d="M1832.88 387.516C1832.88 387.516 1740.91 645.819 1546.84 701.59C1433.13 734.275 1325.68 741.39 1196.99 748.334C1177.24 749.396 1157.24 751.612 1137.18 754.295C1124.22 756.028 1111.49 757.209 1099.13 758.033C1044.06 761.686 993.518 773.544 952.339 781.283C858.063 799.007 793.177 843.973 712.134 891.983C558.45 983.009 327.23 1046.96 244.417 1174.63" stroke="white" stroke-opacity="0.3" stroke-width="0.25" stroke-miterlimit="10"/>
<path d="M1830.03 385.066C1830.03 385.066 1739.74 636.337 1549.24 701.533C1438.93 739.293 1331.18 752.485 1202.36 759.716C1182.82 760.815 1162.99 762.813 1143.06 765.112C1130.18 766.591 1117.51 767.426 1105.2 767.827C1050.34 769.604 999.741 778.822 957.69 784.681C861.282 798.106 792.247 837.212 710.008 882.438C555.029 967.664 335.011 1039.62 250.781 1188.21" stroke="white" stroke-opacity="0.3" stroke-width="0.25" stroke-miterlimit="10"/>
<path d="M1827.16 382.628C1827.16 382.628 1738.46 626.76 1551.61 701.485C1444.65 744.265 1336.64 763.58 1207.69 771.109C1188.35 772.233 1168.69 774.032 1148.92 775.932C1136.1 777.165 1123.5 777.625 1111.26 777.628C1056.62 777.422 1005.94 784.118 963.025 788.089C864.486 797.216 791.307 830.488 707.874 872.899C551.604 952.35 342.783 1032.28 257.123 1201.79" stroke="white" stroke-opacity="0.3" stroke-width="0.25" stroke-miterlimit="10"/>
<path d="M1824.3 380.196C1824.3 380.196 1737.1 617.104 1554.01 701.444C1450.34 749.195 1342.13 774.441 1213.06 782.498C1193.91 783.624 1174.44 785.206 1154.79 786.757C1142.05 787.713 1129.52 787.851 1117.33 787.43C1062.89 785.35 1012.15 789.406 968.372 791.502C867.716 796.325 790.376 823.793 705.762 863.382C548.201 937.104 350.561 1024.96 263.499 1215.38" stroke="white" stroke-opacity="0.3" stroke-width="0.25" stroke-miterlimit="10"/>
<path d="M1821.45 377.757C1821.45 377.757 1735.63 607.375 1556.4 701.395C1455.97 754.079 1347.61 785.549 1218.41 793.881C1199.46 795.044 1180.16 796.416 1160.66 797.576C1147.99 798.288 1135.52 798.071 1123.39 797.22C1069.18 793.269 1018.36 794.685 973.706 794.902C870.937 795.414 789.442 817.102 703.63 853.856C544.783 921.875 358.329 1017.63 269.838 1228.95" stroke="white" stroke-opacity="0.3" stroke-width="0.25" stroke-miterlimit="10"/>
<path d="M1818.58 375.324C1818.58 375.324 1734.01 597.6 1558.77 701.363C1461.5 758.959 1353.09 796.672 1223.77 805.271C1205 806.469 1185.89 807.634 1166.53 808.403C1153.92 808.87 1141.53 808.301 1129.45 807.027C1075.46 801.205 1024.58 799.973 979.049 798.324C874.172 794.516 788.511 810.468 701.524 844.35C541.387 906.72 366.12 1010.31 276.205 1242.52" stroke="white" stroke-opacity="0.3" stroke-width="0.25" stroke-miterlimit="10"/>
<path d="M1815.72 372.885C1815.72 372.885 1732.28 587.783 1561.15 701.314C1466.96 763.804 1358.55 807.761 1229.1 816.646C1210.54 817.88 1191.6 818.838 1172.37 819.214C1159.84 819.437 1147.51 818.514 1135.49 816.82C1081.71 809.135 1030.79 805.251 984.375 801.735C877.398 793.62 787.572 803.849 699.392 834.845C537.947 891.598 373.879 1003.01 282.55 1256.1" stroke="white" stroke-opacity="0.3" stroke-width="0.25" stroke-miterlimit="10"/>
<path d="M1812.86 370.461C1812.86 370.461 1730.4 577.96 1563.54 701.282C1472.35 768.675 1364.05 818.877 1234.46 828.026C1216.1 829.295 1197.34 830.047 1178.25 830.033C1165.79 830.011 1153.52 828.745 1141.56 826.619C1088 817.064 1037.03 810.473 989.719 805.151C880.681 792.568 786.637 797.258 697.282 825.351C534.531 876.522 381.659 995.708 288.918 1269.68" stroke="white" stroke-opacity="0.3" stroke-width="0.25" stroke-miterlimit="10"/>
<path d="M1810.01 368.038C1810.01 368.038 1728.39 568.15 1565.92 701.248C1477.67 773.55 1369.52 829.984 1239.81 839.397C1221.63 840.701 1203.05 841.244 1184.11 840.84C1171.72 840.565 1159.51 838.953 1147.61 836.409C1094.28 824.986 1043.24 815.783 995.055 808.564C883.922 791.744 785.69 790.688 695.181 815.852C531.079 861.486 389.435 988.397 295.269 1283.24" stroke="white" stroke-opacity="0.3" stroke-width="0.25" stroke-miterlimit="10"/>
<path d="M1807.15 365.607C1807.15 365.607 1596 868.681 1189.97 851.652C1177.65 851.133 1165.5 849.167 1153.66 846.201C756.693 746.879 473.101 730.392 301.614 1296.82" stroke="white" stroke-opacity="0.3" stroke-width="0.25" stroke-miterlimit="10"/>
<path d="M1800.06 365.415C1800.06 368.216 1763.05 457.182 1691.79 559.108C1621.07 660.264 1517.51 774.018 1379.71 829.884C1323.24 852.956 1260.85 866.318 1192.75 864.852C1180.41 864.609 1168.24 862.932 1156.33 860.265C1137.19 855.97 1118.27 851.794 1099.58 847.772C979.095 821.664 869.58 802.315 771.237 807.338C728.693 809.654 688.155 816.549 649.553 829.343C555.204 860.404 472.253 926.074 400.079 1046.98C360.759 1112.85 325.409 1195.4 294.435 1295.61" stroke="white" stroke-opacity="0.3" stroke-width="0.25" stroke-miterlimit="10"/>
<path d="M1792.98 365.213C1792.98 370.827 1756.5 459.453 1687.71 561.158C1618.17 664 1517.25 779.463 1381.49 838.66C1325.61 863.036 1263.55 878.097 1195.53 878.03C1183.17 878.055 1170.96 876.671 1159 874.305C1139.78 870.482 1120.73 866.708 1101.88 862.995C980.84 838.791 870.827 817.508 772.207 820.293C729.74 821.488 689.275 827.424 650.558 838.855C555.829 866.838 471.509 927.965 396.736 1046.22C355.529 1111.39 318.792 1194.39 287.235 1294.37" stroke="white" stroke-opacity="0.3" stroke-width="0.25" stroke-miterlimit="10"/>
<path d="M1785.91 365.012C1785.91 373.426 1749.98 461.763 1683.65 563.208C1615.29 667.764 1517.06 785.12 1383.29 847.448C1328 873.209 1266.28 889.741 1198.32 891.219C1185.95 891.49 1173.7 890.433 1161.68 888.358C1142.38 885.013 1123.21 881.677 1104.2 878.24C982.541 856.231 872.075 832.895 773.189 833.26C730.809 833.412 690.376 838.271 651.572 848.389C556.414 873.197 470.71 929.873 393.4 1045.5C350.278 1109.98 312.173 1193.4 280.052 1293.17" stroke="white" stroke-opacity="0.3" stroke-width="0.25" stroke-miterlimit="10"/>
<path d="M1778.82 364.823C1778.84 376.04 1743.47 464.116 1679.57 565.272C1612.41 671.565 1516.87 790.801 1385.07 856.238C1330.39 883.384 1268.98 901.501 1201.1 904.412C1188.72 904.941 1176.42 904.187 1164.34 902.411C1144.95 899.534 1125.66 896.613 1106.5 893.475C984.26 873.454 873.32 848.287 774.16 846.22C731.864 845.339 691.479 849.102 652.578 857.906C556.981 879.534 469.845 931.771 390.057 1044.74C345.002 1108.54 305.557 1192.39 272.862 1291.94" stroke="white" stroke-opacity="0.3" stroke-width="0.25" stroke-miterlimit="10"/>
<path d="M1771.75 364.622C1771.76 378.64 1737.02 466.488 1675.49 567.323C1609.56 675.393 1516.67 796.492 1386.84 865.025C1332.77 893.568 1271.67 913.248 1203.88 917.6C1191.47 918.395 1179.15 917.94 1166.99 916.473C1147.54 914.066 1128.11 911.559 1108.8 908.72C985.991 890.688 874.563 863.699 775.122 859.186C732.92 857.275 692.549 859.946 653.562 867.436C557.529 885.876 468.909 933.661 386.703 1044C339.679 1107.12 298.927 1191.4 265.647 1290.73" stroke="white" stroke-opacity="0.3" stroke-width="0.25" stroke-miterlimit="10"/>
<path d="M1764.67 364.421C1764.69 381.253 1730.59 468.899 1671.42 569.375C1606.72 679.243 1516.48 802.195 1388.63 873.814C1335.17 903.765 1274.37 925.008 1206.66 930.792C1194.24 931.855 1181.88 931.693 1169.67 930.527C1150.12 928.599 1130.58 926.497 1111.11 923.957C987.739 907.895 875.826 879.116 776.103 872.157C733.985 869.214 693.651 870.786 654.578 876.964C558.098 892.213 467.937 935.553 383.37 1043.26C334.347 1105.69 292.31 1190.41 258.467 1289.52" stroke="white" stroke-opacity="0.3" stroke-width="0.25" stroke-miterlimit="10"/>
<path d="M1757.6 364.233C1757.61 383.865 1724.19 471.351 1667.34 571.439C1603.91 683.136 1516.29 807.931 1390.42 882.607C1337.55 913.963 1277.09 936.783 1209.45 943.986C1197.01 945.315 1184.61 945.45 1172.34 944.585C1152.72 943.125 1133.05 941.428 1113.41 939.204C989.49 925.115 877.09 894.546 777.068 885.126C735.052 881.166 694.738 881.625 655.578 886.49C558.642 898.545 466.905 937.41 380.018 1042.53C328.973 1104.27 285.686 1189.41 251.258 1288.3" stroke="white" stroke-opacity="0.3" stroke-width="0.25" stroke-miterlimit="10"/>
<path d="M1750.51 364.03C1750.54 386.466 1717.82 473.812 1663.27 573.492C1601.12 687.044 1516.1 813.679 1392.21 891.398C1339.96 924.174 1279.79 948.556 1212.25 957.183C1199.79 958.78 1187.35 959.218 1175.03 958.644C1155.33 957.655 1135.54 956.374 1115.73 954.446C991.252 942.327 878.37 909.99 778.055 898.089C736.128 893.119 695.836 892.455 656.597 896.02C559.21 904.861 465.846 939.271 376.688 1041.78C323.599 1102.83 279.07 1188.42 244.08 1287.09" stroke="white" stroke-opacity="0.3" stroke-width="0.25" stroke-miterlimit="10"/>
<path d="M1743.45 363.835C1743.47 389.072 1711.51 476.308 1659.21 575.55C1598.38 690.976 1515.94 819.444 1394 900.195C1342.36 934.399 1282.5 960.333 1215.04 970.382C1202.57 972.245 1190.1 972.982 1177.7 972.704C1157.92 972.194 1138.01 971.317 1118.05 969.689C993.01 959.519 879.648 925.448 779.042 911.056C737.213 905.078 696.934 903.288 657.619 905.543C559.767 911.177 464.735 941.089 373.37 1041.04C318.21 1101.38 272.477 1187.42 236.901 1285.87" stroke="white" stroke-opacity="0.3" stroke-width="0.25" stroke-miterlimit="10"/>
<path d="M1736.37 363.643C1736.41 391.694 1705.23 478.84 1655.14 577.61C1595.63 694.947 1515.76 825.226 1395.79 908.985C1344.76 944.62 1285.21 972.107 1217.83 983.575C1205.33 985.703 1192.83 986.737 1180.38 986.76C1160.52 986.72 1140.48 986.246 1120.36 984.927C994.77 976.708 880.933 940.914 780.02 924.015C738.279 917.028 698.015 914.101 658.628 915.069C560.308 917.474 463.56 942.898 370.019 1040.29C312.757 1099.91 265.84 1186.42 229.702 1284.65" stroke="white" stroke-opacity="0.3" stroke-width="0.25" stroke-miterlimit="10"/>
<path d="M1729.3 363.445C1729.33 394.298 1698.97 481.385 1651.07 579.666C1592.94 698.924 1515.59 831.013 1397.58 917.78C1347.16 954.856 1287.91 983.894 1220.62 996.773C1208.11 999.17 1195.57 1000.53 1183.06 1000.82C1163.11 1001.29 1142.97 1001.18 1122.68 1000.18C996.539 993.904 882.202 956.404 781.002 937.003C739.356 929.019 699.111 924.946 659.635 924.611C560.845 923.787 462.346 944.693 366.682 1039.57C307.297 1098.48 259.231 1185.44 222.517 1283.46" stroke="white" stroke-opacity="0.3" stroke-width="0.25" stroke-miterlimit="10"/>
<path d="M1722.24 363.247C1722.28 396.903 1692.76 483.946 1647.01 581.722C1590.28 702.94 1515.44 836.825 1399.38 926.563C1349.57 965.083 1290.62 995.681 1223.41 1009.96C1210.87 1012.62 1198.3 1014.28 1185.73 1014.87C1165.71 1015.82 1145.44 1016.12 1124.99 1015.41C998.302 1011.08 883.479 971.894 781.98 949.957C740.43 940.974 700.196 935.743 660.647 934.12C561.395 930.046 461.093 946.422 363.344 1038.81C301.811 1096.96 252.617 1184.43 215.316 1282.23" stroke="white" stroke-opacity="0.3" stroke-width="0.25" stroke-miterlimit="10"/>
<path d="M1715.16 363.058C1715.2 399.515 1686.57 486.549 1642.93 583.786C1587.64 706.976 1515.29 842.649 1401.16 935.368C1351.97 975.331 1293.32 1007.48 1226.19 1023.17C1213.64 1026.1 1201.03 1028.05 1188.4 1028.94C1168.3 1030.36 1147.9 1031.06 1127.3 1030.67C1000.06 1028.25 884.747 987.406 782.959 962.934C741.501 952.965 701.278 946.575 661.658 943.664C561.929 936.348 459.809 948.167 360.013 1038.08C296.315 1095.47 246 1183.45 208.137 1281.02" stroke="white" stroke-opacity="0.3" stroke-width="0.25" stroke-miterlimit="10"/>
<path d="M1708.09 362.86C1708.14 402.131 1680.43 489.152 1638.87 585.842C1585.06 711.023 1515.15 848.488 1402.95 944.166C1354.38 985.583 1296.03 1019.29 1228.99 1036.37C1216.42 1039.58 1203.77 1041.81 1191.07 1043.01C1170.9 1044.9 1150.37 1046 1129.61 1045.91C1001.82 1045.41 886.011 1002.93 783.929 975.9C742.561 964.953 702.355 957.384 662.662 953.185C562.463 942.606 458.478 949.847 356.666 1037.33C290.785 1093.94 239.38 1182.43 200.93 1279.8" stroke="white" stroke-opacity="0.3" stroke-width="0.25" stroke-miterlimit="10"/>
<path d="M1701.03 362.66C1701.08 404.734 1674.33 491.76 1634.81 587.897C1582.52 715.09 1515.03 854.329 1404.76 952.953C1356.81 995.836 1298.75 1031.08 1231.79 1049.56C1219.2 1053.04 1206.51 1055.58 1193.76 1057.06C1173.5 1059.43 1152.86 1060.93 1131.93 1061.16C1003.59 1062.58 887.275 1018.46 784.911 988.877C743.635 976.944 703.456 968.197 663.675 962.729C563.008 948.877 457.128 951.521 353.323 1036.61C285.23 1092.43 232.75 1181.46 193.738 1278.6" stroke="white" stroke-opacity="0.3" stroke-width="0.25" stroke-miterlimit="10"/>
<path d="M1693.97 362.474C1694.02 407.352 1668.25 494.403 1630.74 589.956C1580.02 719.181 1514.92 860.189 1406.56 961.754C1359.24 1006.1 1301.46 1042.9 1234.59 1062.77C1221.98 1066.51 1209.26 1069.34 1196.44 1071.14C1176.1 1073.98 1155.34 1075.88 1134.25 1076.42C1005.36 1079.75 888.543 1034.02 785.901 1001.86C744.712 988.961 704.555 979.015 664.689 972.267C563.565 955.144 455.755 953.161 349.984 1035.88C279.665 1090.87 226.134 1180.48 186.535 1277.4" stroke="white" stroke-opacity="0.3" stroke-width="0.25" stroke-miterlimit="10"/>
<path d="M1686.9 362.275C1686.95 409.956 1662.22 497.053 1626.68 592.013C1577.57 723.273 1514.81 866.058 1408.35 970.555C1361.68 1016.37 1304.18 1054.72 1237.39 1075.97C1224.76 1079.99 1212.02 1083.12 1199.14 1085.21C1178.72 1088.52 1157.83 1090.82 1136.57 1091.67C1007.14 1096.9 889.807 1049.58 786.881 1014.83C745.781 1000.96 705.644 989.82 665.699 981.803C564.114 961.387 454.356 954.762 346.641 1035.14C274.081 1089.29 219.503 1179.49 179.342 1276.19" stroke="white" stroke-opacity="0.3" stroke-width="0.25" stroke-miterlimit="10"/>
<path d="M1679.86 362.081C1679.91 412.576 1656.23 499.702 1622.65 594.076C1575.2 727.404 1514.75 871.939 1410.18 979.353C1364.15 1026.64 1306.92 1066.53 1240.22 1089.18C1227.57 1093.46 1214.78 1096.86 1201.85 1099.28C1181.34 1103.02 1160.34 1105.76 1138.92 1106.92C1008.94 1114.05 891.09 1065.15 787.902 1027.81C746.888 1012.96 706.774 1000.62 666.754 991.331C564.706 967.621 452.99 956.317 343.351 1034.4C268.536 1087.67 212.939 1178.48 172.191 1274.97" stroke="white" stroke-opacity="0.3" stroke-width="0.25" stroke-miterlimit="10"/>
<path d="M1672.8 361.884C1672.86 415.182 1650.27 502.36 1618.59 596.136C1572.85 731.534 1514.67 877.83 1411.99 988.158C1366.59 1036.92 1309.65 1078.35 1243.02 1102.39C1230.36 1106.95 1217.53 1110.63 1204.53 1113.35C1183.94 1117.56 1162.82 1120.69 1141.24 1122.19C1010.71 1131.2 892.33 1080.74 788.87 1040.8C747.929 1024.99 707.851 1011.45 667.755 1000.88C565.255 973.879 451.544 957.867 339.994 1033.68C262.919 1086.06 206.294 1177.52 164.983 1273.78" stroke="white" stroke-opacity="0.3" stroke-width="0.25" stroke-miterlimit="10"/>
<path d="M1665.75 361.699C1665.81 417.802 1644.34 505.037 1614.54 598.208C1570.57 735.68 1514.62 883.739 1413.79 996.965C1369.05 1047.2 1312.37 1090.19 1245.82 1115.6C1233.14 1120.44 1220.27 1124.41 1207.21 1127.42C1186.55 1132.12 1165.3 1135.64 1143.56 1137.45C1012.47 1148.34 893.574 1096.33 789.858 1053.78C749 1037.02 708.961 1022.26 668.774 1010.43C565.817 980.11 450.113 959.379 336.656 1032.95C257.305 1084.41 199.676 1176.54 157.789 1272.59" stroke="white" stroke-opacity="0.3" stroke-width="0.25" stroke-miterlimit="10"/>
<path d="M1658.71 361.506C1658.77 420.412 1638.46 507.715 1610.51 600.273C1568.35 739.832 1514.6 889.646 1415.61 1005.78C1371.54 1057.5 1315.13 1102.03 1248.64 1128.82C1235.94 1133.93 1223.04 1138.2 1209.92 1141.51C1189.17 1146.67 1167.81 1150.59 1145.9 1152.72C1014.26 1165.49 894.827 1111.95 790.858 1066.77C750.072 1049.05 710.072 1033.07 669.795 1019.96C566.392 986.336 448.674 960.849 333.319 1032.22C251.678 1082.73 193.06 1175.55 150.589 1271.38" stroke="white" stroke-opacity="0.3" stroke-width="0.25" stroke-miterlimit="10"/>
<path d="M1651.67 361.311C1651.74 423.033 1632.61 510.389 1606.47 602.338C1566.19 743.999 1514.56 895.552 1417.43 1014.6C1374.02 1067.8 1317.87 1113.88 1251.45 1142.04C1238.73 1147.43 1225.79 1151.99 1212.62 1155.6C1191.78 1161.23 1170.3 1165.55 1148.24 1167.99C1016.04 1182.62 896.069 1127.57 791.848 1079.76C751.142 1061.09 711.187 1043.87 670.815 1029.52C566.974 992.579 447.218 962.295 329.988 1031.49C246.052 1081.04 186.442 1174.57 143.404 1270.19" stroke="white" stroke-opacity="0.3" stroke-width="0.25" stroke-miterlimit="10"/>
<path d="M1644.63 361.129C1644.7 425.656 1626.79 513.073 1602.44 604.417C1564.1 748.174 1514.57 901.484 1419.26 1023.42C1376.51 1078.11 1320.62 1125.74 1254.27 1155.28C1241.54 1160.94 1228.56 1165.78 1215.33 1169.69C1194.42 1175.81 1172.81 1180.51 1150.58 1183.28C1017.83 1199.79 897.302 1143.22 792.851 1092.78C752.217 1073.15 712.31 1054.71 671.848 1039.09C567.562 998.829 445.775 963.729 326.656 1030.8C240.424 1079.34 179.829 1173.63 136.206 1269.02" stroke="white" stroke-opacity="0.3" stroke-width="0.25" stroke-miterlimit="10"/>
<path d="M1637.62 360.94C1637.7 428.275 1621.03 515.76 1598.42 606.491C1562.09 752.348 1514.6 907.411 1421.1 1032.25C1379.02 1088.42 1323.39 1137.61 1257.11 1168.52C1244.36 1174.46 1231.34 1179.59 1218.04 1183.79C1197.05 1190.38 1175.32 1195.48 1152.93 1198.56C1019.61 1216.93 898.541 1158.87 793.85 1105.78C753.272 1085.21 713.433 1065.53 672.878 1048.64C568.17 1005.05 444.333 965.123 323.322 1030.08C234.787 1077.6 173.201 1172.66 129.011 1267.84" stroke="white" stroke-opacity="0.3" stroke-width="0.25" stroke-miterlimit="10"/>
<path d="M1630.6 360.752C1630.68 430.892 1615.29 518.431 1594.41 608.566C1560.13 756.528 1514.64 913.344 1422.95 1041.08C1381.55 1098.75 1326.18 1149.48 1259.96 1181.76C1247.19 1187.98 1234.14 1193.41 1220.78 1197.9C1199.7 1204.97 1177.84 1210.45 1155.31 1213.86C1021.43 1234.09 899.786 1174.53 794.88 1118.79C754.371 1097.27 714.585 1076.36 673.935 1058.22C568.794 1011.3 442.904 966.502 320.012 1029.37C229.17 1075.85 166.608 1171.71 121.833 1266.67" stroke="white" stroke-opacity="0.3" stroke-width="0.25" stroke-miterlimit="10"/>
<path d="M1623.59 360.575C1623.67 433.534 1609.58 521.111 1590.4 610.653C1558.25 760.718 1514.69 919.293 1424.8 1049.92C1384.08 1109.08 1328.95 1161.37 1262.8 1195.01C1250.03 1201.51 1236.92 1207.22 1223.51 1212.02C1202.35 1219.55 1180.37 1225.43 1157.67 1229.16C1023.22 1251.24 901.018 1190.21 795.888 1131.81C755.438 1109.33 715.716 1087.18 674.963 1067.79C569.399 1017.53 441.465 967.839 316.682 1028.66C223.539 1074.07 159.986 1170.74 114.643 1265.49" stroke="white" stroke-opacity="0.3" stroke-width="0.25" stroke-miterlimit="10"/>
<path d="M1616.58 360.386C1616.66 436.151 1603.9 523.775 1586.39 612.73C1556.44 764.89 1514.76 925.238 1426.64 1058.76C1386.61 1119.41 1331.73 1173.25 1265.63 1208.26C1252.84 1215.04 1239.7 1221.03 1226.22 1226.14C1204.98 1234.15 1182.88 1240.42 1160.02 1244.47C1024.99 1268.41 902.222 1205.91 796.882 1144.84C756.497 1121.43 716.832 1098.03 675.983 1077.38C570.012 1023.78 440.026 969.176 313.342 1027.98C217.886 1072.28 153.361 1169.81 107.443 1264.34" stroke="white" stroke-opacity="0.3" stroke-width="0.25" stroke-miterlimit="10"/>
<path d="M1609.59 360.2C1609.68 438.774 1598.27 526.437 1582.42 614.813C1554.72 769.053 1514.87 931.179 1428.52 1067.6C1389.19 1129.74 1334.62 1185.26 1268.51 1221.51C1255.72 1228.59 1242.52 1234.85 1228.98 1240.26C1207.67 1248.74 1185.43 1255.35 1162.4 1259.77C1026.78 1285.31 903.465 1221.6 797.921 1157.87C757.592 1133.51 718.005 1108.87 677.052 1086.96C570.657 1030.02 438.62 970.467 310.027 1027.28C212.272 1070.47 146.76 1168.87 100.253 1263.18" stroke="white" stroke-opacity="0.3" stroke-width="0.25" stroke-miterlimit="10"/>
<path d="M1602.59 360.026C1602.68 441.408 1592.66 529.1 1578.42 616.906C1553.07 773.225 1514.97 937.136 1430.38 1076.46C1391.75 1140.08 1337.39 1197.13 1271.37 1234.79C1258.55 1242.14 1245.32 1248.7 1231.71 1254.4C1210.31 1263.35 1187.96 1270.37 1164.77 1275.09C1028.58 1302.56 904.67 1237.31 798.929 1170.9C758.644 1145.6 719.173 1119.66 678.085 1096.55C571.369 1036.13 437.194 971.759 306.687 1026.59C206.62 1068.63 140.124 1167.93 93.0515 1262.03" stroke="white" stroke-opacity="0.3" stroke-width="0.25" stroke-miterlimit="10"/>
<path d="M1595.58 359.838C1595.68 444.041 1587.06 531.731 1574.42 618.987C1551.47 777.377 1515.23 943.151 1432.24 1085.31C1394.38 1150.46 1340.18 1208.99 1274.22 1248.05C1261.39 1255.67 1248.12 1262.53 1234.45 1268.53C1212.96 1277.95 1190.49 1285.37 1167.14 1290.41C1030.38 1319.79 905.795 1253.13 799.954 1183.93C759.685 1157.74 720.313 1130.53 679.138 1106.13C571.98 1042.44 435.807 973.006 303.374 1025.9C201.01 1066.78 133.526 1166.98 85.8649 1260.87" stroke="white" stroke-opacity="0.3" stroke-width="0.25" stroke-miterlimit="10"/>
<path d="M1588.59 359.654C1588.69 446.666 1581.5 534.35 1570.44 621.072C1549.96 781.509 1515.22 949.018 1434.12 1094.15C1378.23 1194.17 1284.7 1279.49 1169.53 1305.72C1032.2 1337.01 907.088 1268.73 800.985 1196.96C760.797 1169.77 721.458 1141.39 680.188 1115.7C572.588 1048.74 434.422 974.223 300.05 1025.18C195.386 1064.87 126.903 1166.02 78.6732 1259.7" stroke="white" stroke-opacity="0.3" stroke-width="0.25" stroke-miterlimit="10"/>
</svg>
