<svg width="12" height="12" viewBox="0 0 12 12" fill="none" xmlns="http://www.w3.org/2000/svg">
<path d="M3.0018 0.266602V4.14168M9.20193 0.266602V4.14168M2.6143 6.07922H4.93934M9.58944 6.07922H7.26439M2.6143 8.40426H4.93934M7.26439 8.40426H9.58944M1.45177 2.20414H10.752C10.9575 2.20414 11.1546 2.28579 11.3 2.43114C11.4453 2.57648 11.527 2.77361 11.527 2.97916V10.7293C11.527 10.9349 11.4453 11.132 11.3 11.2773C11.1546 11.4227 10.9575 11.5043 10.752 11.5043H1.45177C1.24623 11.5043 1.0491 11.4227 0.903755 11.2773C0.758411 11.132 0.676758 10.9349 0.676758 10.7293V2.97916C0.676758 2.77361 0.758411 2.57648 0.903755 2.43114C1.0491 2.28579 1.24623 2.20414 1.45177 2.20414Z" stroke="#0274FF" stroke-width="0.775015"/>
</svg>
