<svg width="18" height="18" viewBox="0 0 18 18" fill="none" xmlns="http://www.w3.org/2000/svg">
<g filter="url(#filter0_i_1920_22628)">
<path fill-rule="evenodd" clip-rule="evenodd" d="M1.31802 16.682C2.63604 18 4.75736 18 9 18C13.2426 18 15.364 18 16.682 16.682C18 15.364 18 13.2426 18 9C18 4.75736 18 2.63604 16.682 1.31802C15.364 0 13.2426 0 9 0C4.75736 0 2.63604 0 1.31802 1.31802C0 2.63604 0 4.75736 0 9C0 13.2426 0 15.364 1.31802 16.682ZM6.75 6.075C5.13457 6.075 3.825 7.38457 3.825 9C3.825 10.6154 5.13457 11.925 6.75 11.925C8.36543 11.925 9.675 10.6154 9.675 9C9.675 8.62721 9.97721 8.325 10.35 8.325C10.7228 8.325 11.025 8.62721 11.025 9C11.025 11.361 9.11102 13.275 6.75 13.275C4.38898 13.275 2.475 11.361 2.475 9C2.475 6.63898 4.38898 4.725 6.75 4.725C7.12279 4.725 7.425 5.02721 7.425 5.4C7.425 5.77279 7.12279 6.075 6.75 6.075ZM14.175 9C14.175 10.6154 12.8654 11.925 11.25 11.925C10.8772 11.925 10.575 12.2272 10.575 12.6C10.575 12.9728 10.8772 13.275 11.25 13.275C13.611 13.275 15.525 11.361 15.525 9C15.525 6.63898 13.611 4.725 11.25 4.725C8.88898 4.725 6.975 6.63898 6.975 9C6.975 9.37279 7.27721 9.675 7.65 9.675C8.02279 9.675 8.325 9.37279 8.325 9C8.325 7.38457 9.63457 6.075 11.25 6.075C12.8654 6.075 14.175 7.38457 14.175 9Z" fill="url(#paint0_linear_1920_22628)"/>
</g>
<defs>
<filter id="filter0_i_1920_22628" x="0" y="0" width="22" height="22" filterUnits="userSpaceOnUse" color-interpolation-filters="sRGB">
<feFlood flood-opacity="0" result="BackgroundImageFix"/>
<feBlend mode="normal" in="SourceGraphic" in2="BackgroundImageFix" result="shape"/>
<feColorMatrix in="SourceAlpha" type="matrix" values="0 0 0 0 0 0 0 0 0 0 0 0 0 0 0 0 0 0 127 0" result="hardAlpha"/>
<feOffset dx="8" dy="4"/>
<feGaussianBlur stdDeviation="2"/>
<feComposite in2="hardAlpha" operator="arithmetic" k2="-1" k3="1"/>
<feColorMatrix type="matrix" values="0 0 0 0 0.313726 0 0 0 0 0.623529 0 0 0 0 1 0 0 0 0.25 0"/>
<feBlend mode="normal" in2="shape" result="effect1_innerShadow_1920_22628"/>
</filter>
<linearGradient id="paint0_linear_1920_22628" x1="9" y1="0" x2="9" y2="18" gradientUnits="userSpaceOnUse">
<stop stop-color="#2257F8"/>
<stop offset="0.5" stop-color="#5C7BFC"/>
<stop offset="1" stop-color="#38B6FF"/>
</linearGradient>
</defs>
</svg>
