<svg width="24" height="24" viewBox="0 0 24 24" fill="none" xmlns="http://www.w3.org/2000/svg">
<path d="M12.052 1.25H11.948C11.049 1.25 10.3 1.25 9.706 1.33C9.078 1.414 8.511 1.6 8.056 2.055C7.6 2.511 7.414 3.078 7.33 3.705C7.25 4.3 7.25 5.05 7.25 5.948V6.026C7.706 6.012 8.206 6.004 8.75 6.002V6C8.75 5.036 8.752 4.388 8.817 3.905C8.879 3.444 8.986 3.246 9.117 3.116C9.248 2.986 9.444 2.879 9.905 2.816C10.388 2.752 11.036 2.75 12 2.75C12.964 2.75 13.612 2.752 14.095 2.817C14.556 2.879 14.754 2.986 14.884 3.117C15.014 3.248 15.121 3.444 15.184 3.905C15.248 4.388 15.25 5.036 15.25 6V6.002C15.7501 6.00318 16.2501 6.01118 16.75 6.026V5.948C16.75 5.05 16.75 4.3 16.67 3.706C16.586 3.078 16.4 2.511 15.944 2.056C15.489 1.6 14.922 1.414 14.294 1.33C13.7 1.25 12.95 1.25 12.052 1.25Z" fill="url(#paint0_linear_1692_20798)"/>
<path opacity="0.5" fill-rule="evenodd" clip-rule="evenodd" d="M2 14C2 10.229 2 8.343 3.172 7.172C4.344 6.001 6.229 6 10 6H14C17.771 6 19.657 6 20.828 7.172C21.999 8.344 22 10.229 22 14C22 17.771 22 19.657 20.828 20.828C19.656 21.999 17.771 22 14 22H10C6.229 22 4.343 22 3.172 20.828C2.001 19.656 2 17.771 2 14ZM12.75 12.5C12.75 12.3011 12.671 12.1103 12.5303 11.9697C12.3897 11.829 12.1989 11.75 12 11.75C11.8011 11.75 11.6103 11.829 11.4697 11.9697C11.329 12.1103 11.25 12.3011 11.25 12.5V13.25H10.5C10.3011 13.25 10.1103 13.329 9.96967 13.4697C9.82902 13.6103 9.75 13.8011 9.75 14C9.75 14.1989 9.82902 14.3897 9.96967 14.5303C10.1103 14.671 10.3011 14.75 10.5 14.75H11.25V15.5C11.25 15.6989 11.329 15.8897 11.4697 16.0303C11.6103 16.171 11.8011 16.25 12 16.25C12.1989 16.25 12.3897 16.171 12.5303 16.0303C12.671 15.8897 12.75 15.6989 12.75 15.5V14.75H13.5C13.6989 14.75 13.8897 14.671 14.0303 14.5303C14.171 14.3897 14.25 14.1989 14.25 14C14.25 13.8011 14.171 13.6103 14.0303 13.4697C13.8897 13.329 13.6989 13.25 13.5 13.25H12.75V12.5Z" fill="url(#paint1_linear_1692_20798)"/>
<path fill-rule="evenodd" clip-rule="evenodd" d="M12 18C13.0609 18 14.0783 17.5786 14.8284 16.8284C15.5786 16.0783 16 15.0609 16 14C16 12.9391 15.5786 11.9217 14.8284 11.1716C14.0783 10.4214 13.0609 10 12 10C10.9391 10 9.92172 10.4214 9.17157 11.1716C8.42143 11.9217 8 12.9391 8 14C8 15.0609 8.42143 16.0783 9.17157 16.8284C9.92172 17.5786 10.9391 18 12 18ZM12.75 12.5C12.75 12.3011 12.671 12.1103 12.5303 11.9697C12.3897 11.829 12.1989 11.75 12 11.75C11.8011 11.75 11.6103 11.829 11.4697 11.9697C11.329 12.1103 11.25 12.3011 11.25 12.5V13.25H10.5C10.3011 13.25 10.1103 13.329 9.96967 13.4697C9.82902 13.6103 9.75 13.8011 9.75 14C9.75 14.1989 9.82902 14.3897 9.96967 14.5303C10.1103 14.671 10.3011 14.75 10.5 14.75H11.25V15.5C11.25 15.6989 11.329 15.8897 11.4697 16.0303C11.6103 16.171 11.8011 16.25 12 16.25C12.1989 16.25 12.3897 16.171 12.5303 16.0303C12.671 15.8897 12.75 15.6989 12.75 15.5V14.75H13.5C13.6989 14.75 13.8897 14.671 14.0303 14.5303C14.171 14.3897 14.25 14.1989 14.25 14C14.25 13.8011 14.171 13.6103 14.0303 13.4697C13.8897 13.329 13.6989 13.25 13.5 13.25H12.75V12.5Z" fill="url(#paint2_linear_1692_20798)"/>
<defs>
<linearGradient id="paint0_linear_1692_20798" x1="12" y1="1.25" x2="12" y2="6.026" gradientUnits="userSpaceOnUse">
<stop stop-color="#0148FF"/>
<stop offset="0.526667" stop-color="#0295FF"/>
<stop offset="1" stop-color="#02B3FF"/>
</linearGradient>
<linearGradient id="paint1_linear_1692_20798" x1="12" y1="6" x2="12" y2="22" gradientUnits="userSpaceOnUse">
<stop stop-color="#0148FF"/>
<stop offset="0.526667" stop-color="#0295FF"/>
<stop offset="1" stop-color="#02B3FF"/>
</linearGradient>
<linearGradient id="paint2_linear_1692_20798" x1="12" y1="10" x2="12" y2="18" gradientUnits="userSpaceOnUse">
<stop stop-color="#0148FF"/>
<stop offset="0.526667" stop-color="#0295FF"/>
<stop offset="1" stop-color="#02B3FF"/>
</linearGradient>
</defs>
</svg>
