<svg width="16" height="16" viewBox="0 0 16 16" fill="none" xmlns="http://www.w3.org/2000/svg">
<g id="Icons 16px / arrow/Down">
<path id="Vector" d="M7.98902 10.9993C7.75585 10.9998 7.52987 10.9184 7.35033 10.7693L2.36052 6.7693C2.15672 6.59956 2.02855 6.35565 2.00422 6.09122C1.97989 5.8268 2.06139 5.56352 2.23078 5.3593C2.40017 5.15508 2.64359 5.02666 2.90748 5.00228C3.17136 4.9779 3.43411 5.05956 3.63791 5.2293L7.98902 8.7093L12.3401 5.3893C12.4422 5.30623 12.5597 5.2442 12.6858 5.20677C12.8118 5.16934 12.9441 5.15724 13.0748 5.17118C13.2056 5.18512 13.3323 5.22482 13.4477 5.28799C13.5631 5.35117 13.6649 5.43657 13.7473 5.5393C13.8387 5.64212 13.9079 5.76275 13.9506 5.89362C13.9933 6.02449 14.0086 6.16279 13.9954 6.29986C13.9823 6.43692 13.9411 6.56979 13.8744 6.69015C13.8076 6.81051 13.7168 6.91575 13.6075 6.9993L8.61774 10.8293C8.43303 10.9548 8.21167 11.0147 7.98902 10.9993Z" fill="#262E3D"/>
</g>
</svg>
