<svg width="12" height="12" viewBox="0 0 12 12" fill="none" xmlns="http://www.w3.org/2000/svg">
<g id="eva:close-outline">
<path id="Vector" d="M6.94164 6.00093L9.80702 3.14221C9.9325 3.01673 10.003 2.84655 10.003 2.66909C10.003 2.49164 9.9325 2.32145 9.80702 2.19597C9.68154 2.07049 9.51135 2 9.3339 2C9.15644 2 8.98626 2.07049 8.86078 2.19597L6.00206 5.06135L3.14335 2.19597C3.01787 2.07049 2.84769 2 2.67023 2C2.49278 2 2.32259 2.07049 2.19711 2.19597C2.07163 2.32145 2.00114 2.49164 2.00114 2.66909C2.00114 2.84655 2.07163 3.01673 2.19711 3.14221L5.06249 6.00093L2.19711 8.85964C2.13465 8.92159 2.08508 8.99529 2.05125 9.07649C2.01742 9.15769 2 9.24479 2 9.33276C2 9.42073 2.01742 9.50783 2.05125 9.58903C2.08508 9.67023 2.13465 9.74393 2.19711 9.80588C2.25906 9.86834 2.33276 9.91791 2.41396 9.95174C2.49516 9.98557 2.58226 10.003 2.67023 10.003C2.7582 10.003 2.8453 9.98557 2.9265 9.95174C3.0077 9.91791 3.0814 9.86834 3.14335 9.80588L6.00206 6.9405L8.86078 9.80588C8.92273 9.86834 8.99643 9.91791 9.07763 9.95174C9.15883 9.98557 9.24593 10.003 9.3339 10.003C9.42187 10.003 9.50897 9.98557 9.59017 9.95174C9.67137 9.91791 9.74507 9.86834 9.80702 9.80588C9.86948 9.74393 9.91905 9.67023 9.95288 9.58903C9.98671 9.50783 10.0041 9.42073 10.0041 9.33276C10.0041 9.24479 9.98671 9.15769 9.95288 9.07649C9.91905 8.99529 9.86948 8.92159 9.80702 8.85964L6.94164 6.00093Z" fill="#0274FF"/>
</g>
</svg>
