<svg width="16" height="17" viewBox="0 0 16 17" fill="none" xmlns="http://www.w3.org/2000/svg">
<path d="M15.9999 14.0469C15.9999 14.2139 15.9367 14.3741 15.8242 14.4923C15.7117 14.6104 15.5591 14.6767 15.3999 14.6767H11.32C11.1863 15.1998 10.892 15.662 10.4827 15.9917C10.0734 16.3213 9.57188 16.5 9.05597 16.5C8.54006 16.5 8.03857 16.3213 7.62924 15.9917C7.21991 15.662 6.92561 15.1998 6.79198 14.6767H0.599998C0.440869 14.6767 0.288257 14.6104 0.175735 14.4923C0.0632138 14.3741 0 14.2139 0 14.0469C0 13.8798 0.0632138 13.7196 0.175735 13.6015C0.288257 13.4834 0.440869 13.417 0.599998 13.417H6.79198C6.92561 12.8939 7.21991 12.4318 7.62924 12.1021C8.03857 11.7725 8.54006 11.5938 9.05597 11.5938C9.57188 11.5938 10.0734 11.7725 10.4827 12.1021C10.892 12.4318 11.1863 12.8939 11.32 13.417H15.3999C15.5591 13.417 15.7117 13.4834 15.8242 13.6015C15.9367 13.7196 15.9999 13.8798 15.9999 14.0469ZM15.9999 2.95311C15.9999 3.12015 15.9367 3.28036 15.8242 3.39848C15.7117 3.5166 15.5591 3.58296 15.3999 3.58296H13.44C13.3063 4.10605 13.012 4.56825 12.6027 4.8979C12.1934 5.22754 11.6919 5.40621 11.176 5.40621C10.6601 5.40621 10.1586 5.22754 9.74923 4.8979C9.3399 4.56825 9.0456 4.10605 8.91197 3.58296H0.599998C0.521205 3.58296 0.443184 3.56667 0.370389 3.53501C0.297594 3.50336 0.23145 3.45697 0.175735 3.39848C0.12002 3.33999 0.0758248 3.27056 0.0456721 3.19414C0.0155193 3.11772 0 3.03582 0 2.95311C0 2.87039 0.0155193 2.78849 0.0456721 2.71207C0.0758248 2.63566 0.12002 2.56622 0.175735 2.50773C0.23145 2.44925 0.297594 2.40285 0.370389 2.3712C0.443184 2.33955 0.521205 2.32326 0.599998 2.32326H8.91197C9.0456 1.80016 9.3399 1.33796 9.74923 1.00832C10.1586 0.678674 10.6601 0.5 11.176 0.5C11.6919 0.5 12.1934 0.678674 12.6027 1.00832C13.012 1.33796 13.3063 1.80016 13.44 2.32326H15.3999C15.479 2.32213 15.5575 2.33765 15.6308 2.3689C15.7041 2.40015 15.7707 2.4465 15.8266 2.50522C15.8825 2.56393 15.9267 2.63382 15.9565 2.71074C15.9862 2.78767 16.001 2.87008 15.9999 2.95311ZM15.9999 8.4958C16.001 8.57883 15.9862 8.66124 15.9565 8.73817C15.9267 8.81509 15.8825 8.88498 15.8266 8.94369C15.7707 9.00241 15.7041 9.04876 15.6308 9.08001C15.5575 9.11126 15.479 9.12678 15.3999 9.12565H6.03998C5.90635 9.64875 5.61205 10.1109 5.20272 10.4406C4.79339 10.7702 4.29189 10.9489 3.77599 10.9489C3.26008 10.9489 2.75858 10.7702 2.34925 10.4406C1.93992 10.1109 1.64563 9.64875 1.51199 9.12565H0.599998C0.440869 9.12565 0.288257 9.05929 0.175735 8.94117C0.0632138 8.82305 0 8.66285 0 8.4958C0 8.32875 0.0632138 8.16855 0.175735 8.05043C0.288257 7.93231 0.440869 7.86595 0.599998 7.86595H1.51199C1.64563 7.34286 1.93992 6.88066 2.34925 6.55101C2.75858 6.22137 3.26008 6.0427 3.77599 6.0427C4.29189 6.0427 4.79339 6.22137 5.20272 6.55101C5.61205 6.88066 5.90635 7.34286 6.03998 7.86595H15.3999C15.5591 7.86595 15.7117 7.93231 15.8242 8.05043C15.9367 8.16855 15.9999 8.32875 15.9999 8.4958Z" fill="#3590FF"/>
</svg>
