<svg width="18" height="18" viewBox="0 0 18 18" fill="none" xmlns="http://www.w3.org/2000/svg">
<g filter="url(#filter0_i_1692_18046)">
<path fill-rule="evenodd" clip-rule="evenodd" d="M8.29203 0.29279C8.47982 0.105317 8.73447 0 9 0C9.26553 0 9.52018 0.105317 9.70797 0.29279L15.7162 6.29286L17.7189 8.29289C17.9013 8.48149 18.0022 8.73409 18 8.99629C17.9977 9.25849 17.8924 9.50931 17.7067 9.69472C17.521 9.88013 17.2699 9.9853 17.0073 9.98758C16.7448 9.98986 16.4918 9.88906 16.303 9.7069L16.0096 9.4139V16C16.0096 16.5304 15.7986 17.0391 15.423 17.4142C15.0474 17.7893 14.538 18 14.0068 18H11.0027C10.7372 18 10.4825 17.8946 10.2947 17.7071C10.1069 17.5196 10.0014 17.2652 10.0014 17V14H7.99863V17C7.99863 17.2652 7.89313 17.5196 7.70534 17.7071C7.51755 17.8946 7.26284 18 6.99727 18H3.99316C3.46201 18 2.9526 17.7893 2.57702 17.4142C2.20143 17.0391 1.99043 16.5304 1.99043 16V9.4139L1.69703 9.7069C1.50817 9.88906 1.25522 9.98986 0.992666 9.98758C0.730111 9.9853 0.478955 9.88013 0.293294 9.69472C0.107632 9.50931 0.00231939 9.25849 3.78543e-05 8.99629C-0.00224368 8.73409 0.0986884 8.48149 0.281096 8.29289L2.28383 6.29286L8.29203 0.29279Z" fill="url(#paint0_linear_1692_18046)"/>
</g>
<defs>
<filter id="filter0_i_1692_18046" x="0" y="0" width="22" height="22" filterUnits="userSpaceOnUse" color-interpolation-filters="sRGB">
<feFlood flood-opacity="0" result="BackgroundImageFix"/>
<feBlend mode="normal" in="SourceGraphic" in2="BackgroundImageFix" result="shape"/>
<feColorMatrix in="SourceAlpha" type="matrix" values="0 0 0 0 0 0 0 0 0 0 0 0 0 0 0 0 0 0 127 0" result="hardAlpha"/>
<feOffset dx="8" dy="4"/>
<feGaussianBlur stdDeviation="2"/>
<feComposite in2="hardAlpha" operator="arithmetic" k2="-1" k3="1"/>
<feColorMatrix type="matrix" values="0 0 0 0 0.00784314 0 0 0 0 0.454902 0 0 0 0 1 0 0 0 0.5 0"/>
<feBlend mode="normal" in2="shape" result="effect1_innerShadow_1692_18046"/>
</filter>
<linearGradient id="paint0_linear_1692_18046" x1="9" y1="0" x2="9" y2="18" gradientUnits="userSpaceOnUse">
<stop stop-color="#2257F8"/>
<stop offset="0.5" stop-color="#969FFF"/>
<stop offset="1" stop-color="#38B6FF"/>
</linearGradient>
</defs>
</svg>
