<svg width="15" height="16" viewBox="0 0 15 16" fill="none" xmlns="http://www.w3.org/2000/svg">
<path d="M1.875 8C1.875 10.357 1.875 12.7855 2.69876 13.5178C3.52252 14.25 4.84835 14.25 7.5 14.25C10.1516 14.25 11.4775 14.25 12.3012 13.5178C13.125 12.7855 13.125 10.357 13.125 8" stroke="#4B4B4B" stroke-width="0.968769"/>
<path d="M9.1627 9.37619L12.9172 8.24983C13.2894 8.13817 13.4755 8.08234 13.5936 7.94853C13.6166 7.92247 13.6374 7.89453 13.6558 7.865C13.75 7.71345 13.75 7.51916 13.75 7.13058C13.75 5.59923 13.75 4.83356 13.3294 4.31662C13.2485 4.21727 13.1577 4.12646 13.0584 4.04561C12.5414 3.625 11.7758 3.625 10.2444 3.625H4.75558C3.22423 3.625 2.45856 3.625 1.94162 4.04561C1.84227 4.12646 1.75146 4.21727 1.67061 4.31662C1.25 4.83356 1.25 5.59923 1.25 7.13058C1.25 7.51916 1.25 7.71345 1.34424 7.865C1.36259 7.89453 1.38338 7.92247 1.40638 7.94853C1.52447 8.08234 1.71056 8.13817 2.08275 8.24983L5.8373 9.37619" stroke="#4B4B4B" stroke-width="0.968769"/>
<path d="M4.0625 3.625C4.57715 3.61196 5.09953 3.28432 5.27465 2.8002C5.28004 2.78531 5.28556 2.76874 5.2966 2.73561L5.31264 2.6875C5.33901 2.6084 5.3522 2.56884 5.3663 2.53375C5.54642 2.0857 5.96851 1.78148 6.45053 1.75229C6.48827 1.75 6.52997 1.75 6.61335 1.75H8.38693C8.47032 1.75 8.51201 1.75 8.54976 1.75229C9.03177 1.78148 9.45386 2.0857 9.63398 2.53375C9.64809 2.56884 9.66127 2.60839 9.68764 2.6875L9.70368 2.73561C9.71466 2.76855 9.72026 2.78535 9.72563 2.8002C9.90075 3.28432 10.4228 3.61196 10.9375 3.625" stroke="#4B4B4B" stroke-width="0.968769"/>
<path d="M8.75098 8.3125H6.25098C6.07839 8.3125 5.93848 8.45241 5.93848 8.625V9.97593C5.93848 10.1037 6.01627 10.2186 6.13492 10.2661L6.5725 10.4411C7.16853 10.6795 7.83343 10.6795 8.42945 10.4411L8.86704 10.2661C8.98568 10.2186 9.06348 10.1037 9.06348 9.97593V8.625C9.06348 8.45241 8.92357 8.3125 8.75098 8.3125Z" stroke="#4B4B4B" stroke-width="0.968769" stroke-linecap="round"/>
</svg>
