<svg width="14" height="14" viewBox="0 0 14 14" fill="none" xmlns="http://www.w3.org/2000/svg">
<path d="M4.95418 2.65662C5.77771 1.17981 6.18915 0.441406 6.80469 0.441406C7.42022 0.441406 7.83166 1.17981 8.65519 2.65662L8.86839 3.03882C9.10238 3.45873 9.21938 3.66868 9.40138 3.80713C9.58337 3.94558 9.81087 3.99693 10.2659 4.09963L10.6792 4.19323C12.2782 4.55528 13.077 4.73598 13.2675 5.34764C13.4573 5.95864 12.9126 6.5963 11.8226 7.87095L11.5405 8.20051C11.2311 8.56256 11.0757 8.74391 11.0062 8.96751C10.9366 9.19176 10.96 9.43356 11.0068 9.91652L11.0497 10.3566C11.2142 12.0576 11.2967 12.9078 10.7988 13.2855C10.301 13.6631 9.55217 13.3186 8.05591 12.6296L7.66787 12.4515C7.24278 12.2552 7.03023 12.1577 6.80469 12.1577C6.57914 12.1577 6.3666 12.2552 5.94151 12.4515L5.55412 12.6296C4.0572 13.3186 3.30842 13.6631 2.81118 13.2861C2.31264 12.9078 2.39519 12.0576 2.55964 10.3566L2.60254 9.91717C2.64934 9.43356 2.67273 9.19176 2.60254 8.96816C2.53364 8.74391 2.37829 8.56256 2.0689 8.20116L1.78681 7.87095C0.696781 6.59695 0.152094 5.95929 0.341889 5.34764C0.531685 4.73598 1.33182 4.55463 2.93078 4.19323L3.34417 4.09963C3.79851 3.99693 4.02535 3.94558 4.208 3.80713C4.39064 3.66868 4.50699 3.45873 4.74099 3.03882L4.95418 2.65662Z" fill="#FEA201"/>
</svg>
